<svg xmlns="http://www.w3.org/2000/svg" xmlns:xlink="http://www.w3.org/1999/xlink" id="レイヤー_4" data-name="レイヤー 4" viewBox="0 0 1326.61 419.01"><script xmlns="" src="chrome-extension://hoklmmgfnpapgjgcpechhaamimifchmp/frame_ant/frame_ant.js"/><defs><style>.cls-1,.cls-12,.cls-13,.cls-14,.cls-19,.cls-9{fill:none;}.cls-2{fill:#f1c71d;}.cls-16,.cls-17,.cls-3,.cls-4{fill:#fff;}.cls-4{font-size:38.3px;font-family:SourceHanSansJP-Medium-83pv-RKSJ-H, Source Han Sans JP;letter-spacing:0.1em;}.cls-5{letter-spacing:-0.4em;}.cls-6{clip-path:url(#clip-path);}.cls-20,.cls-21,.cls-22,.cls-23,.cls-24,.cls-25,.cls-26,.cls-27,.cls-28,.cls-29,.cls-30,.cls-31,.cls-32,.cls-33,.cls-7,.cls-8{stroke:#f1c71d;stroke-width:1.62px;}.cls-19,.cls-20,.cls-21,.cls-22,.cls-23,.cls-24,.cls-25,.cls-26,.cls-27,.cls-28,.cls-29,.cls-30,.cls-31,.cls-32,.cls-33,.cls-7,.cls-8{stroke-miterlimit:10;}.cls-7{fill:url(#新規パターンスウォッチ_5);}.cls-8{fill:url(#新規パターンスウォッチ_5-3);}.cls-12,.cls-14,.cls-16,.cls-17,.cls-9{stroke:#040000;}.cls-12,.cls-13,.cls-14,.cls-16,.cls-17,.cls-19,.cls-9{stroke-linecap:round;}.cls-12,.cls-13,.cls-14,.cls-16,.cls-17,.cls-9{stroke-linejoin:round;}.cls-13,.cls-16,.cls-9{stroke-width:2.98px;}.cls-10{fill:#f1c720;}.cls-11{fill:#040000;}.cls-12,.cls-17{stroke-width:2.97px;}.cls-13{stroke:#fff;}.cls-14{stroke-width:3.72px;}.cls-15{fill:#fed000;}.cls-18{fill:#f1c800;}.cls-19{stroke:#f1c800;stroke-width:2.47px;}.cls-20{fill:url(#新規パターンスウォッチ_5-5);}.cls-21{fill:url(#新規パターンスウォッチ_5-7);}.cls-22{fill:url(#新規パターンスウォッチ_5-9);}.cls-23{fill:url(#新規パターンスウォッチ_5-11);}.cls-24{fill:url(#新規パターンスウォッチ_5-13);}.cls-25{fill:url(#新規パターンスウォッチ_5-15);}.cls-26{fill:url(#新規パターンスウォッチ_5-17);}.cls-27{fill:url(#新規パターンスウォッチ_5-19);}.cls-28{fill:url(#新規パターンスウォッチ_5-21);}.cls-29{fill:url(#新規パターンスウォッチ_5-23);}.cls-30{fill:url(#新規パターンスウォッチ_5-25);}.cls-31{fill:url(#新規パターンスウォッチ_5-27);}.cls-32{fill:url(#新規パターンスウォッチ_5-29);}.cls-33{fill:url(#新規パターンスウォッチ_5-31);}</style><clipPath id="clip-path"><rect class="cls-1" x="-125.2" y="-82.24" width="1514.95" height="503.06"/></clipPath><pattern id="新規パターンスウォッチ_5" data-name="新規パターンスウォッチ 5" width="17" height="87.34" patternTransform="matrix(0.3, -0.3, -0.3, -0.3, 1189.56, 3087.27)" patternUnits="userSpaceOnUse" viewBox="0 0 17 87.34"><rect class="cls-1" width="17" height="87.34"/><rect class="cls-2" width="4.1" height="87.34"/><rect class="cls-3" x="4.1" width="12.9" height="87.34"/></pattern><pattern id="新規パターンスウォッチ_5-3" data-name="新規パターンスウォッチ 5" width="17" height="87.34" patternTransform="matrix(0.3, -0.3, -0.3, -0.3, 1189.56, 3100.47)" patternUnits="userSpaceOnUse" viewBox="0 0 17 87.34"><rect class="cls-1" width="17" height="87.34"/><rect class="cls-2" width="4.1" height="87.34"/><rect class="cls-3" x="4.1" width="12.9" height="87.34"/></pattern><pattern id="新規パターンスウォッチ_5-5" data-name="新規パターンスウォッチ 5" width="17" height="87.34" patternTransform="matrix(0.3, -0.3, -0.3, -0.3, 1192.24, 3086.32)" patternUnits="userSpaceOnUse" viewBox="0 0 17 87.34"><rect class="cls-1" width="17" height="87.34"/><rect class="cls-2" width="4.1" height="87.34"/><rect class="cls-3" x="4.1" width="12.9" height="87.34"/></pattern><pattern id="新規パターンスウォッチ_5-7" data-name="新規パターンスウォッチ 5" width="17" height="87.34" patternTransform="matrix(0.3, -0.3, -0.3, -0.3, 1192.24, 3099.52)" patternUnits="userSpaceOnUse" viewBox="0 0 17 87.34"><rect class="cls-1" width="17" height="87.34"/><rect class="cls-2" width="4.1" height="87.34"/><rect class="cls-3" x="4.1" width="12.9" height="87.34"/></pattern><pattern id="新規パターンスウォッチ_5-9" data-name="新規パターンスウォッチ 5" width="17" height="87.34" patternTransform="matrix(0.3, -0.3, -0.3, -0.3, 1218.5, 3108.74)" patternUnits="userSpaceOnUse" viewBox="0 0 17 87.34"><rect class="cls-1" width="17" height="87.34"/><rect class="cls-2" width="4.1" height="87.34"/><rect class="cls-3" x="4.1" width="12.9" height="87.34"/></pattern><pattern id="新規パターンスウォッチ_5-11" data-name="新規パターンスウォッチ 5" width="17" height="87.34" patternTransform="matrix(0.3, -0.3, -0.3, -0.3, 1218.5, 3121.94)" patternUnits="userSpaceOnUse" viewBox="0 0 17 87.34"><rect class="cls-1" width="17" height="87.34"/><rect class="cls-2" width="4.1" height="87.34"/><rect class="cls-3" x="4.1" width="12.9" height="87.34"/></pattern><pattern id="新規パターンスウォッチ_5-13" data-name="新規パターンスウォッチ 5" width="17" height="87.34" patternTransform="matrix(0.3, -0.3, -0.3, -0.3, 1235.62, 3120.55)" patternUnits="userSpaceOnUse" viewBox="0 0 17 87.34"><rect class="cls-1" width="17" height="87.34"/><rect class="cls-2" width="4.1" height="87.34"/><rect class="cls-3" x="4.1" width="12.9" height="87.34"/></pattern><pattern id="新規パターンスウォッチ_5-15" data-name="新規パターンスウォッチ 5" width="17" height="87.34" patternTransform="matrix(0.3, -0.3, -0.3, -0.3, 1235.62, 3133.75)" patternUnits="userSpaceOnUse" viewBox="0 0 17 87.34"><rect class="cls-1" width="17" height="87.34"/><rect class="cls-2" width="4.1" height="87.34"/><rect class="cls-3" x="4.1" width="12.9" height="87.34"/></pattern><pattern id="新規パターンスウォッチ_5-17" data-name="新規パターンスウォッチ 5" width="17" height="87.34" patternTransform="matrix(0.3, -0.3, -0.3, -0.3, 1233.64, 3122.5)" patternUnits="userSpaceOnUse" viewBox="0 0 17 87.34"><rect class="cls-1" width="17" height="87.34"/><rect class="cls-2" width="4.1" height="87.34"/><rect class="cls-3" x="4.1" width="12.9" height="87.34"/></pattern><pattern id="新規パターンスウォッチ_5-19" data-name="新規パターンスウォッチ 5" width="17" height="87.34" patternTransform="matrix(0.3, -0.3, -0.3, -0.3, 1233.64, 3135.7)" patternUnits="userSpaceOnUse" viewBox="0 0 17 87.34"><rect class="cls-1" width="17" height="87.34"/><rect class="cls-2" width="4.1" height="87.34"/><rect class="cls-3" x="4.1" width="12.9" height="87.34"/></pattern><pattern id="新規パターンスウォッチ_5-21" data-name="新規パターンスウォッチ 5" width="17" height="87.34" patternTransform="matrix(0.3, -0.3, -0.3, -0.3, 1257.67, 3137.91)" patternUnits="userSpaceOnUse" viewBox="0 0 17 87.34"><rect class="cls-1" width="17" height="87.34"/><rect class="cls-2" width="4.1" height="87.34"/><rect class="cls-3" x="4.1" width="12.9" height="87.34"/></pattern><pattern id="新規パターンスウォッチ_5-23" data-name="新規パターンスウォッチ 5" width="17" height="87.34" patternTransform="matrix(0.3, -0.3, -0.3, -0.3, 1257.67, 3151.11)" patternUnits="userSpaceOnUse" viewBox="0 0 17 87.34"><rect class="cls-1" width="17" height="87.34"/><rect class="cls-2" width="4.1" height="87.34"/><rect class="cls-3" x="4.1" width="12.9" height="87.34"/></pattern><pattern id="新規パターンスウォッチ_5-25" data-name="新規パターンスウォッチ 5" width="17" height="87.34" patternTransform="matrix(0.3, -0.3, -0.3, -0.3, 1268.44, 3141.4)" patternUnits="userSpaceOnUse" viewBox="0 0 17 87.34"><rect class="cls-1" width="17" height="87.34"/><rect class="cls-2" width="4.1" height="87.34"/><rect class="cls-3" x="4.1" width="12.9" height="87.34"/></pattern><pattern id="新規パターンスウォッチ_5-27" data-name="新規パターンスウォッチ 5" width="17" height="87.34" patternTransform="matrix(0.3, -0.3, -0.3, -0.3, 1268.44, 3154.6)" patternUnits="userSpaceOnUse" viewBox="0 0 17 87.34"><rect class="cls-1" width="17" height="87.34"/><rect class="cls-2" width="4.1" height="87.34"/><rect class="cls-3" x="4.1" width="12.9" height="87.34"/></pattern><pattern id="新規パターンスウォッチ_5-29" data-name="新規パターンスウォッチ 5" width="17" height="87.34" patternTransform="matrix(0.3, -0.3, -0.3, -0.3, 1285.53, 3157.23)" patternUnits="userSpaceOnUse" viewBox="0 0 17 87.34"><rect class="cls-1" width="17" height="87.34"/><rect class="cls-2" width="4.1" height="87.34"/><rect class="cls-3" x="4.1" width="12.9" height="87.34"/></pattern><pattern id="新規パターンスウォッチ_5-31" data-name="新規パターンスウォッチ 5" width="17" height="87.34" patternTransform="matrix(0.3, -0.3, -0.3, -0.3, 1285.53, 3170.43)" patternUnits="userSpaceOnUse" viewBox="0 0 17 87.34"><rect class="cls-1" width="17" height="87.34"/><rect class="cls-2" width="4.1" height="87.34"/><rect class="cls-3" x="4.1" width="12.9" height="87.34"/></pattern></defs><text class="cls-4" transform="translate(387.31 -172.52)">誰もが、ジブンジクを持ち<tspan class="cls-5" x="505.61" y="0">、</tspan><tspan x="-72.78" y="72.38">人生の主人公として輝き合うセカイ</tspan></text><g class="cls-6"><path class="cls-3" d="M111.57,85.31a16.94,16.94,0,0,0,9.83,2.89c7.62-.38,10.86-6.84,18-6.67,2.26,0,5.39.78,9.1,3.85L148.53,59c-3.72-3.06-6.85-3.79-9.1-3.84-7.12-.18-10.37,6.29-18,6.67A17,17,0,0,1,111.62,59Z"/><path class="cls-7" d="M111.57,85.31c16.67,10.82,21.41-12.47,36.86,0,.14-.12,0-.52,0-.74q0-9.68,0-19.33c-.05-2.07.1-4.17,0-6.23a9.34,9.34,0,0,0-6-3.63C130,53.18,126.26,68.1,111.62,59Z"/><path class="cls-3" d="M110.1,112.12a4.29,4.29,0,0,1-2.18-.61.79.79,0,0,1-.41-.7l.09-52.15a.81.81,0,0,1,.29-.62,3.55,3.55,0,0,1,2.28-.91,3.74,3.74,0,0,1,2.32.9.8.8,0,0,1,.31.64l-.09,52.15a.84.84,0,0,1-.43.72A4.68,4.68,0,0,1,110.1,112.12Z"/><path class="cls-2" d="M110.17,57.94a2.9,2.9,0,0,1,1.82.73l-.09,52.15a3.81,3.81,0,0,1-1.8.49,3.57,3.57,0,0,1-1.79-.5l.1-52.15a2.7,2.7,0,0,1,1.76-.72m0-1.62h0a4.3,4.3,0,0,0-2.8,1.1,1.63,1.63,0,0,0-.58,1.24l-.09,52.15a1.62,1.62,0,0,0,.82,1.41,5.2,5.2,0,0,0,2.58.71,5.42,5.42,0,0,0,2.56-.68,1.63,1.63,0,0,0,.86-1.42l.09-52.16a1.64,1.64,0,0,0-.62-1.28,4.57,4.57,0,0,0-2.82-1.07Z"/><path class="cls-3" d="M111.57,85.31a16.94,16.94,0,0,0,9.83,2.89c7.62-.38,10.86-6.84,18-6.67,2.26,0,5.39.78,9.1,3.85L148.53,59c-3.72-3.06-6.85-3.79-9.1-3.84-7.12-.18-10.37,6.29-18,6.67A17,17,0,0,1,111.62,59Z"/><path class="cls-8" d="M111.57,85.31c16.67,10.82,21.41-12.47,36.86,0,.14-.12,0-.52,0-.74q0-9.68,0-19.33c-.05-2.07.1-4.17,0-6.23a9.34,9.34,0,0,0-6-3.63C130,53.18,126.26,68.1,111.62,59Z"/><path class="cls-3" d="M110.1,112.12a4.29,4.29,0,0,1-2.18-.61.79.79,0,0,1-.41-.7l.09-52.15a.81.81,0,0,1,.29-.62,3.55,3.55,0,0,1,2.28-.91,3.74,3.74,0,0,1,2.32.9.8.8,0,0,1,.31.64l-.09,52.15a.84.84,0,0,1-.43.72A4.68,4.68,0,0,1,110.1,112.12Z"/><path class="cls-2" d="M110.17,57.94a2.9,2.9,0,0,1,1.82.73l-.09,52.15a3.81,3.81,0,0,1-1.8.49,3.57,3.57,0,0,1-1.79-.5l.1-52.15a2.7,2.7,0,0,1,1.76-.72m0-1.62h0a4.3,4.3,0,0,0-2.8,1.1,1.63,1.63,0,0,0-.58,1.24l-.09,52.15a1.62,1.62,0,0,0,.82,1.41,5.2,5.2,0,0,0,2.58.71,5.42,5.42,0,0,0,2.56-.68,1.63,1.63,0,0,0,.86-1.42l.09-52.16a1.64,1.64,0,0,0-.62-1.28,4.57,4.57,0,0,0-2.82-1.07Z"/><path class="cls-3" d="M1147.91,281c-.19-3.84-6.66-6.43-9.47-7.57-8.48-3.46-16.37-8.33-25-11.49-6.52-2.4-16-6.09-27.48-11.4l-3.35-1.09a36.46,36.46,0,0,1-19.06,8v7.14l-5.49.68v-7.66a36.63,36.63,0,0,1-21.08-8.19l-4,1.09a243.65,243.65,0,0,1-27.49,11.4c-6.92,2.38-33.22,11.07-35.33,17.8-1.12,3.6-.31,5.68-.31,5.68.59,1.53,1.58,2.12,1.58,3.47,0,1.84-1.85,3.18-2.21,3.48-6,5-.39,46.93.3,64.37.35,8.89,0,16,0,16-.29,7.06-1,9.44-.45,24.62,0,0,1.83,54,.41,69-.65,6.79-1,10.18-1.63,11.37-.45.82-1.82,3-1.13,5.26,0,0,.41.79,1,1.68,13.12,20.63,44.18,20.62,92,20.6,62.11,4.14,83.29-10.29,91.44-23.61,10.54-17.24-4.5-26.46-2.66-83,.53-16.14.59-62.74,1.74-84.2.18-3.24.89-15.75-2.65-21.51a9.38,9.38,0,0,1-1.64-4.37C1145.65,285.05,1148,283.44,1147.91,281Z"/><path class="cls-3" d="M1078.59,232.93a90.75,90.75,0,0,1-4.63,48.68c-4.75.29-9.91.48-15.42.48-5.76,0-11.14-.17-16.09-.48q-1.35-11.67-2.68-23.37-1.35-11.88-2.68-23.75Z"/><path class="cls-9" d="M1037.74,233.45a80.39,80.39,0,0,1-.44,12.32"/><path class="cls-9" d="M1079.16,233.45a81.69,81.69,0,0,0,.44,12.32"/><path class="cls-9" d="M1146,288.67c.34,1,1,3,1.71,5.39.67,3.75,1.52,9.22,2.12,15.86a183.84,183.84,0,0,1,.49,27c-.64,12-.34,49.83,2.41,145.33"/><path class="cls-9" d="M970.56,288c-.37,1.25-1,3.64-1.71,6.67a104.67,104.67,0,0,0-2,31.18c1,14.4,1.49,73.48,1.93,156.91"/><path class="cls-9" d="M991,313.67c.78,37,1.76,63.87,2.68,84,.72,15.61,1.79,36-1.86,63.25-1.09,8.09-2.32,14.75-3.23,19.3"/><path class="cls-9" d="M1123,313.67c-.78,37-1.76,63.87-2.68,84-.71,15.61-1.79,36,1.86,63.25,1.09,8.09,2.32,14.75,3.23,19.3"/><path class="cls-9" d="M968.2,322.71a38.8,38.8,0,0,0,3.65,4.08,35.31,35.31,0,0,0,4.71,3.83"/><path class="cls-9" d="M1148.49,318.75a38.62,38.62,0,0,1-3.64,4.08,35.5,35.5,0,0,1-4.72,3.83"/><path class="cls-3" d="M1102.71,180.62c2.49,1.29,4.74,1.24,6.62,3.69,4.24,5.54,1.9,17.73-4.11,19.4-3.59,1-7.36-2.08-8.39-2.94a51.26,51.26,0,0,1-1.28,6.07,50.53,50.53,0,0,1-5.13,12.16c-3.59,6.05-7.5,9.45-13.48,14.63s-8.86,7.62-13.53,8.66a24.18,24.18,0,0,1-10.06,0,31.77,31.77,0,0,1-11.63-5c-4.79-3-11-6.9-15.48-14.89-2.23-4-3.27-8.23-4.67-13.56-.79-3-1.3-5.59-1.63-7.43l-1.57.13c-.33.3-4.65,4-9,1.46-6.43-3.74-8.13-15.68-4-19,2-1.66,4.13.18,6.48-.94,6.88-3.27-2.05-23.05,3.83-34.72,9.69-19.27,62.38-21.76,75.41-2C1097.77,156.44,1092.3,175.25,1102.71,180.62Z"/><path class="cls-10" d="M1087.35,168c2.6,11.37.5,22.19,2.51,22.51.92.15,1.28-2.14,4.86-5a13,13,0,0,1,6.81-3.21,8.11,8.11,0,0,1,1.39,0,9,9,0,0,0,1.94.08c1.56-.21,4-10.69.7-24a59.83,59.83,0,0,0-6.48-15.89c-7.55-8-19.6-20.26-25.92-22.76-1.14-.45-9.15-3.61-13.86-2.54a15.41,15.41,0,0,1-3.63.44,15.61,15.61,0,0,1-5.06-.85c-6.91-2.18-19.64,2.91-22.65,6-.2.2-1.34,1.39-3.06,2.89-1,.86-1.75,1.46-1.86,1.55-5,4-9.58,12.54-9.58,12.54a80.52,80.52,0,0,0-8.78,25.07c-2,11.84.22,16.65,1.64,17.34a8.59,8.59,0,0,0,.92.36c1,.25,1.86-.09,4.32.33,8.39,1.43,13.79,8,14.39,7.35.15-.16-.16-.66-.18-.69-1.7-2.81-1.72-12.06-.34-19.29,2.33-12.26,9.2-21.52,14.94-26.06a16.38,16.38,0,0,1,7.12-3,42.35,42.35,0,0,1,7.34-1,40.22,40.22,0,0,1,14,1.67C1082.2,146.58,1086.83,165.72,1087.35,168Z"/><path class="cls-9" d="M1011.86,183c-1.39-.41-4.52-1.08-6.48.94-3.73,3.84-1.62,15.71,4,19,4.31,2.5,8.63-1.16,9-1.46"/><path class="cls-9" d="M1103.6,183c1.39-.41,4.52-1.08,6.48.94,3.73,3.84,1.63,15.71-4,19-4.31,2.5-8.62-1.16-9-1.46"/><circle class="cls-11" cx="1041.27" cy="189.37" r="2.58"/><circle class="cls-11" cx="1074.71" cy="188.5" r="2.58"/><path class="cls-9" d="M1069.69,181.92a23.62,23.62,0,0,1,6.11-1,22.89,22.89,0,0,1,5.07.46"/><path class="cls-9" d="M1045.68,181.92a23.69,23.69,0,0,0-6.11-1,23,23,0,0,0-5.08.46"/><path class="cls-9" d="M1058,199.34a5.06,5.06,0,0,1,.08,3.13,6.11,6.11,0,0,1-.71,1.58"/><path class="cls-9" d="M1096.29,201.16a50,50,0,0,1-1.63,7.43,51.08,51.08,0,0,1-6.29,13.25c-5.28,7.94-11.3,12.13-16.33,15.63-4.49,3.13-6.93,4.09-9.16,4.61a23.81,23.81,0,0,1-10.06,0l.53.15c-2.23-.52-4.67-1.48-9.16-4.61-5-3.5-11-7.69-16.33-15.63a51.08,51.08,0,0,1-6.29-13.25,50,50,0,0,1-1.63-7.43"/><path class="cls-9" d="M1047.9,218.15a35,35,0,0,0,20.37,0"/><path class="cls-9" d="M1052,140.7a16.14,16.14,0,0,0-4.54.53,17.67,17.67,0,0,0-7.51,4.41c-4.25,3.94-9.33,11.3-12,20.85-2.22,7.85-2.25,15.1-1.79,17.35.11.5.26,1.8.55,4.4.16,1.4.26,2.1,0,2.34-1,.95-4.78-1.29-7-3a24.71,24.71,0,0,1-6.64-7.64"/><path class="cls-9" d="M1051.14,117.25a31.9,31.9,0,0,0-7.82.17c-15.45,2.29-24.68,15.62-28.66,21.37-2.45,3.53-11.13,16.46-10.56,34.23a51.62,51.62,0,0,0,1.35,10.25"/><path class="cls-9" d="M1062.86,140.7a16.43,16.43,0,0,1,4.58.53,17.92,17.92,0,0,1,7.57,4.41c4.29,3.94,9.42,11.3,12.15,20.85,2.25,7.85,2.28,15.1,1.81,17.35-.3,1.45-.36,2.94-.56,4.4-.47,3.6-.6,4.12-.33,4.32.61.45,3.06-1,11.46-10.19"/><path class="cls-9" d="M1060.45,117.25a31.9,31.9,0,0,1,7.82.17c15.45,2.29,24.68,15.62,28.66,21.37,2.44,3.53,11.13,16.46,10.56,34.23a53.16,53.16,0,0,1-1.35,10.25"/><path class="cls-9" d="M1059.3,117.25a31.82,31.82,0,0,1,7.81.17c15,2.22,23.93,14.76,28.67,21.37,4.15,5.79,16.15,22.54,11.12,39.62a30.27,30.27,0,0,1-1.91,4.86"/><polygon class="cls-3" points="1057.27 134.85 1056.09 140.8 1058.46 140.8 1057.27 134.85"/><circle class="cls-11" cx="1012.53" cy="198" r="1.6"/><circle class="cls-11" cx="1102.47" cy="198" r="1.6"/><path class="cls-9" d="M1032.3,253.78a35.59,35.59,0,0,0,1.31-4.15c.69-2.74.62-3.78,1.31-4.15,1.2-.63,3,1.57,5.68,3.49,6.86,5,11.82,2.87,13.81,6.85.47.94-.09.48.34,7,.33,5,.78,7.1,1.67,9.12a16.77,16.77,0,0,0,2,3.45"/><path class="cls-9" d="M1050.58,259.72a13.09,13.09,0,0,0-1.53,2,13.81,13.81,0,0,0-1.74,4.36,31.75,31.75,0,0,1-2.8,7.15"/><path class="cls-9" d="M1059,283.37c8.73-3.51,13.49-8.2,16.24-12,5.14-7,10.32-19.7,13.74-20.28a7.24,7.24,0,0,1,3,.17,6.79,6.79,0,0,1,3.22,2.29c9.36,3.88,17,6.62,22.1,8.39,0,0,16.68,5.73,26.48,13.34a13.81,13.81,0,0,1,2.57,2.71c.52.75,2.39,3.44,2,6.15-.32,2.25-2,3.37-3.57,4.93a19.25,19.25,0,0,0-1.57,1.93c-1.61,1.91-6.85,12.16-19,38.67"/><path class="cls-9" d="M1058.36,283.25c-8.75-3.44-13.51-8.09-16.27-11.84-5.18-7-10.32-19.7-13.74-20.28a7.24,7.24,0,0,0-3,.17,6.7,6.7,0,0,0-3.21,2.29c-9.37,3.88-17,6.62-22.11,8.39,0,0-16.67,5.73-26.48,13.34A13.81,13.81,0,0,0,971,278c-.52.75-2.39,3.44-2,6.15.32,2.25,2,3.37,3.57,4.93A17.86,17.86,0,0,1,974.1,291c1.63,1.93,6.37,13.43,16.83,43"/><path class="cls-9" d="M1085.26,253.78a37.64,37.64,0,0,1-1.31-4.15c-.69-2.74-.61-3.78-1.31-4.15-1.2-.63-3.05,1.57-5.68,3.49-6.86,5-11.82,2.87-13.81,6.85-.47.94.09.48-.34,7-.33,5-.78,7.1-1.66,9.12a17.73,17.73,0,0,1-2,3.45"/><path class="cls-9" d="M1067,259.72a13.09,13.09,0,0,1,1.53,2,14.16,14.16,0,0,1,1.75,4.36,31.61,31.61,0,0,0,2.79,7.15"/><path class="cls-9" d="M1022.94,259.58a85,85,0,0,0,26,29.73q2.6,1.8,5.16,3.3"/><path class="cls-9" d="M1094.17,259.58a85,85,0,0,1-26,29.73q-2.6,1.8-5.16,3.3"/><path class="cls-9" d="M978.32,281.44a49.17,49.17,0,0,1,7.59,17.88"/><path class="cls-9" d="M1138,281.44a49.17,49.17,0,0,0-7.59,17.88"/><path class="cls-3" d="M843.24,486.77c-3.15-105.63-5.68-181.71-5.7-197.12,0-4.58.2-17.27-7.6-22.41a12.23,12.23,0,0,0-3.52-1.59c-6.35-1.83-21.33-8.14-54.35-24.28H716.73c-33,16.14-48,22.45-54.35,24.28a12.11,12.11,0,0,0-3.52,1.59c-7.8,5.14-7.6,17.83-7.61,22.41,0,15.41-2.54,91.49-5.69,197.12"/><path class="cls-12" d="M716.73,241.37c-33,16.14-48,22.45-54.35,24.28a12.11,12.11,0,0,0-3.52,1.59c-7.8,5.14-7.6,17.83-7.61,22.41,0,15.41-2.54,91.49-5.69,197.12"/><path class="cls-3" d="M703.49,291.7q-1.54-5.7-3.1-11.39l7.75-7.11-7.75-12.92,22.47-26.68,3.87,63.52a66.58,66.58,0,0,1-19.37-3.87C706,292.76,704.72,292.24,703.49,291.7Z"/><path class="cls-3" d="M764.69,227.4c.65,10.2,1,21.18.77,32.85-.21,13.52-1.08,26.11-2.32,37.65-2.07,8.67-10,41.76-14,54.1-.58,1.83-1.9,5.74-3.76,5.79s-3.51-4-4.34-6.37c-4.36-12.19-11.52-41.76-14.33-53.52a334.68,334.68,0,0,1-3.1-37.65c-.3-11.83,0-22.83.78-32.85Z"/><path class="cls-12" d="M725.18,265.36a30.31,30.31,0,0,0,38.7,0"/><path class="cls-12" d="M724.41,227.4a287,287,0,0,0-.78,32.85A294.79,294.79,0,0,0,745.51,361.4"/><path class="cls-12" d="M722.86,233.6l-22.47,26.68,7.75,12.92"/><path class="cls-12" d="M722.86,260.56l-22.47,20.52a135.55,135.55,0,0,0,3.87,16.82c9.13,30.53,27.3,51.87,41.1,64.84"/><path class="cls-12" d="M725.18,265.36a30.31,30.31,0,0,0,38.7,0"/><path class="cls-3" d="M788.41,172.92c2.6.72,4.48-.92,6.53.6,4.28,3.2,3.15,15.13-3.05,19.18-4.17,2.73-8.67-.71-9-1l-.34,1.36c-.28,1.45-.7,3.55-1.28,6.07-1.42,6.09-2.26,10.31-4,13.78-4.19,8.59-10.63,12.94-14.68,15.68-3.15,2.13-7.36,4.92-13.5,6a28.63,28.63,0,0,1-10.06,0c-5-.95-8.48-3.07-11.63-5-4.8-3-11-6.9-15.48-14.89-2.23-4-3.28-8.24-4.67-13.56-.79-3-1.3-5.6-1.63-7.44l-1.57.14c-.34.29-4.65,4-9,1.45-6.43-3.74-8.14-15.68-4-19,2.06-1.66,4.14.18,6.49-.95,6.87-3.27-2-23.05,3.82-34.72,9.7-19.26,62.39-21.76,75.41-2C784.24,149.91,780.12,170.62,788.41,172.92Z"/><path class="cls-10" d="M767.12,135.38a30.29,30.29,0,0,1,6.08,8.34c3.68,6.74,6.77,12.4,7.86,20.64,1.31,9.9-1.17,16.76.45,17.23,1.25.37,3.67-3.47,4.86-6.59a19.73,19.73,0,0,0,1.25-7.22c-.28-19.3-.42-28.95-3-33.7-4.55-8.26-13.09-16.23-17.65-15.35l-3.64-2.06a17.4,17.4,0,0,0-3-5c-6.37-7.33-17.29-6.83-21.73-6.62a41.61,41.61,0,0,0-24.89,10c-1.54,1.37-2.4,2.45-4.92,4.44-5.77,4.55-9.75,5.6-9.85,8.16,0,.79.3,2,2.25,3.53a3,3,0,0,0-1.44,0c-1.71.51-2.45,2.68-2.78,3.67-2.18,6.69-1.51,24.47-1.51,24.47.35,9.46-.07,11.74,1.84,15.77,2.16,4.54,5.8,8.21,6.67,7.73.64-.36-.63-2.76-.9-7.17a35.13,35.13,0,0,1,.51-7.91c1.67-11.07,2.5-16.61,5.29-22.42,1.67-3.47,3.51-7.19,7.61-10.37a20.71,20.71,0,0,1,7-3.67,17.14,17.14,0,0,1,4.13-.55c5.67-.21,8.17,1.11,16,2.18a33.76,33.76,0,0,0,7.2.53,26.87,26.87,0,0,0,9.28-2.31Z"/><path class="cls-13" d="M761.1,126.72a15.13,15.13,0,0,0-3.34-5.89c-5.31-5.68-13.73-5.11-15.61-5"/><path class="cls-13" d="M761.11,127.27a10.19,10.19,0,0,0-3-2.93,13.44,13.44,0,0,0-8.46-1.8"/><path class="cls-9" d="M697.56,175.28c-1.39-.41-4.52-1.07-6.49.95-3.72,3.83-1.62,15.7,4,19,4.31,2.51,8.62-1.16,9-1.45"/><path class="cls-9" d="M788.41,172.92c1.37-.49,4.46-1.31,6.53.6,3.92,3.64,2.43,15.6-3.05,19.18-4.17,2.73-8.67-.71-9-1"/><circle class="cls-11" cx="726.96" cy="179.46" r="2.58"/><circle class="cls-11" cx="760.41" cy="178.59" r="2.58"/><path class="cls-9" d="M755.71,172.45a22.88,22.88,0,0,1,10.6-3.59"/><path class="cls-9" d="M732.88,173.05a23.12,23.12,0,0,0-5.72-2.33,23.45,23.45,0,0,0-5-.71"/><path class="cls-9" d="M755.64,204.41a11.93,11.93,0,1,1-23.81.62A94.69,94.69,0,0,1,743,204,97,97,0,0,1,755.64,204.41Z"/><path class="cls-9" d="M743.69,189.44a5.21,5.21,0,0,1,.08,3.13,6.86,6.86,0,0,1-.71,1.58"/><path class="cls-9" d="M782.53,193.07c-.28,1.45-.7,3.55-1.28,6.07-1.42,6.09-2.26,10.31-4,13.78-4.19,8.59-10.63,12.94-14.68,15.68-3.15,2.13-7.36,4.92-13.5,6a28.63,28.63,0,0,1-10.06,0c-5-.95-8.48-3.07-11.63-5-4.8-3-11-6.9-15.48-14.89-2.23-4-3.28-8.24-4.67-13.56-.79-3-1.3-5.6-1.63-7.44"/><path class="cls-9" d="M763.29,116.67a17.4,17.4,0,0,0-3-5c-6.37-7.33-17.29-6.83-21.73-6.62a41.61,41.61,0,0,0-24.89,10c-1.54,1.37-2.4,2.45-4.92,4.44-5.77,4.55-9.75,5.6-9.85,8.16,0,.79.3,2,2.25,3.53a3,3,0,0,0-1.44,0c-1.71.51-2.45,2.68-2.78,3.67-2.18,6.69-1.51,24.47-1.51,24.47.35,9.46-.07,11.74,1.84,15.77,2.16,4.54,5.8,8.21,6.67,7.73.64-.36-.63-2.76-.9-7.17a35.13,35.13,0,0,1,.51-7.91c1.67-11.07,2.5-16.61,5.29-22.42,1.67-3.47,3.51-7.19,7.61-10.37a20.71,20.71,0,0,1,7-3.67,17.14,17.14,0,0,1,4.13-.55c5.67-.21,8.17,1.11,16,2.18a33.76,33.76,0,0,0,7.2.53,26.87,26.87,0,0,0,9.28-2.31"/><path class="cls-9" d="M767.12,135.38a30.29,30.29,0,0,1,6.08,8.34c3.68,6.74,6.77,12.4,7.86,20.64,1.31,9.9-1.17,16.76.45,17.23,1.25.37,3.67-3.47,4.86-6.59a19.73,19.73,0,0,0,1.25-7.22c-.28-19.3-.42-28.95-3-33.7-4.55-8.26-13.09-16.23-17.65-15.35"/><path class="cls-12" d="M660.14,284.08q6,47.37,11.92,94.72c.43,3.49,2.61,20.88,3,24.37q-12.39,48-24.8,96l82.15,1.57,7.33-27.21"/><path class="cls-12" d="M660.14,284.08q6,47.37,11.92,94.72c.43,3.49,2.61,20.88,3,24.37q-12.39,48-24.8,96l82.15,1.57,11.07-41.92"/><path class="cls-12" d="M772.07,241.37c33,16.14,48,22.45,54.35,24.28a12.23,12.23,0,0,1,3.52,1.59c7.8,5.14,7.6,17.83,7.6,22.41,0,15.41,2.55,91.49,5.7,197.12"/><path class="cls-3" d="M785.61,291.7q1.15-5.7,2.32-11.39l-7.75-7.11q3.89-6.45,7.75-12.92L765.46,233.6q-1.15,31.76-2.32,63.52a335.92,335.92,0,0,1-14.86,52.38c-2.62,6.92-5.43,13.59-4,14.48,2.34,1.44,14.64-13.1,22.8-26.06A141.73,141.73,0,0,0,785.61,291.7Z"/><path class="cls-12" d="M765,227.4a287.28,287.28,0,0,1,.78,32.85A298.69,298.69,0,0,1,742.73,365c-.19,25.3-.2,89.91-.2,89.91q6.91,22.92,13.81,45.85l82.15-1.57q-12.39-48-24.8-96c.44-3.49,2.61-20.88,3-24.37q5.93-47.34,11.91-94.72"/><path class="cls-12" d="M766.56,233.6,789,260.28l-7.75,12.92"/><path class="cls-12" d="M766.56,260.56,789,281.08a155,155,0,0,1-3.87,16.82A159.42,159.42,0,0,1,747,363.23c-1.19,1.22-2.16,2.17-2.67,2.67"/><path class="cls-12" d="M769,375.72a3,3,0,1,1-3-3.17A3.09,3.09,0,0,1,769,375.72Z"/><path class="cls-12" d="M769,408.31a3,3,0,1,1-3-3.17A3.09,3.09,0,0,1,769,408.31Z"/><path class="cls-3" d="M508.73,477.28c.93-99.85,1.56-172.36,1.71-179.62a19.83,19.83,0,0,0-1.09-7.18,22.61,22.61,0,0,0-6.58-9.29c-1.36-1.21-2.9-2.35-7.55-4.82C489,273,484.89,271.43,479.6,269c-2.89-1.31-7.08-3.28-12.1-5.91a76.55,76.55,0,0,0-11.72-14.56c-6.4-6.21-16.44-15.94-27.95-16.46-13.51-.61-27.44,11.54-35.07,29.39a121.3,121.3,0,0,1-10.67,6.79c-4.49,2.53-7.46,3.81-15.19,8.08-4.71,2.6-6,3.46-7.55,4.82a22.61,22.61,0,0,0-6.58,9.29,20.07,20.07,0,0,0-1.09,7.18c.15,7.26.78,79.77,1.71,179.62Z"/><path class="cls-14" d="M392.76,261.5a121.3,121.3,0,0,1-10.67,6.79c-4.49,2.53-7.46,3.81-15.19,8.08-4.71,2.6-6,3.46-7.55,4.82a22.61,22.61,0,0,0-6.58,9.29,20.07,20.07,0,0,0-1.09,7.18c.15,7.26.78,79.77,1.71,179.62"/><path class="cls-14" d="M381.2,335.54c-.13,3.59-.2,8.42,0,14.15.1,3,.27,5.86.49,8.85,1.09,14.3,3.46,29.69,5.28,42.86,0,0,.14,1,.48,4.4.55,5.41.46,6.21.24,7-.75,2.73-2.37,2.81-2.89,4.92-.39,1.59-.08,4.07,3.18,7.9q-1.89,5.07-3.77,10.19-9.58,26.11-18.06,51.74"/><path class="cls-14" d="M448.58,262.73a115.43,115.43,0,0,1-11.85,36.64,113.69,113.69,0,0,1-8.22,13.32"/><path class="cls-14" d="M449.1,242.19a232.08,232.08,0,0,1,27.33,33c.41.62,4.72,7.15,3,8.48-2.37,1.89-12.84-9.63-21.49-7-4.41,1.32-5.53,5.78-9.74,13.5a118.16,118.16,0,0,1-16.69,23.25"/><path class="cls-14" d="M407.89,263.15a127,127,0,0,0,12,36.22,124.59,124.59,0,0,0,7.9,13.35V486.2"/><path class="cls-14" d="M407.53,242.19a231.14,231.14,0,0,0-27.32,33c-.42.62-4.73,7.15-3,8.48,2.37,1.89,12.84-9.63,21.49-7,4.68,1.4,6,6.32,9.74,13.5a106.44,106.44,0,0,0,19,25.79"/><path class="cls-14" d="M409,239.62a33.4,33.4,0,0,1,2.23,8.34,34.1,34.1,0,0,1-2.23,17"/><path class="cls-14" d="M447.74,239.62a33,33,0,0,0-2.22,8.34,34,34,0,0,0,2.22,17"/><path class="cls-3" d="M477,212.5a8.12,8.12,0,0,0-2.1-5.78,7.68,7.68,0,0,0-5.5-2c3.34-10.93,7.49-32.94-5.23-51.63-2.45-3.6-13.45-20.24-30.09-20.69-25.42-.7-40.89,36.93-41.72,43.35-.05.38-.56,4.57-1.48,10.37-.39,2.43-.69,4.13-.75,4.45-2.74,16,3.25,30.41,3.25,30.41,1.87,4.51,7.57,18.21,22,24.45a32.57,32.57,0,0,0,14.08,3c13.76-.5,26.6-11.88,33.75-28.19l-.88,3.42a9.61,9.61,0,0,0,6.88,1.53C474.56,224.05,477.19,217.29,477,212.5Z"/><path class="cls-9" d="M466.39,167.15a73.74,73.74,0,0,0,.87,12.17c.74,4.67,1.64,7.33,3.48,14.78,1.21,4.89,2.08,8.85,2.61,11.3"/><path class="cls-9" d="M363.8,208.88a37.44,37.44,0,0,0-.87,29.56"/><path class="cls-15" d="M481.17,163.67c-2.26-10.59-5.63-26.35-16.52-30.43a16.66,16.66,0,0,0-7.56-.9l-4-.41a24.54,24.54,0,0,0-6.69-7.39A25.21,25.21,0,0,0,436,120.2c-12.56-2.45-25.11,5-26.95,6.08-9.7,5.9-15.59,15.61-26.95,34.78-9.92,16.73-7.16,15-13,23.48-12.52,17.94-21.54,20.65-24.35,33.9-.61,2.89-2.4,11.52,1.74,20,5.07,10.39,16.32,15,20,16.52,5.58,2.67,11.75,6.7,12.17,12.17.15,2-.53,2.88-1.74,7-2.13,7.2-3.42,11.52-2.61,15.65,1.65,8.43,11.61,13.95,17.39,14.78a30.66,30.66,0,0,0,5.27.21,12.29,12.29,0,0,1-1.79-.21c-4.33-.85-11.82-5.59-12.17-11.3-.24-3.88,3-4.84,7.39-12.7,2.91-5.2,4.46-7.82,4.7-11.29a52.37,52.37,0,0,0-.59-9.13l.09-.11c.06-.06,1.74-2.06,4-4.59,0,0,1-1.11,1.84-2a78.81,78.81,0,0,1,8.19-7.45c-.16-.75-.39-1.78-.75-3,0,0-.36-1.21-.74-2.23a21.85,21.85,0,0,0-3-5.21c-8.51-11.11-8.86-11-10-13.07-4.22-7.6-4.33-16.08-4.73-23a18,18,0,0,1,0-4.53c1.92-7.73,12.81-7.82,23.51-20.69l.21-.26c6.3-7.65,6.89-11.43,12-18.55,2.34-3.25,3-4.09,3.77-4.7a17.69,17.69,0,0,1,9.4-3.76,19.84,19.84,0,0,1,12.23,1.88,17,17,0,0,1,2.82,1.88,126.14,126.14,0,0,0,8.72,40.75,123.36,123.36,0,0,0,6.08,13,11.31,11.31,0,0,1,4.95,1.69,11.11,11.11,0,0,1,3.79,4.07c.15-.56.69-2.64.83-3.15,5-19.17,5.17-23.83,5.21-26.08A75.68,75.68,0,0,0,481.17,163.67Z"/><path class="cls-15" d="M402.77,303.94a5,5,0,0,0,1-.29A9.85,9.85,0,0,0,402.77,303.94Z"/><path class="cls-15" d="M402.77,303.94a33.17,33.17,0,0,1-3.32.58c-.91.11-1.76.17-2.56.21A19,19,0,0,0,402.77,303.94Z"/><path class="cls-15" d="M465.25,223.94c1.12.09,1.51,1,3.12,1.09,2.1.12,3.2-1.41,3.77-.94,1,.85-.86,4.56-1.89,6.58s-2.77,4.08-5.64,6.59c-4.23,3.69-10.58,7.86-12.12,6.46a4.36,4.36,0,0,1-.74-2.23c-.05-.48,0-.7,0-2.24,0-.87,0-1.37,0-1.49,0-2,4.33-4.28,7.44-7.44C462.57,226.89,463.15,223.79,465.25,223.94Z"/><path class="cls-9" d="M450.31,144.11c-4.11-5.12-7.52-6-9.57-6.09-13.15-.57-14.53,29.72-40.42,45.65-.47.28-2.26,1.26-5.43,3.06-8.41,4.79-15.72,9.09-17.18,10-8.06,4.9-27.78,21.3-25.21,39.12.45,3.18,2.08,9.6,9.56,16.52"/><path class="cls-9" d="M453.35,132.37a24.63,24.63,0,0,0-7-7.83A25.21,25.21,0,0,0,436,120.2c-12.56-2.45-25.11,5-26.95,6.08-9.7,5.9-15.59,15.61-26.95,34.78-9.92,16.73-7.16,15-13,23.48-12.52,17.94-21.54,20.65-24.35,33.9-.61,2.89-2.4,11.52,1.74,20,5.07,10.39,16.32,15,20,16.52,9.94,4.09,15.53,2.3,20.86,7.83a20.62,20.62,0,0,1,5.22,11.3"/><path class="cls-9" d="M453.35,146.28a125.35,125.35,0,0,0,8.7,45.21,121.27,121.27,0,0,0,6.08,13"/><path class="cls-9" d="M471.79,225.41a35.23,35.23,0,0,1-5.1,9.86,29.38,29.38,0,0,1-2.78,3,32.77,32.77,0,0,1-4,3.17,32.12,32.12,0,0,1-7.45,3.72"/><path class="cls-9" d="M456.83,132.37a16.85,16.85,0,0,1,7.82.87c10.89,4.08,14.26,19.84,16.52,30.43a75.68,75.68,0,0,1,1.74,17.39c0,2.25-.24,6.91-5.21,26.08-.29,1.09-.56,2.14-.83,3.15"/><path class="cls-9" d="M424.7,193.33A13.27,13.27,0,0,1,423,204.64"/><path class="cls-9" d="M450.83,183.29a15.1,15.1,0,0,0-9.44-1.42"/><path class="cls-9" d="M386.09,213.28a40.24,40.24,0,0,0-2.83,15c.19,16.83,11.39,23.89,11.29,37.62,0,5.35-1.81,13.13-10.35,22.57"/><path class="cls-9" d="M452,133c-.33-1.27-2.42-8.92-9.57-12.17-4.58-2.09-8.9-1.3-11.3-.87a24.9,24.9,0,0,0-13,7"/><path class="cls-9" d="M391.62,161.06c-1.39,1.73-2.83,3.47-4.35,5.22A181.64,181.64,0,0,1,369,184.54"/><path class="cls-9" d="M466.39,167.15a73.74,73.74,0,0,0,.87,12.17c.74,4.67,1.64,7.33,3.48,14.78,1.21,4.89,2.08,8.85,2.61,11.3"/><path class="cls-9" d="M407.27,178.45c-1,1-2.5,2.54-4.35,4.35-6.77,6.63-9.78,8.92-12.17,11.3-6.81,6.79-9.24,15.06-10.43,19.13-1.42,4.81-4.05,13.77-.87,24.34a37.19,37.19,0,0,0,7.82,13.91"/><path class="cls-9" d="M363.8,208.88a37.44,37.44,0,0,0-.87,29.56"/><path class="cls-9" d="M443.92,147a22.44,22.44,0,0,0-4.68-4.71,20.32,20.32,0,0,0-3.12-1.88"/><path class="cls-9" d="M438,146.65a14.1,14.1,0,0,0-3.72-1.34,13.18,13.18,0,0,0-2.25-.26"/><path class="cls-9" d="M467.42,205.71c.43-.08,5-.83,7.67,2.18a8.16,8.16,0,0,1,1.74,5.86c-.08,5.51-3.94,12.05-8.52,12.09a6,6,0,0,1-3.78-1.43"/><path class="cls-9" d="M389.73,196.13c-.06,5.55.43,21.44,10.37,35a50.47,50.47,0,0,0,14.45,13.17c5.63,3.39,9,3.91,10.75,4.06,2.14.18,5.77.15,12.24-2.59a51.59,51.59,0,0,0,17.67-12.09,52.79,52.79,0,0,0,7.1-9.32"/><path class="cls-9" d="M436.52,216.48c.23,8.3-6.91,14.33-13.48,13.47-5.84-.76-10.87-6.9-10.11-14.15a42.25,42.25,0,0,1,23.59.68Z"/><circle class="cls-11" cx="444.2" cy="190.9" r="2.58"/><circle class="cls-11" cx="409.52" cy="189.8" r="2.58"/><path class="cls-9" d="M389.88,267.13a11.63,11.63,0,0,1,1.74,4.35c1.62,9.21-9.62,13.68-8.69,21.74.62,5.4,6.44,10.17,12.17,11.3,4.27.84,8.68-1,8.69-.87a22.67,22.67,0,0,1-4.34.87,31.67,31.67,0,0,1-7.83,0c-5.78-.83-15.74-6.35-17.39-14.78-.81-4.13.48-8.45,2.61-15.65,1.21-4.08,1.89-5,1.74-7-.42-5.47-6.59-9.5-12.17-12.17"/><path class="cls-14" d="M467.5,263.13c5,2.63,9.21,4.6,12.1,5.91,5.29,2.39,9.37,4,15.62,7.33,4.65,2.47,6.19,3.61,7.55,4.82a22.61,22.61,0,0,1,6.58,9.29,19.83,19.83,0,0,1,1.09,7.18c-.15,7.26-.78,79.77-1.71,179.62"/><path class="cls-14" d="M482.64,335.54c.13,3.59.2,8.42,0,14.15-.1,3-.27,5.86-.49,8.85-1.09,14.3-3.46,29.69-5.28,42.86,0,0-.14,1-.48,4.4-.55,5.41-.45,6.21-.24,7,.75,2.73,2.38,2.81,2.89,4.92.39,1.59.09,4.07-3.18,7.9q1.9,5.07,3.77,10.19,9.58,26.11,18.06,51.74"/><path class="cls-14" d="M507.92,286.81a56.47,56.47,0,0,0-15.61,26.26"/><path class="cls-14" d="M357.26,286.81a56.38,56.38,0,0,1,15.62,26.26"/><path class="cls-9" d="M409.13,245.73a48.64,48.64,0,0,0-11.93,10.92Q396,258.24,395,259.8"/><path class="cls-3" d="M926.2,339.93c-7.3-1.22-10.44-4-12-6.34-1-1.44-1.18-2.55-3.17-7.74-1.34-3.49-2.51-6.31-3.29-8.17a25.6,25.6,0,0,0-28,.76,25.68,25.68,0,0,0-3.52,7.77c-1,3.73-.49,5.38-1.23,7.38-1,2.62-4,5.77-13.46,7.55,3.44,2.56,17.17,12.14,36.33,10.4A52.92,52.92,0,0,0,926.2,339.93Z"/><path class="cls-3" d="M869.28,341.58c1.35.48,7,2.27,15,4.37a46.34,46.34,0,0,0,9.13,1.38,59.14,59.14,0,0,0,26.78-4.25,26.3,26.3,0,0,0,3.92-2,11.2,11.2,0,0,1,1.47-.61c6.81-2.22,14,3.09,16.42,5,4.35,1,11.72,3.51,17,10.05,2.68,3.34,4.28,7.09,7.22,21,2.23,10.55,3.35,15.83,4.08,22.61,5.67,52.05-.6,101-4.82,132.65-.54,4.05-1.42,10.11-5.85,15.52-7.23,8.84-18.26,9-49.46,9.9-38.82,1.07-58.07,1.74-74.3-8.06a33.29,33.29,0,0,1-10.37-9.22c-5.21-7.3-5.66-14.91-6.33-29.95-.81-18.18-1.21-27.26-1.15-28.8,2.41-69.6-9.86-103.26,12.09-124.58C840.31,346.63,859.36,338.06,869.28,341.58Z"/><path class="cls-12" d="M845.26,346.94a140.22,140.22,0,0,0,100.08,1"/><path class="cls-3" d="M939.46,253c4.29,18.87-3.23,34.48-5.26,38.57-.55,1.11-7.54,14.81-21.28,23.42-8.21,5.15-14.21,5.58-15.87,5.66a27.2,27.2,0,0,1-8.14-.86c-1.67-.44-7.9-2.27-15.38-10.19a63.24,63.24,0,0,1-14.75-27.23c-1.31-5.36-4.69-19.81,1.38-35.31,5.92-15.1,22.12-35.44,43.48-33.3S936.24,238.87,939.46,253Z"/><path class="cls-9" d="M929.59,289.4a40.13,40.13,0,0,1-8.83,18c-1.77,2.05-11.67,13.46-25.94,13a26.3,26.3,0,0,1-3.74-.39c-14.76-2.59-22.57-16-23.9-18.28a41.35,41.35,0,0,1-5.5-19.48"/><path class="cls-10" d="M912.78,208.87a37.06,37.06,0,0,1,11.2,3c12.5,5.6,18.36,16.83,20.76,21.59,11.88,23.6-3.12,32.4,6.72,62.55,2.19,6.69,6.13,16.09,3.21,27-.83,3.12-2.38,8.89-7.39,12.56-7.39,5.41-16.35,1.89-17.54,5.42-.85,2.49,2.75,6.72,6.43,7.95a8.88,8.88,0,0,0,3.6.38,26,26,0,0,1-12-1.26A15,15,0,0,1,925.4,347a14.8,14.8,0,0,1-3-2.06c-1.78-1.74-1.14-3-2.35-4.48-1.93-2.41-4.8-.94-8.19-3a11,11,0,0,1-4.41-5.67c-2.39-6.54,2.55-13.43.89-14.4-.87-.51-2.6,1-2.62,1s8.45-4.07,14.27-9.84c6.47-6.41,8.26-13.73,11.82-28.36,3.6-14.8,1.56-17.83.1-18.89-1.31-1-1.81-.25-4.91-1.15-5.44-1.58-6.21-5.48-10.69-6.17-2.17-.33-3,.42-5.12.72-9.06,1.3-21.87-8.71-23.15-19.46-.6-5.05,1.64-7.87.3-8.79-2.61-1.79-13.29,7.47-20.17,18-4,6.11-8.69,13.33-8.74,23,0,.84,1.14,7.63,3.44,21.16a70.51,70.51,0,0,0,1.63,8.36c2.06,5.35,7.4,13.44,12.75,16.47a6.31,6.31,0,0,1,2.86,2.82,6.74,6.74,0,0,1,.16,4.43c-2.19,9-3.28,13.5-4.14,14.5-3.18,3.69-9,6.74-14.15,5.21a10.06,10.06,0,0,1-3-1.49,21,21,0,0,1-4.63,1.35,22.68,22.68,0,0,1-12-1.26,9.19,9.19,0,0,0,3.6.38c3.85-.44,8.26-3.83,8-6.44-.43-3.7-9.93-2.13-16-9-4.14-4.63-4.44-10.6-4.61-13.82-.57-11.29,5.25-19.66,8.79-25.75C858,257,845.21,245.29,861.77,224.7c3.34-4.16,11.42-13.92,24.81-16.78a37.31,37.31,0,0,1,11.58-.6Z"/><path class="cls-3" d="M857.84,267.44c-1.17-.35-3.77-1.13-5.72.08-4.23,2.6-4.23,13.69,1.32,16.88a7.94,7.94,0,0,0,7.91-.23c3.5-2.22,4.25-7,3.12-10.47C863,269.06,858.32,267.59,857.84,267.44Z"/><path class="cls-9" d="M929.59,289.4a40.13,40.13,0,0,1-8.83,18c-1.77,2.05-11.67,13.46-25.94,13a26.3,26.3,0,0,1-3.74-.39c-14.76-2.59-22.57-16-23.9-18.28a41.35,41.35,0,0,1-5.5-19.48"/><path class="cls-9" d="M857.84,267.44c-1.16-.51-3.8-1.44-5.72.08-3.66,2.89-3.2,13.39,1.32,16.88,3.44,2.66,7.59,0,7.91-.23"/><path class="cls-9" d="M910.12,272.6a12.06,12.06,0,0,1,2.58.45,11.79,11.79,0,0,1,2,.79"/><path class="cls-9" d="M882.78,262.58a41.34,41.34,0,0,0-5.37,0,37.46,37.46,0,0,0-4.27.54"/><path class="cls-9" d="M909.56,265.53a40.14,40.14,0,0,1,5.34,1,37.76,37.76,0,0,1,4.15,1.32"/><path class="cls-9" d="M881.76,269.45a11.37,11.37,0,0,0-2.65,0,11.22,11.22,0,0,0-2.1.42"/><path class="cls-9" d="M905.94,295.11c-1,2.41-3.63,8-9.19,10.19a7.06,7.06,0,0,1-3.12.69c-4.14-.23-7.9-5.52-9.77-13.21a84.17,84.17,0,0,1,22.08,2.33Z"/><path class="cls-9" d="M888.4,225.09c-.21,1.24-2,13.34,5,21.14a27,27,0,0,0,7.89,5.68,24.09,24.09,0,0,0,7.07,2"/><path class="cls-9" d="M902.41,230.2a37.7,37.7,0,0,0,7.82,17.8,38.38,38.38,0,0,0,21.64,13.2"/><path class="cls-9" d="M883.23,228.18a64.54,64.54,0,0,0-19.32,22.2,62.41,62.41,0,0,0-5,12.81"/><path class="cls-9" d="M923.31,231a57.9,57.9,0,0,1,4.64,9.28,61.54,61.54,0,0,1,3.7,15.23c1.4,11.27.2,21.77-.93,29.15-2.42,15.71-5.09,33-18.43,47.14A58.75,58.75,0,0,1,901.07,341"/><path class="cls-9" d="M907.78,317.68a31,31,0,0,0,0,8.44,28.33,28.33,0,0,0,2.41,8.44c2.14,4,7.14,5,13.5,5.6"/><path class="cls-9" d="M898.16,207.32a37.31,37.31,0,0,0-11.58.6c-13.39,2.86-21.47,12.62-24.81,16.78C845.21,245.29,858,257,842.12,284.45c-3.54,6.09-9.36,14.46-8.79,25.75.17,3.22.47,9.19,4.61,13.82,6.09,6.84,15.59,5.27,16,9,.31,2.61-4.1,6-8,6.44a9.19,9.19,0,0,1-3.6-.38,22,22,0,0,0,12,1.26,18.37,18.37,0,0,0,9-5.11"/><path class="cls-9" d="M912.78,208.87a37.06,37.06,0,0,1,11.2,3c12.5,5.6,18.36,16.83,20.76,21.59,11.88,23.6-3.12,32.4,6.72,62.55,2.19,6.69,6.13,16.09,3.21,27-.83,3.12-2.38,8.89-7.39,12.56-7.39,5.41-16.35,1.89-17.54,5.42-.85,2.49,2.75,6.72,6.43,7.95a8.88,8.88,0,0,0,3.6.38,21.82,21.82,0,0,1-12-1.26,18.39,18.39,0,0,1-7.76-6.89"/><path class="cls-9" d="M893.66,283.64a1.86,1.86,0,0,0,1.67,1.06,1.93,1.93,0,0,0,1.45-.73"/><circle class="cls-16" cx="856.3" cy="285.44" r="3.13"/><path class="cls-12" d="M835.28,389.08c0,7.12.09,18.41.91,32.26,0,0,1.12,18.73,8.18,72h0q-1.85,5.24-3.75,10.52-6.52,18.09-13.31,35.47s134.22-1.81,134.22,0q-6.78-17.38-13.31-35.47-1.9-5.28-3.75-10.52h0c7.06-53.23,8.18-72,8.18-72,.82-13.85.93-25.14.91-32.26"/><path class="cls-9" d="M965.43,531.78l2.4-25.1s10.23-108.5-5.61-144.68a25.54,25.54,0,0,0-1.58-3.14s-.44-.73-.93-1.43c-1.51-2.13-5.59-7.17-21.88-13.33-1.51-.57-3.8-1.41-6.65-2.33"/><path class="cls-9" d="M821.6,532.68q-1.19-12.54-2.39-25.1S809,399.08,824.82,362.9a24.18,24.18,0,0,1,1.58-3.14s.44-.73.93-1.43c1-1.38,7.36-8.18,21.87-13.33,3.81-1.35,7.83-2.46,8.53-2.66,2.19-.6,3.87-1,5.24-1.33,12.19-3.26,13.66-4.77,14.37-5.69,1.58-2,1.88-4.28,2.42-8.44a33.45,33.45,0,0,0,0-8.44"/><path class="cls-3" d="M664.92,330a58.16,58.16,0,0,0-8-6.53c-6.94-5-13-8-22.63-12.22-7.57-3.35-16.8-7.25-27.48-11.4l-3.36-1.09a36.37,36.37,0,0,1-19,8v7.14l-5.49.68v-7.67a36.64,36.64,0,0,1-21.08-8.18l-4,1.09c-11.34,5.31-20.76,9-27.48,11.4-8.22,3-14.25,4.75-20.67,10.21A50.79,50.79,0,0,0,496.11,333c-11.58,19.52-11.83,67.79-13.07,97-1.24,29.44-3.8,46.82-.5,77.87,2,18.61,4,23,6,26.13,13.12,20.63,44.18,20.62,91.94,20.6,0,0,66.18,0,91.45-23.61a30.19,30.19,0,0,0,6.53-9.05c3.49-8.12,1.63-16,1-19.09-1.62-7.91,1.15-1.88.51-43.71-1.07-69.43-8.32-61.59-6.53-94C673.86,357.93,675.16,340.68,664.92,330Z"/><path class="cls-3" d="M601.34,282.2a90.78,90.78,0,0,1-4.63,48.68c-4.76.29-9.91.47-15.42.48-5.76,0-11.14-.18-16.09-.48q-1.35-11.69-2.68-23.37-1.35-11.88-2.68-23.75Z"/><path class="cls-9" d="M549,303.2a49.49,49.49,0,0,0,63.21,0"/><path class="cls-9" d="M560.49,282.72a139.66,139.66,0,0,1-.44,16.25"/><path class="cls-9" d="M601.91,282.72a141.9,141.9,0,0,0,.44,16.25"/><path class="cls-3" d="M624.1,229.87c2.63.64,4.46-1.06,6.55.4,4.38,3.06,3.63,15-2.44,19.26-4.09,2.86-8.69-.43-9.05-.7l-.3,1.36c-.23,1.46-.58,3.58-1.09,6.11-1.23,6.14-1.93,10.38-3.52,13.91-3.92,8.71-10.22,13.26-14.18,16.13a33.34,33.34,0,0,1-13.31,6.41,28.48,28.48,0,0,1-10,.28c-5.06-.79-8.57-2.8-11.79-4.67C560,285.51,553.66,281.81,549,274c-2.35-3.95-3.53-8.13-5.09-13.41-.88-3-1.47-5.55-1.86-7.37l-1.57.18c-.32.3-4.52,4.1-8.9,1.73-6.55-3.53-8.63-15.41-4.64-18.85,2-1.73,4.14,0,6.46-1.15,6.76-3.48-2.78-23,2.73-34.83,9.08-19.55,61.67-23.7,75.31-4.33C619.21,207,615.74,227.84,624.1,229.87Z"/><path class="cls-10" d="M616.84,225.52a40.25,40.25,0,0,1-15.23-33.17l-4.54,4.76a40.53,40.53,0,0,1-15.94,18c-4.59,2.67-8.69,3.69-14,5s-13,2.61-13.63.94c-.38-1,2-2.18,5-7,.92-1.48,2.27-3.65,1.78-4.14-.78-.77-6,3.31-6.5,3.74-1.94,1.53-6.68,5.52-13.25,14.86-1.63,2.32-2.89,4.28-3.71,5.59l-3.72.15a10.62,10.62,0,0,0-2.34-.48,18.67,18.67,0,0,0-3.35.2c-3.16-.29-6.47-14.85-3.62-28a36,36,0,0,1,3.48-9.6,34.65,34.65,0,0,1,4.33-6.29c-8.14-4-10-5.57-9.75-6.16.35-1,5.88,1.5,10.67-1.28a29.19,29.19,0,0,0,4.49-3.62,27.32,27.32,0,0,0,2.52-2.83,43.05,43.05,0,0,1,28.76-13.74c2.9-.16,18.06-1,27.39,9.17a25.39,25.39,0,0,1,2.91,3.86l4.09,1.1a10.23,10.23,0,0,1,3.31-.86c6.94-.55,12.35,6.76,13.22,8s2.4,5,5.41,12.45a35.36,35.36,0,0,0,4.52,8.47,18.66,18.66,0,0,0,3.58,3.82c3,2.27,5.6,2.53,5.54,3s-2.06.82-10.71.62c-.28-1.11.59,2.2.87,3.3a24.68,24.68,0,0,1,.57,10c-.27,1.63-.6,2.3-1.18,2.76-1.41,1.11-3.56.39-4,.23Z"/><path class="cls-9" d="M533.34,234.42c-1.41-.36-4.56-.93-6.46,1.15-3.6,4-1.12,15.74,4.64,18.86,4.38,2.36,8.58-1.43,8.9-1.74"/><path class="cls-9" d="M624.06,229.2c1.36-.52,4.43-1.45,6.55.4,4,3.51,2.92,15.51-2.44,19.26-4.09,2.86-8.69-.43-9-.7"/><path class="cls-9" d="M593.76,262.28a13.93,13.93,0,0,1-26.71,2.28,35.8,35.8,0,0,1,26.71-2.28Z"/><path class="cls-9" d="M580,248.46a5,5,0,0,1,.18,3.12,6.34,6.34,0,0,1-.66,1.61"/><path class="cls-9" d="M618.82,249.52c-.23,1.46-.58,3.58-1.09,6.11-1.23,6.14-1.93,10.38-3.52,13.91C610.29,278.25,604,282.8,600,285.67a33.35,33.35,0,0,1-13.3,6.41,28.53,28.53,0,0,1-10.06.28c-5.06-.79-8.57-2.8-11.78-4.67-4.89-2.85-11.27-6.55-15.95-14.4-2.35-4-3.53-8.13-5.09-13.41-.88-3-1.47-5.55-1.86-7.37"/><path class="cls-9" d="M536.75,234.16c.82-1.31,2.08-3.27,3.71-5.59,6.57-9.34,11.31-13.33,13.25-14.86.54-.43,5.72-4.51,6.5-3.74.49.49-.86,2.66-1.78,4.14-3.07,4.94-5.33,6-5,7,.68,1.85,9.64.7,17.35-1.68a44.51,44.51,0,0,0,11-4.57,40.07,40.07,0,0,0,15.26-17.75"/><path class="cls-9" d="M598.52,175.54a25.39,25.39,0,0,0-2.91-3.86c-9.33-10.15-24.49-9.33-27.39-9.17a43.05,43.05,0,0,0-28.76,13.74,27.32,27.32,0,0,1-2.52,2.83,29.19,29.19,0,0,1-4.49,3.62c-4.79,2.78-10.32.32-10.67,1.28-.22.59,1.61,2.13,9.75,6.16a34.65,34.65,0,0,0-4.33,6.29,36,36,0,0,0-3.48,9.6c-2.85,13.15.46,27.71,3.62,28a18.67,18.67,0,0,1,3.35-.2,10.62,10.62,0,0,1,2.34.48"/><path class="cls-9" d="M623.72,228.48c.46.16,2.61.88,4-.23.58-.46.91-1.13,1.18-2.76a24.68,24.68,0,0,0-.57-10c-.28-1.1-1.15-4.41-.87-3.3h0c8.65.2,10.67-.18,10.71-.62s-2.57-.77-5.54-3a18.66,18.66,0,0,1-3.58-3.82,35.36,35.36,0,0,1-4.52-8.47c-3-7.45-4.51-11.18-5.41-12.45s-6.28-8.52-13.22-8a10.23,10.23,0,0,0-3.31.86"/><path class="cls-9" d="M601.61,192.35a40.25,40.25,0,0,0,15.23,33.17"/><path class="cls-9" d="M590.6,226.07a19.38,19.38,0,0,1,12.12.91"/><path class="cls-9" d="M567,227.43A18.91,18.91,0,0,0,555,229.72"/><path class="cls-9" d="M560.25,237.53c.4-.13,1.09-.35,2-.6s1.34-.36,1.73-.45"/><path class="cls-9" d="M597.45,235.39c-.42-.08-1.13-.23-2-.37-.76-.12-1.37-.2-1.76-.24"/><path class="cls-9" d="M578.87,314.61v-7.67a36.64,36.64,0,0,1-21.08-8.18l-4,1.09c-12.41,5.24-21.82,9.09-27.48,11.4-13.21,5.37-21,8.37-27.34,16.33a45.51,45.51,0,0,0-5,8.05c-9.7,20.62-11.62,172-11.77,184.57"/><path class="cls-9" d="M508.1,360.52a520.88,520.88,0,0,0-2.66,55.89c.16,23.33.24,35,2,50.57,1.55,13.81,3.75,25.71,2,43.25a139,139,0,0,1-3.33,19.29"/><path class="cls-9" d="M583.58,314.61v-7.67a36.57,36.57,0,0,0,21.07-8.18l4,1.09c12.42,5.24,21.83,9.09,27.49,11.4,13.2,5.37,21,8.37,27.34,16.33a45.51,45.51,0,0,1,5,8.05c9.7,20.62,11.62,172,11.76,184.57"/><path class="cls-9" d="M654.35,360.52A520.88,520.88,0,0,1,657,416.41c-.16,23.33-.24,35-2,50.57-1.55,13.81-3.76,25.71-2,43.25a137.73,137.73,0,0,0,3.32,19.29"/><path class="cls-9" d="M493.36,367.8a37.53,37.53,0,0,0,3.64,4.08,35.5,35.5,0,0,0,4.72,3.83"/><path class="cls-9" d="M669.37,367.8a38.62,38.62,0,0,1-3.64,4.08,35.5,35.5,0,0,1-4.72,3.83"/><path class="cls-10" d="M1247.26,292.44a12.68,12.68,0,0,1,6.41,2.24c9.92,7.2,1.81,27.2,10.72,33.14,5.41,3.6,13-.68,13.77,1.44.69,1.94-5.24,6.79-11.85,8.16a22.08,22.08,0,0,1-14.41-2.24c-1,.22-10.74,2.28-17.71-4.26-7.81-7.31-4.93-18.67-4.47-20.5C1233,297.54,1246.07,292.84,1247.26,292.44Z"/><path class="cls-3" d="M1256.53,239.32c2.67,9.3,3.11,23.32-1.79,26.45a8.56,8.56,0,0,0-2.11,1.64c-3.2,3.52-2.12,9-1.87,11.49,1.38,13.75-13.92,26.88-15,27.78a32,32,0,0,1-15.89,7.63,28.39,28.39,0,0,1-8.55,0c-8.45-1.31-14.08-6.19-17.11-8.9-11.11-9.92-15-23-17.29-31-3.2-11.18-6-21-3.48-32.58,3.51-16.14,18.08-39.25,41.55-39.4C1239.05,202.31,1252.83,226.42,1256.53,239.32Z"/><path class="cls-12" d="M1250.27,278.22a42.05,42.05,0,0,1-7.2,19.65c-1.62,2.32-10.66,15.28-25.55,16.38a28.31,28.31,0,0,1-3.93,0c-15.62-1.07-25.22-14.16-26.85-16.38a43.31,43.31,0,0,1-7.86-19.65"/><path class="cls-3" d="M1279.91,363.82c2.39-6.3,1.51-15.9-3.59-21.43-10.78-11.66-37.38-2.25-42.86-12.6a30.07,30.07,0,0,1-2.52-8.83,32.54,32.54,0,0,1,0-8.82l-29.29.8a32.54,32.54,0,0,1,0,8.82,30.52,30.52,0,0,1-2.52,8.82c-5.43,10.24-31.52,1.06-42.86,12.61-5.68,5.78-7.28,16.46-4.33,23.51C1164.23,396.05,1268.48,394,1279.91,363.82Z"/><path class="cls-3" d="M1173.26,263.27c-1.25-.24-4-.76-5.94.71-4.1,3.17-2.89,14.7,3.23,17.4a8.28,8.28,0,0,0,8.2-1.11c3.4-2.69,3.65-7.74,2.09-11.22C1178.76,264.39,1173.78,263.37,1173.26,263.27Z"/><path class="cls-3" d="M1255.23,263.27c1.25-.24,4-.76,5.93.71,4.11,3.17,2.89,14.7-3.23,17.4a8.28,8.28,0,0,1-8.2-1.11c-3.39-2.69-3.65-7.74-2.09-11.22C1249.73,264.39,1254.71,263.37,1255.23,263.27Z"/><path class="cls-10" d="M1260.58,262.29a59.82,59.82,0,0,0,1.17-21.87c-.77-5.88-2.83-19.85-14.25-31a45.83,45.83,0,0,0-18.16-10.93,44.21,44.21,0,0,0-14.25-1.95h-1.3a44.25,44.25,0,0,0-14.25,1.95,46,46,0,0,0-18.16,10.93c-11.42,11.19-13.47,25.16-14.25,31a60.27,60.27,0,0,0,1.17,21.87c2,.83,4.44,1.61,5.36.61.59-.62.33-1.71.25-2.14-.37-1.9.55-5,2.39-11.28,2.62-8.89,7.65-19.44,8.86-19a.39.39,0,0,1,.2.25c1.05,2.77-1.54,16.82-1.75,18h60.55c-.22-1.77-.49-4-.76-6.64-.85-8.44-1.28-12.67-.7-12.8,1.71-.39,11.34,21.66,11.28,30.31,0,.64-.07,2.84,1.25,3.74S1259.14,263.11,1260.58,262.29Z"/><path class="cls-12" d="M1250.27,278.22a42.05,42.05,0,0,1-7.2,19.65c-1.62,2.32-10.66,15.28-25.55,16.38a28.31,28.31,0,0,1-3.93,0c-15.62-1.07-25.22-14.16-26.85-16.38a43.31,43.31,0,0,1-7.86-19.65"/><path class="cls-12" d="M1173.26,263.27c-1.26-.4-4.1-1.08-5.94.71-3.48,3.41-1.85,14.27,3.23,17.4,3.87,2.39,7.89-.85,8.2-1.11"/><circle class="cls-11" cx="1196.94" cy="263.8" r="2.52"/><circle class="cls-11" cx="1230.93" cy="263.8" r="2.52"/><path class="cls-12" d="M1199.22,256.3a13.42,13.42,0,0,0-3.59-.34,13.61,13.61,0,0,0-2.94.45"/><path class="cls-12" d="M1228.06,256.3a13.47,13.47,0,0,1,3.59-.34,13.61,13.61,0,0,1,2.94.45"/><path class="cls-12" d="M1206.69,291.51a10.82,10.82,0,0,0,13.92,0"/><path class="cls-12" d="M1185.39,229.4a81.19,81.19,0,0,0-11.47,29.34"/><path class="cls-12" d="M1243.14,229.4a81.47,81.47,0,0,1,11.48,29.34"/><path class="cls-12" d="M1201.65,312.94a32.54,32.54,0,0,1,0,8.82,30.52,30.52,0,0,1-2.52,8.82c-2.5,4.72-8.73,5.39-16.52,6.09"/><path class="cls-12" d="M1230.94,312.14a32.54,32.54,0,0,0,0,8.82,30.07,30.07,0,0,0,2.52,8.83c2.24,4.22,7.46,5.2,14.12,5.86"/><path class="cls-12" d="M1212.28,280.84a2,2,0,0,0,1.86.93,2,2,0,0,0,1.42-.93"/><path class="cls-12" d="M1256.11,263.27c1.27-.4,4.1-1.08,5.94.71,3.49,3.41,1.85,14.27-3.23,17.4-3.87,2.39-7.88-.85-8.2-1.11"/><path class="cls-12" d="M1197.22,208.42a75.58,75.58,0,0,0-12.45,29.43,73.36,73.36,0,0,0-1.16,10.81"/><path class="cls-12" d="M1231.2,208.42a79.76,79.76,0,0,1,12.46,29.43,78.49,78.49,0,0,1,1.32,10.4"/><path class="cls-12" d="M1260.58,262.29a59.82,59.82,0,0,0,1.17-21.87c-.57-4.35-2.71-18.78-14.25-31-2.09-2.23-8.92-9.34-17.81-11.83-5.56-1.55-12.49-1.45-13.82-1.07a5.37,5.37,0,0,1-1.39.2,5.45,5.45,0,0,1-2.12-.39c-1.4-.53-7.94-.42-13.44,1.26-8.92,2.74-15.64,9.8-17.54,11.83-11.54,12.36-13.69,26.84-14.25,31a59.69,59.69,0,0,0,1.17,21.87"/><path class="cls-12" d="M1247.26,292.44a12.68,12.68,0,0,1,6.41,2.24c9.92,7.2,1.81,27.2,10.72,33.14,5.41,3.6,13-.68,13.77,1.44.69,1.94-5.24,6.79-11.85,8.16a22.08,22.08,0,0,1-14.41-2.24"/><path class="cls-12" d="M1206.87,221.53a61.2,61.2,0,0,0-4.09,23c0,1.47.11,2.89.23,4.26"/><path class="cls-12" d="M1201,215.65a62.88,62.88,0,0,0-7.49,28.13c0,1.78,0,3.5.14,5.15"/><path class="cls-12" d="M1227.15,218.32a55.65,55.65,0,0,1,7.09,25.46,50.85,50.85,0,0,1-.14,5.15"/><path class="cls-12" d="M1219.6,222.06a66.2,66.2,0,0,1,4.18,22.42c0,1.47,0,2.89-.1,4.28"/><path class="cls-17" d="M1283.62,512.81c3.57-78.23,3.56-136.14.63-154.11-.81-5-2.49-14.5-9.71-19.14-2.61-1.68-7.66-2.63-17.76-4.52-8.38-1.57-13.31-2-16.4-6.09a12,12,0,0,1-2.2-5.22H1195a12,12,0,0,1-2.2,5.22c-3.09,4.07-8,4.52-16.4,6.09-10.1,1.89-15.15,2.84-17.76,4.52-7.22,4.64-8.9,14.12-9.71,19.14-2.93,18-2.94,75.88.63,154.11"/><path class="cls-12" d="M1164.15,364.44a708.69,708.69,0,0,0,1.68,75.86c1.33,17,3.11,31,.49,51-1.27,9.67-5,31.18-5,31.18h0"/><path class="cls-12" d="M1269,364.44a708.69,708.69,0,0,1-1.68,75.86c-1.33,17-3.11,31-.49,51,1.27,9.67,4.94,31.18,4.94,31.18h0"/><path class="cls-12" d="M1211.79,230.91a56.37,56.37,0,0,0,1.08,14.23c.24,1.17.52,2.3.81,3.38"/><path class="cls-3" d="M156.26,171.14c6.63,19.43.44,36.73-1.24,41.26-.46,1.24-6.31,16.47-19.84,27.09-8.09,6.34-14.37,7.47-16.11,7.73a28.6,28.6,0,0,1-8.68,0c-1.81-.28-8.59-1.51-17.36-9a67.06,67.06,0,0,1-18.6-27.09c-2-5.5-7.15-20.37-2.47-37.39,4.55-16.59,19.38-39.86,42.15-40S151.29,156.56,156.26,171.14Z"/><path class="cls-12" d="M142.6,230.55C141,232.9,131.78,246,116.68,247.16a29.06,29.06,0,0,1-4,0c-15.86-1.08-25.6-14.36-27.25-16.61a44,44,0,0,1-8-19.94"/><path class="cls-3" d="M189.12,287.23c-3.89-6.38-9.38-9.58-12.79-11.51-19.28-11-38.47-3.34-43.48-12.79a30.59,30.59,0,0,1-2.56-9,33.57,33.57,0,0,1,0-9l-29.72.81a32.69,32.69,0,0,1,0,8.95,30.27,30.27,0,0,1-2.56,9c-5,9.46-24.18,1.72-43.48,12.79-8.22,4.71-12,10.25-12.79,11.51-5.29,8.09-5.46,16.5-5.59,20.52-.5,15.71-4.09,31.21-4.69,46.92-1.39,36.36-9.2,79.77-8.62,108.27A33.23,33.23,0,0,0,25.2,475.9s4.46,10.94,18,18.77c24.14,14,145.43,26,163.42-22.68,1.9-5.14.16-4.21-3.83-45-2.59-26.54-5-51.58-6.33-80.1-.54-12-3.1-23.94-3.13-36C193.3,302.45,193.81,294.89,189.12,287.23Z"/><path class="cls-18" d="M123.2,127.53a39.43,39.43,0,0,1,12.15,1.92c13.81,4.51,21.24,15.7,24.3,20.46a46.53,46.53,0,0,1,6.06,13.23c4.57,17,11.74,32.87,8,52-1.68,8.59-3.89,19.93-13.6,26.81-12.57,8.91-31.23,5.8-32.14,1.89-.56-2.42,8.61-3.28,14-12,1.18-1.92,3.33-6.1,3.26-18.63-.1-15.69-2-23.45-4.34-30-1.59-4.5-13.11-35.76-31.32-36a19.74,19.74,0,0,0-6.91,1.34C91,152.48,85.32,163.1,81.8,170c-2.63,5.17-7,13.71-6.74,25,.12,5.82,1.55,11.29,4.41,22.25,1.24,4.76,1.88,7.13,2.65,8.64,1.91,3.73,6.44,7.84,15.29,16,3.74,3.43,4.3,3.94,4.11,4.44-1,2.59-21.2,2.35-33.52-8.87C52.43,223.23,56.31,197.68,57.62,189c1.65-10.88,6.21-22.6,7.47-25.84,2.43-6.24,3.6-9.4,6.07-13.23,3.06-4.76,10.49-15.95,24.3-20.46a39.39,39.39,0,0,1,12.15-1.92Z"/><path class="cls-3" d="M75.4,193.73c-1.18-.55-3.78-1.76-6-.79-4.83,2.08-6.54,13.72-1.2,17.92a8.41,8.41,0,0,0,8.34,1c4-1.78,5.53-6.69,4.88-10.5C80.51,196.22,75.88,194,75.4,193.73Z"/><path class="cls-12" d="M142.6,230.55C141,232.9,131.78,246,116.68,247.16a29.06,29.06,0,0,1-4,0c-15.86-1.08-25.6-14.36-27.25-16.61a44,44,0,0,1-8-19.94"/><path class="cls-12" d="M74.52,193.69c-1.22-.57-4-1.61-6.07,0-3.94,3-3.66,14.14,1.06,17.93,3.59,2.89,8,.14,8.39-.09"/><circle class="cls-11" cx="95.8" cy="192.43" r="2.56"/><circle class="cls-11" cx="130.29" cy="192.43" r="2.56"/><path class="cls-12" d="M126,185.41a24.61,24.61,0,0,1,4.89-.57,23.43,23.43,0,0,1,4,.28"/><path class="cls-12" d="M99.64,185.41a24.7,24.7,0,0,0-4.89-.57,23.48,23.48,0,0,0-4,.28"/><path class="cls-12" d="M105.69,224.09a11.29,11.29,0,0,0,7.67,2.56,11.12,11.12,0,0,0,6.45-2.56"/><path class="cls-12" d="M95.85,151.79a68.43,68.43,0,0,0-17,26.16,66.66,66.66,0,0,0-3.37,14.19"/><path class="cls-12" d="M101.48,149.07a11.63,11.63,0,0,1,4.76-2c14.57-2.4,35.86,26.08,39.1,53.55,2.12,18-3.81,33.12-8.63,42.25"/><path class="cls-12" d="M100.57,245.83a32.69,32.69,0,0,1,0,8.95c-.22,1.64-.83,6.1-2.56,9-3.15,5.2-9.94,4.91-22.8,7.25S55.9,274.5,50.7,278.23c-8.41,6-10.86,16.2-12.26,22.84C30.07,340.75,30.28,390.49,27.3,427c-.67,8.25-1.93,21-4.46,36.77"/><path class="cls-12" d="M129.51,245.83a32.69,32.69,0,0,0,0,8.95c.22,1.64.83,6.1,2.56,9,3.15,5.2,9.94,4.91,22.8,7.25s19.31,3.51,24.51,7.24c8.41,6,10.86,16.2,12.26,22.84C200,340.75,199.8,390.49,202.78,427c.67,8.25,1.93,21,4.46,36.77"/><path class="cls-12" d="M102.21,128.39a32.15,32.15,0,0,0-6.75,1.06c-13.33,3.6-20.79,15.14-24.3,20.46a61.33,61.33,0,0,0-6.62,13.34c-.12.35-.31.87-.53,1.53-18.5,53.51,5.07,74.15,5.07,74.15,3.06,2.69,12.28,9.69,31.57,8.21"/><path class="cls-12" d="M101.66,129.12c4.21-1.46,18.32-5.76,34,.33A57.59,57.59,0,0,1,160,149.91a61.19,61.19,0,0,1,6.61,13.34q.19.52.54,1.53c18.46,53.53-5.08,74.15-5.08,74.15-3,2.69-12.27,9.69-31.57,8.21"/><path class="cls-12" d="M111.37,213.27a2,2,0,0,0,1.88.94,2.08,2.08,0,0,0,1.44-.94"/><circle class="cls-17" cx="72.52" cy="212.74" r="3.32"/><path class="cls-12" d="M53.49,309.6a387.59,387.59,0,0,0,2.09,57.81c1.29,11.42,2.89,20.76,5.2,41.66,1.51,13.61,2.51,24.82,3.13,32.28L49.33,491.87"/><path class="cls-12" d="M164,309.6a387.59,387.59,0,0,1-2.09,57.81c-1.29,11.42-2.89,20.76-5.2,41.66-1.51,13.61-2.51,24.82-3.13,32.28l14.58,50.52"/><polyline class="cls-12" points="133.05 267.44 114.44 300.72 114.58 300.72 95.97 267.44"/><path class="cls-3" d="M351.68,357.38c-2.13-2.93-6.26-8.35-6.26-8.35h0a57.09,57.09,0,0,0-18.08-12.51l-4.54-1.33a6.45,6.45,0,0,0,2.09-2.78c1-2.69-.3-6-2.32-8a10.81,10.81,0,0,0-4.82-2.4,17.19,17.19,0,0,0-6.07-.75,28.46,28.46,0,0,0-18.08-13.91H249.43a28.46,28.46,0,0,0-18.08,13.91,17.16,17.16,0,0,0-6.07.75,10.81,10.81,0,0,0-4.82,2.4c-2,2-3.28,5.28-2.32,8a6.45,6.45,0,0,0,2.09,2.78l-5.52.63a57.14,57.14,0,0,0-18.08,12.52,34.56,34.56,0,0,0-5.87,3.8c-12.18,9.77-14.58,25.58-15.55,32.78-6.65,49.12-6.16,135.94-6.12,145,0,0,.08,15.32,1.67,40.56,1.26,20,1.93,30.06,3.89,33.33,11.56,19.37,49.16,17.35,92.79,15,40.42-2.18,48.37-9.39,65-6.67,2.91.47,14.45,2.62,24.45-3.34a24.19,24.19,0,0,0,6.11-5c5.53-6.33,6-13.9,6.67-26.66.76-15,1.14-22.56,1.11-23.34-.66-17.86,1.65,6.25,1.11-102.23,0,0-.3-60.94-12.22-81.67C355.43,362.55,351.68,357.38,351.68,357.38Z"/><path class="cls-3" d="M317.92,252.46c1.43-.46,4.66-1.23,6.75.81,4,3.87,2.11,16.23-3.67,19.8-4.4,2.71-9-1-9.33-1.27l-.39,1.39c-.33,1.5-.82,3.67-1.49,6.26-1.64,6.28-2.62,10.64-4.47,14.19-4.58,8.79-11.38,13.13-15.65,15.86-3.32,2.12-7.76,4.9-14.16,5.84a29.65,29.65,0,0,1-10.43-.3c-5.19-1.13-8.71-3.41-11.92-5.54-4.89-3.24-11.27-7.46-15.65-15.86-2.2-4.23-3.17-8.63-4.47-14.19-.73-3.16-1.2-5.83-1.49-7.75l-1.63.1c-.36.3-4.92,4-9.33,1.27-5.77-3.57-7.64-15.93-3.67-19.8,2.09-2,5.32-1.27,6.75-.81-.61-2.5-5.57-24.26,8.38-39.63,8.42-9.28,19.25-11.31,25.72-12.52,5.85-1.09,29.44-5.5,46.59,11.12C320.68,227.26,318.27,249.66,317.92,252.46Z"/><path class="cls-18" d="M244.56,212.83A41.5,41.5,0,0,1,239,223.25c-2.85,3.86-4.51,4.6-5.56,4.87-.82.21-3.46.69-3.48.7h0a96.52,96.52,0,0,0-1.28,14.57c-.12,10.66,1.59,17.37,0,17.88-1.29.41-3.9-3.5-5.21-6.7a20.06,20.06,0,0,1-1.49-7.45c-.25-20.71-.62-28.28,2.23-35,1.51-3.56,5.56-10.72,17.88-16.39l3.73-2.24a17.94,17.94,0,0,1,3-5.22c6.38-7.72,17.76-7.52,22.35-7.45,17.79.3,37.82,12.46,42.94,27.85,2.46,7.39,3.26,20.85,3.26,27.29h0c-.11,9.81.38,12.17-1.49,16.39-2.12,4.77-5.8,8.67-6.71,8.2-.67-.35.58-2.88.74-7.45.07-2-.06-3-.74-8.2-.89-6.69-4.1-16.06-4.1-16.06s-1.11-.4-2.12-.81h0a7.74,7.74,0,0,1-1.35-.58c-.68-.38-8.93-7.65-7-15.3.12-.44.24-.78.28-.89-.21,0-.55.12-1,.19a88.13,88.13,0,0,1-34.07,0,77.27,77.27,0,0,1-10.32-3Z"/><path class="cls-3" d="M253,310.1a128.85,128.85,0,0,0-.8,14.08,37.48,37.48,0,0,0,.1,5.45,26.41,26.41,0,0,0,3.44,9.73c3.43,6.22,8,10.11,12.51,13.91,1.42,1.2,2.64,2.15,3.48,2.78,16.53-12.53,17.93-21.35,18.08-24.33.05-1.21.08-5.05,0-9-.12-5.26-.41-9.6-.66-12.58"/><path class="cls-12" d="M308.2,327.54c-2.9,6.23-9.8,18.48-23.64,25a43.84,43.84,0,0,1-7.65,2.79"/><path class="cls-12" d="M223.67,252.46c-1.43-.46-4.66-1.23-6.75.81-4,3.87-2.1,16.23,3.67,19.8,4.41,2.71,9-1,9.33-1.27"/><path class="cls-12" d="M317.92,252.46c1.43-.46,4.66-1.23,6.75.81,4,3.87,2.11,16.23-3.67,19.8-4.4,2.71-9-1-9.33-1.27"/><path class="cls-12" d="M260.6,249.37a34.28,34.28,0,0,0-7.9-.65,32.71,32.71,0,0,0-6.44.84"/><path class="cls-12" d="M295.37,249.37a34.37,34.37,0,0,0-7.91-.65,32.81,32.81,0,0,0-6.44.84"/><path class="cls-12" d="M263.7,292.92a15,15,0,0,0,8,1.87,14.59,14.59,0,0,0,6.75-1.87"/><path class="cls-12" d="M271.11,269.08a10.8,10.8,0,0,1,0,4.68,12.25,12.25,0,0,1-.78,2.33"/><path class="cls-12" d="M311.28,273.19c-.33,1.5-.82,3.67-1.49,6.26-1.64,6.28-2.62,10.64-4.47,14.19-4.58,8.79-11.38,13.13-15.65,15.86-3.32,2.12-7.76,4.9-14.16,5.84a29.65,29.65,0,0,1-10.43-.3c-5.19-1.13-8.71-3.41-11.92-5.54-4.89-3.24-11.27-7.46-15.65-15.86-2.2-4.23-3.17-8.63-4.47-14.19-.73-3.16-1.2-5.83-1.49-7.75"/><path class="cls-12" d="M245.82,193.47a17.94,17.94,0,0,1,3-5.22c6.38-7.72,17.76-7.52,22.35-7.45,17.79.3,37.82,12.46,42.94,27.85,2.46,7.39,3.26,20.85,3.26,27.29h0c-.11,9.81.38,12.17-1.49,16.39-2.12,4.77-5.8,8.67-6.71,8.2-.67-.35.58-2.88.74-7.45.07-2-.06-3-.74-8.2-.89-6.69-4.1-16.06-4.1-16.06s-1.11-.4-2.12-.81h0a7.74,7.74,0,0,1-1.35-.58c-.68-.38-8.93-7.65-7-15.3.12-.44.24-.78.28-.89-.21,0-.55.12-1,.19a88.13,88.13,0,0,1-34.07,0,77.27,77.27,0,0,1-10.32-3"/><path class="cls-12" d="M244.56,212.83A41.5,41.5,0,0,1,239,223.25c-2.85,3.86-4.51,4.6-5.56,4.87-.82.21-3.46.69-3.48.7h0a96.52,96.52,0,0,0-1.28,14.57c-.12,10.66,1.59,17.37,0,17.88-1.29.41-3.9-3.5-5.21-6.7a20.06,20.06,0,0,1-1.49-7.45c-.25-20.71-.62-28.28,2.23-35,1.51-3.56,5.56-10.72,17.88-16.39"/><path class="cls-12" d="M253,310.1a128.85,128.85,0,0,0-.8,14.08,37.48,37.48,0,0,0,.1,5.45,26.41,26.41,0,0,0,3.44,9.73c3.43,6.22,8,10.11,12.51,13.91,1.42,1.2,2.64,2.15,3.48,2.78,16.53-12.53,17.93-21.35,18.08-24.33.05-1.21.08-5.05,0-9-.12-5.26-.41-9.6-.66-12.58"/><path class="cls-12" d="M215.43,335.51a107.82,107.82,0,0,0-10,5.28,74.6,74.6,0,0,0-13.57,9.74,56.8,56.8,0,0,0-10.53,15c-22.68,46.74-12,199.44-12,199.44.59,8.43,1.64,23.4,2.26,32.19"/><path class="cls-12" d="M265.09,263.38c-1.22,4.8-6.38,8.14-11.3,8.51-5.38.4-11.39-2.67-13-7.67-.21-.62-1.25-3.79.35-6.39,2-3.29,6.83-3.31,12.64-3.34,5.06,0,8.64,0,10.53,2.53S265.26,262.72,265.09,263.38Z"/><path class="cls-11" d="M279.25,285.16c-.37-1.78-1.62-2.91-2.72-2.8a2.39,2.39,0,0,0-1.71,1.28,2.05,2.05,0,0,0-3.81,0,2.42,2.42,0,0,0-2.1-1.28,2.38,2.38,0,0,0-1.7,1.28,2.44,2.44,0,0,0-2.11-1.28c-1,.1-2,1.25-2.25,2.95a4.71,4.71,0,0,0,.2,2.26c.41.92,1.14.94,2.18,1a3.18,3.18,0,0,0,2.07-.37,2.89,2.89,0,0,0,1.74.37,3.18,3.18,0,0,0,2.07-.37,2.89,2.89,0,0,0,1.74.37,3.18,3.18,0,0,0,2.07-.37,2.88,2.88,0,0,0,1.73.37c1.2,0,2.18.05,2.57-1.11A4.67,4.67,0,0,0,279.25,285.16Z"/><path class="cls-11" d="M279.25,311.77c-.37-2-1.62-3.34-2.72-3.21a2.45,2.45,0,0,0-1.71,1.47,2.37,2.37,0,0,0-2.1-1.47A2.47,2.47,0,0,0,271,310a2.37,2.37,0,0,0-2.1-1.47,2.44,2.44,0,0,0-1.7,1.47,2.39,2.39,0,0,0-2.11-1.47c-1,.11-2,1.43-2.25,3.38a6.2,6.2,0,0,0,.2,2.6c.41,1.06,1.14,1.08,2.18,1.1a2.9,2.9,0,0,0,2.07-.42,2.57,2.57,0,0,0,1.74.42,2.9,2.9,0,0,0,2.07-.42,2.57,2.57,0,0,0,1.74.42,2.9,2.9,0,0,0,2.07-.42,2.56,2.56,0,0,0,1.73.42c1.2,0,2.18.06,2.57-1.27A6.15,6.15,0,0,0,279.25,311.77Z"/><path class="cls-12" d="M301.25,263.32c-1.21,4.82-6.35,8.17-11.27,8.56-5.38.43-11.4-2.62-13.06-7.61-.2-.61-1.25-3.78.33-6.39,2-3.3,6.82-3.34,12.63-3.39,5.05-.05,8.63-.08,10.54,2.49S301.41,262.67,301.25,263.32Z"/><line class="cls-12" x1="266.81" y1="260.8" x2="275.16" y2="260.8"/><path class="cls-12" d="M249.43,307.38a28.46,28.46,0,0,0-18.08,13.91,17.14,17.14,0,0,0-6.07.75,10.81,10.81,0,0,0-4.82,2.4c-2,2-3.28,5.28-2.32,8a6.45,6.45,0,0,0,2.09,2.78c5.8,4.9,8.7,7.35,13.21,9.74a82.31,82.31,0,0,0,11.12,4.86"/><path class="cls-12" d="M234.83,327.54c2.9,6.23,9.8,18.48,23.64,25a43.55,43.55,0,0,0,7.65,2.79"/><line class="cls-12" x1="248.04" y1="352.57" x2="249.43" y2="452.5"/><path class="cls-12" d="M255.16,356.46c.08,35,.16,62.19.24,97.14"/><line class="cls-12" x1="294.99" y1="352.57" x2="293.6" y2="452.5"/><path class="cls-12" d="M287.87,356.46c-.08,35-.15,62.19-.23,97.14"/><path class="cls-12" d="M293.6,307.38a28.46,28.46,0,0,1,18.08,13.91,17.19,17.19,0,0,1,6.07.75,10.73,10.73,0,0,1,4.81,2.4c2,2,3.29,5.28,2.33,8a6.45,6.45,0,0,1-2.09,2.78c-5.8,4.9-8.71,7.35-13.21,9.74a82.31,82.31,0,0,1-11.12,4.86"/><path class="cls-12" d="M308.2,327.54c-2.9,6.23-9.8,18.48-23.64,25a43.84,43.84,0,0,1-7.65,2.79"/><path class="cls-12" d="M197.56,389.29c-2.27,12.55-3.68,22.77-4.51,29.37-6.58,52.18-2.51,80.46-5.09,152.49-.43,12.08-.92,21.78-1.21,27.28a353.85,353.85,0,0,0,165.75,0c-.3-5.5-.79-15.2-1.22-27.28-2.58-72,1.49-100.31-5.08-152.49-.83-6.6-2.24-16.82-4.52-29.37"/><path class="cls-12" d="M177.27,379.79l13,15.94"/><path class="cls-12" d="M323.81,335.51a106.53,106.53,0,0,1,10,5.28,75.3,75.3,0,0,1,13.57,9.74,56.65,56.65,0,0,1,10.52,15c22.68,46.74,12,199.44,12,199.44-.59,8.43-1.64,23.4-2.26,32.19"/><path class="cls-12" d="M362,379.79l-13,15.94"/><line class="cls-19" x1="163.84" y1="43.51" x2="156.23" y2="51.13"/><line class="cls-19" x1="153.82" y1="35.85" x2="149.03" y2="45.49"/><line class="cls-19" x1="171.45" y1="51.88" x2="162.13" y2="57.27"/><path class="cls-3" d="M271.57,139a16.94,16.94,0,0,0,9.83,2.89c7.62-.38,10.86-6.84,18-6.67,2.26.05,5.39.78,9.1,3.85l0-26.35c-3.72-3.07-6.85-3.8-9.1-3.85-7.12-.18-10.36,6.29-18,6.67a17,17,0,0,1-9.83-2.89Z"/><path class="cls-20" d="M271.57,139c16.67,10.82,21.41-12.47,36.86,0,.14-.12,0-.52.05-.74q0-9.66,0-19.33c0-2.07.1-4.17,0-6.23a9.34,9.34,0,0,0-6.05-3.63c-12.42-2.22-16.17,12.7-30.81,3.56Z"/><path class="cls-3" d="M270.1,165.81a4.29,4.29,0,0,1-2.18-.61.79.79,0,0,1-.41-.7l.09-52.15a.81.81,0,0,1,.29-.62,3.55,3.55,0,0,1,2.28-.91,3.74,3.74,0,0,1,2.32.9.8.8,0,0,1,.31.64l-.09,52.16a.82.82,0,0,1-.43.71A4.68,4.68,0,0,1,270.1,165.81Z"/><path class="cls-2" d="M270.17,111.63a3,3,0,0,1,1.82.73l-.09,52.15a3.81,3.81,0,0,1-1.8.49,3.54,3.54,0,0,1-1.78-.5l.09-52.15a2.75,2.75,0,0,1,1.76-.72m0-1.62h0a4.34,4.34,0,0,0-2.8,1.1,1.64,1.64,0,0,0-.58,1.24l-.09,52.15a1.62,1.62,0,0,0,.82,1.41,5.2,5.2,0,0,0,2.58.71,5.39,5.39,0,0,0,2.56-.68,1.63,1.63,0,0,0,.86-1.42l.09-52.16a1.64,1.64,0,0,0-.62-1.28,4.57,4.57,0,0,0-2.82-1.07Z"/><path class="cls-3" d="M271.57,139a16.94,16.94,0,0,0,9.83,2.89c7.62-.38,10.86-6.84,18-6.67,2.26.05,5.39.78,9.1,3.85l0-26.35c-3.72-3.07-6.85-3.8-9.1-3.85-7.12-.18-10.36,6.29-18,6.67a17,17,0,0,1-9.83-2.89Z"/><path class="cls-21" d="M271.57,139c16.67,10.82,21.41-12.47,36.86,0,.14-.12,0-.52.05-.74q0-9.66,0-19.33c0-2.07.1-4.17,0-6.23a9.34,9.34,0,0,0-6.05-3.63c-12.42-2.22-16.17,12.7-30.81,3.56Z"/><path class="cls-3" d="M270.1,165.81a4.29,4.29,0,0,1-2.18-.61.79.79,0,0,1-.41-.7l.09-52.15a.81.81,0,0,1,.29-.62,3.55,3.55,0,0,1,2.28-.91,3.74,3.74,0,0,1,2.32.9.8.8,0,0,1,.31.64l-.09,52.16a.82.82,0,0,1-.43.71A4.68,4.68,0,0,1,270.1,165.81Z"/><path class="cls-2" d="M270.17,111.63a3,3,0,0,1,1.82.73l-.09,52.15a3.81,3.81,0,0,1-1.8.49,3.54,3.54,0,0,1-1.78-.5l.09-52.15a2.75,2.75,0,0,1,1.76-.72m0-1.62h0a4.34,4.34,0,0,0-2.8,1.1,1.64,1.64,0,0,0-.58,1.24l-.09,52.15a1.62,1.62,0,0,0,.82,1.41,5.2,5.2,0,0,0,2.58.71,5.39,5.39,0,0,0,2.56-.68,1.63,1.63,0,0,0,.86-1.42l.09-52.16a1.64,1.64,0,0,0-.62-1.28,4.57,4.57,0,0,0-2.82-1.07Z"/><line class="cls-19" x1="323.84" y1="97.21" x2="316.23" y2="104.82"/><line class="cls-19" x1="313.82" y1="89.54" x2="309.04" y2="99.18"/><line class="cls-19" x1="331.45" y1="105.57" x2="322.13" y2="110.96"/><path class="cls-3" d="M432.65,79.94a16.94,16.94,0,0,0,9.83,2.89c7.61-.38,10.86-6.84,18-6.67,2.25,0,5.38.78,9.09,3.85l.05-26.35c-3.71-3.07-6.84-3.8-9.1-3.85-7.12-.18-10.36,6.29-18,6.67a17,17,0,0,1-9.82-2.89Z"/><path class="cls-22" d="M432.65,79.94c16.66,10.82,21.41-12.47,36.85,0,.14-.12,0-.52.06-.74l0-19.33c0-2.07.11-4.17,0-6.23a9.32,9.32,0,0,0-6-3.63c-12.42-2.22-16.17,12.7-30.81,3.56Z"/><path class="cls-3" d="M431.17,106.75a4.31,4.31,0,0,1-2.18-.61.81.81,0,0,1-.41-.7l.1-52.15a.78.78,0,0,1,.29-.62,3.52,3.52,0,0,1,2.27-.91,3.74,3.74,0,0,1,2.32.9.77.77,0,0,1,.31.64l-.09,52.15a.82.82,0,0,1-.42.72A4.72,4.72,0,0,1,431.17,106.75Z"/><path class="cls-2" d="M431.24,52.57a3,3,0,0,1,1.83.73l-.1,52.15a3.78,3.78,0,0,1-1.8.49,3.57,3.57,0,0,1-1.78-.5l.09-52.15a2.72,2.72,0,0,1,1.76-.72m0-1.62h0a4.3,4.3,0,0,0-2.79,1.1,1.61,1.61,0,0,0-.58,1.24l-.1,52.15a1.64,1.64,0,0,0,.82,1.41,5.2,5.2,0,0,0,2.58.71,5.46,5.46,0,0,0,2.57-.68,1.62,1.62,0,0,0,.85-1.42l.09-52.16a1.61,1.61,0,0,0-.62-1.28A4.52,4.52,0,0,0,431.24,51Z"/><path class="cls-3" d="M432.65,79.94a16.94,16.94,0,0,0,9.83,2.89c7.61-.38,10.86-6.84,18-6.67,2.25,0,5.38.78,9.09,3.85l.05-26.35c-3.71-3.07-6.84-3.8-9.1-3.85-7.12-.18-10.36,6.29-18,6.67a17,17,0,0,1-9.82-2.89Z"/><path class="cls-23" d="M432.65,79.94c16.66,10.82,21.41-12.47,36.85,0,.14-.12,0-.52.06-.74l0-19.33c0-2.07.11-4.17,0-6.23a9.32,9.32,0,0,0-6-3.63c-12.42-2.22-16.17,12.7-30.81,3.56Z"/><path class="cls-3" d="M431.17,106.75a4.31,4.31,0,0,1-2.18-.61.81.81,0,0,1-.41-.7l.1-52.15a.78.78,0,0,1,.29-.62,3.52,3.52,0,0,1,2.27-.91,3.74,3.74,0,0,1,2.32.9.77.77,0,0,1,.31.64l-.09,52.15a.82.82,0,0,1-.42.72A4.72,4.72,0,0,1,431.17,106.75Z"/><path class="cls-2" d="M431.24,52.57a3,3,0,0,1,1.83.73l-.1,52.15a3.78,3.78,0,0,1-1.8.49,3.57,3.57,0,0,1-1.78-.5l.09-52.15a2.72,2.72,0,0,1,1.76-.72m0-1.62h0a4.3,4.3,0,0,0-2.79,1.1,1.61,1.61,0,0,0-.58,1.24l-.1,52.15a1.64,1.64,0,0,0,.82,1.41,5.2,5.2,0,0,0,2.58.71,5.46,5.46,0,0,0,2.57-.68,1.62,1.62,0,0,0,.85-1.42l.09-52.16a1.61,1.61,0,0,0-.62-1.28A4.52,4.52,0,0,0,431.24,51Z"/><line class="cls-19" x1="484.91" y1="38.15" x2="477.3" y2="45.76"/><line class="cls-19" x1="474.9" y1="30.48" x2="470.11" y2="40.12"/><line class="cls-19" x1="492.52" y1="46.51" x2="483.2" y2="51.9"/><path class="cls-3" d="M741.91,64.91a17,17,0,0,0,9.83,2.89c7.62-.38,10.86-6.85,18-6.68,2.25.06,5.38.79,9.1,3.85l0-26.35c-3.71-3.06-6.84-3.79-9.09-3.85-7.12-.17-10.37,6.3-18,6.68A17,17,0,0,1,742,38.56Z"/><path class="cls-24" d="M741.91,64.91c16.67,10.82,21.41-12.47,36.85,0,.14-.12,0-.53.06-.75l0-19.32c0-2.07.11-4.17,0-6.23A9.36,9.36,0,0,0,772.77,35C760.35,32.78,756.6,47.7,742,38.56Z"/><path class="cls-3" d="M740.43,91.72a4.41,4.41,0,0,1-2.18-.61.78.78,0,0,1-.4-.7l.09-52.16a.78.78,0,0,1,.29-.61,3.49,3.49,0,0,1,2.27-.91,3.76,3.76,0,0,1,2.33.9.82.82,0,0,1,.31.63L743,90.42a.8.8,0,0,1-.42.71A4.62,4.62,0,0,1,740.43,91.72Z"/><path class="cls-2" d="M740.5,37.53a3,3,0,0,1,1.83.73l-.09,52.16a3.82,3.82,0,0,1-1.81.49,3.57,3.57,0,0,1-1.78-.5l.1-52.15a2.69,2.69,0,0,1,1.75-.73m0-1.61h0a4.3,4.3,0,0,0-2.79,1.1,1.58,1.58,0,0,0-.58,1.23L737,90.4a1.61,1.61,0,0,0,.81,1.41,5.23,5.23,0,0,0,2.58.71,5.42,5.42,0,0,0,2.57-.67,1.64,1.64,0,0,0,.85-1.43l.1-52.15a1.64,1.64,0,0,0-.62-1.28,4.57,4.57,0,0,0-2.83-1.07Z"/><path class="cls-3" d="M741.91,64.91a17,17,0,0,0,9.83,2.89c7.62-.38,10.86-6.85,18-6.68,2.25.06,5.38.79,9.1,3.85l0-26.35c-3.71-3.06-6.84-3.79-9.09-3.85-7.12-.17-10.37,6.3-18,6.68A17,17,0,0,1,742,38.56Z"/><path class="cls-25" d="M741.91,64.91c16.67,10.82,21.41-12.47,36.85,0,.14-.12,0-.53.06-.75l0-19.32c0-2.07.11-4.17,0-6.23A9.36,9.36,0,0,0,772.77,35C760.35,32.78,756.6,47.7,742,38.56Z"/><path class="cls-3" d="M740.43,91.72a4.41,4.41,0,0,1-2.18-.61.78.78,0,0,1-.4-.7l.09-52.16a.78.78,0,0,1,.29-.61,3.49,3.49,0,0,1,2.27-.91,3.76,3.76,0,0,1,2.33.9.82.82,0,0,1,.31.63L743,90.42a.8.8,0,0,1-.42.71A4.62,4.62,0,0,1,740.43,91.72Z"/><path class="cls-2" d="M740.5,37.53a3,3,0,0,1,1.83.73l-.09,52.16a3.82,3.82,0,0,1-1.81.49,3.57,3.57,0,0,1-1.78-.5l.1-52.15a2.69,2.69,0,0,1,1.75-.73m0-1.61h0a4.3,4.3,0,0,0-2.79,1.1,1.58,1.58,0,0,0-.58,1.23L737,90.4a1.61,1.61,0,0,0,.81,1.41,5.23,5.23,0,0,0,2.58.71,5.42,5.42,0,0,0,2.57-.67,1.64,1.64,0,0,0,.85-1.43l.1-52.15a1.64,1.64,0,0,0-.62-1.28,4.57,4.57,0,0,0-2.83-1.07Z"/><line class="cls-19" x1="794.18" y1="23.11" x2="786.57" y2="30.72"/><line class="cls-19" x1="784.16" y1="15.45" x2="779.37" y2="25.09"/><line class="cls-19" x1="801.78" y1="31.48" x2="792.47" y2="36.87"/><path class="cls-3" d="M578.69,121.82a16.94,16.94,0,0,0,9.83,2.89c7.61-.38,10.86-6.84,18-6.67,2.25,0,5.38.78,9.09,3.85l0-26.36c-3.71-3.06-6.84-3.79-9.1-3.84-7.11-.18-10.36,6.29-18,6.67a17,17,0,0,1-9.83-2.89Z"/><path class="cls-26" d="M578.69,121.82c16.66,10.82,21.41-12.47,36.85,0,.14-.12,0-.52.06-.74l0-19.33c0-2.07.11-4.17,0-6.23a9.32,9.32,0,0,0-6-3.63c-12.42-2.22-16.17,12.7-30.81,3.56Z"/><path class="cls-3" d="M577.21,148.63A4.31,4.31,0,0,1,575,148a.81.81,0,0,1-.41-.7l.1-52.15a.78.78,0,0,1,.29-.62,3.52,3.52,0,0,1,2.27-.91,3.78,3.78,0,0,1,2.33.9.83.83,0,0,1,.31.64l-.1,52.15a.83.83,0,0,1-.42.72A4.72,4.72,0,0,1,577.21,148.63Z"/><path class="cls-2" d="M577.28,94.45a3,3,0,0,1,1.83.73l-.1,52.15a3.78,3.78,0,0,1-1.8.49,3.57,3.57,0,0,1-1.78-.5l.09-52.15a2.72,2.72,0,0,1,1.76-.72m0-1.62h0a4.3,4.3,0,0,0-2.79,1.1,1.6,1.6,0,0,0-.58,1.24l-.1,52.15a1.64,1.64,0,0,0,.82,1.41,5.2,5.2,0,0,0,2.58.71,5.46,5.46,0,0,0,2.57-.68,1.62,1.62,0,0,0,.85-1.42l.09-52.16a1.61,1.61,0,0,0-.62-1.28,4.52,4.52,0,0,0-2.82-1.07Z"/><path class="cls-3" d="M578.69,121.82a16.94,16.94,0,0,0,9.83,2.89c7.61-.38,10.86-6.84,18-6.67,2.25,0,5.38.78,9.09,3.85l0-26.36c-3.71-3.06-6.84-3.79-9.1-3.84-7.11-.18-10.36,6.29-18,6.67a17,17,0,0,1-9.83-2.89Z"/><path class="cls-27" d="M578.69,121.82c16.66,10.82,21.41-12.47,36.85,0,.14-.12,0-.52.06-.74l0-19.33c0-2.07.11-4.17,0-6.23a9.32,9.32,0,0,0-6-3.63c-12.42-2.22-16.17,12.7-30.81,3.56Z"/><path class="cls-3" d="M577.21,148.63A4.31,4.31,0,0,1,575,148a.81.81,0,0,1-.41-.7l.1-52.15a.78.78,0,0,1,.29-.62,3.52,3.52,0,0,1,2.27-.91,3.78,3.78,0,0,1,2.33.9.83.83,0,0,1,.31.64l-.1,52.15a.83.83,0,0,1-.42.72A4.72,4.72,0,0,1,577.21,148.63Z"/><path class="cls-2" d="M577.28,94.45a3,3,0,0,1,1.83.73l-.1,52.15a3.78,3.78,0,0,1-1.8.49,3.57,3.57,0,0,1-1.78-.5l.09-52.15a2.72,2.72,0,0,1,1.76-.72m0-1.62h0a4.3,4.3,0,0,0-2.79,1.1,1.6,1.6,0,0,0-.58,1.24l-.1,52.15a1.64,1.64,0,0,0,.82,1.41,5.2,5.2,0,0,0,2.58.71,5.46,5.46,0,0,0,2.57-.68,1.62,1.62,0,0,0,.85-1.42l.09-52.16a1.61,1.61,0,0,0-.62-1.28,4.52,4.52,0,0,0-2.82-1.07Z"/><line class="cls-19" x1="630.95" y1="80.02" x2="623.35" y2="87.64"/><line class="cls-19" x1="620.94" y1="72.36" x2="616.15" y2="82"/><line class="cls-19" x1="638.56" y1="88.39" x2="629.25" y2="93.78"/><path class="cls-3" d="M895.47,162.63a17,17,0,0,0,9.83,2.89c7.61-.38,10.86-6.85,18-6.68,2.25.06,5.38.79,9.09,3.85l0-26.35c-3.71-3.06-6.84-3.79-9.1-3.85-7.12-.17-10.36,6.3-18,6.68a16.89,16.89,0,0,1-9.83-2.9Z"/><path class="cls-28" d="M895.47,162.63c16.66,10.81,21.41-12.48,36.85,0,.14-.12,0-.53.06-.75l0-19.32c0-2.07.11-4.17,0-6.23a9.24,9.24,0,0,0-6-3.63c-12.42-2.23-16.17,12.69-30.81,3.55Z"/><path class="cls-3" d="M894,189.43a4.4,4.4,0,0,1-2.18-.6.82.82,0,0,1-.41-.71l.1-52.15a.8.8,0,0,1,.29-.62,3.51,3.51,0,0,1,2.27-.9,3.83,3.83,0,0,1,2.33.89.8.8,0,0,1,.3.64l-.09,52.16a.8.8,0,0,1-.42.71A4.6,4.6,0,0,1,894,189.43Z"/><path class="cls-2" d="M894.06,135.25a3,3,0,0,1,1.83.73l-.1,52.16a3.78,3.78,0,0,1-1.8.49,3.67,3.67,0,0,1-1.78-.5L892.3,136a2.78,2.78,0,0,1,1.76-.72m0-1.61h0a4.34,4.34,0,0,0-2.79,1.09,1.61,1.61,0,0,0-.58,1.24l-.1,52.15a1.63,1.63,0,0,0,.82,1.41,5.2,5.2,0,0,0,2.58.71,5.46,5.46,0,0,0,2.57-.68,1.61,1.61,0,0,0,.85-1.42L897.5,136a1.6,1.6,0,0,0-.62-1.27,4.52,4.52,0,0,0-2.82-1.07Z"/><path class="cls-3" d="M895.47,162.63a17,17,0,0,0,9.83,2.89c7.61-.38,10.86-6.85,18-6.68,2.25.06,5.38.79,9.09,3.85l0-26.35c-3.71-3.06-6.84-3.79-9.1-3.85-7.12-.17-10.36,6.3-18,6.68a16.89,16.89,0,0,1-9.83-2.9Z"/><path class="cls-29" d="M895.47,162.63c16.66,10.81,21.41-12.48,36.85,0,.14-.12,0-.53.06-.75l0-19.32c0-2.07.11-4.17,0-6.23a9.24,9.24,0,0,0-6-3.63c-12.42-2.23-16.17,12.69-30.81,3.55Z"/><path class="cls-3" d="M894,189.43a4.4,4.4,0,0,1-2.18-.6.82.82,0,0,1-.41-.71l.1-52.15a.8.8,0,0,1,.29-.62,3.51,3.51,0,0,1,2.27-.9,3.83,3.83,0,0,1,2.33.89.8.8,0,0,1,.3.64l-.09,52.16a.8.8,0,0,1-.42.71A4.6,4.6,0,0,1,894,189.43Z"/><path class="cls-2" d="M894.06,135.25a3,3,0,0,1,1.83.73l-.1,52.16a3.78,3.78,0,0,1-1.8.49,3.67,3.67,0,0,1-1.78-.5L892.3,136a2.78,2.78,0,0,1,1.76-.72m0-1.61h0a4.34,4.34,0,0,0-2.79,1.09,1.61,1.61,0,0,0-.58,1.24l-.1,52.15a1.63,1.63,0,0,0,.82,1.41,5.2,5.2,0,0,0,2.58.71,5.46,5.46,0,0,0,2.57-.68,1.61,1.61,0,0,0,.85-1.42L897.5,136a1.6,1.6,0,0,0-.62-1.27,4.52,4.52,0,0,0-2.82-1.07Z"/><line class="cls-19" x1="947.73" y1="120.83" x2="940.12" y2="128.44"/><line class="cls-19" x1="937.72" y1="113.17" x2="932.93" y2="122.81"/><line class="cls-19" x1="955.34" y1="129.2" x2="946.02" y2="134.59"/><path class="cls-3" d="M1056.54,69.2a17,17,0,0,0,9.83,2.9c7.62-.39,10.86-6.85,18-6.68,2.26,0,5.39.79,9.1,3.85l0-26.35c-3.72-3.07-6.85-3.8-9.1-3.85-7.12-.17-10.37,6.29-18,6.67a16.94,16.94,0,0,1-9.83-2.89Z"/><path class="cls-30" d="M1056.54,69.2c16.67,10.82,21.41-12.47,36.85,0,.15-.12,0-.52.06-.74q0-9.66,0-19.33c0-2.07.1-4.17,0-6.22a9.31,9.31,0,0,0-6-3.64c-12.42-2.22-16.17,12.7-30.81,3.56Z"/><path class="cls-3" d="M1055.07,96a4.37,4.37,0,0,1-2.18-.6.81.81,0,0,1-.41-.71l.09-52.15a.81.81,0,0,1,.29-.62,3.55,3.55,0,0,1,2.28-.91,3.8,3.8,0,0,1,2.32.9.81.81,0,0,1,.31.64l-.09,52.16a.82.82,0,0,1-.43.71A4.71,4.71,0,0,1,1055.07,96Z"/><path class="cls-2" d="M1055.14,41.83a3,3,0,0,1,1.82.73l-.09,52.15a3.81,3.81,0,0,1-1.8.49,3.57,3.57,0,0,1-1.79-.5l.1-52.15a2.75,2.75,0,0,1,1.76-.72m0-1.62h0a4.3,4.3,0,0,0-2.8,1.1,1.61,1.61,0,0,0-.58,1.24l-.09,52.15a1.62,1.62,0,0,0,.82,1.41,5.17,5.17,0,0,0,2.58.71,5.42,5.42,0,0,0,2.56-.68,1.63,1.63,0,0,0,.86-1.42l.09-52.16a1.6,1.6,0,0,0-.62-1.27,4.52,4.52,0,0,0-2.82-1.08Z"/><path class="cls-3" d="M1056.54,69.2a17,17,0,0,0,9.83,2.9c7.62-.39,10.86-6.85,18-6.68,2.26,0,5.39.79,9.1,3.85l0-26.35c-3.72-3.07-6.85-3.8-9.1-3.85-7.12-.17-10.37,6.29-18,6.67a16.94,16.94,0,0,1-9.83-2.89Z"/><path class="cls-31" d="M1056.54,69.2c16.67,10.82,21.41-12.47,36.85,0,.15-.12,0-.52.06-.74q0-9.66,0-19.33c0-2.07.1-4.17,0-6.22a9.31,9.31,0,0,0-6-3.64c-12.42-2.22-16.17,12.7-30.81,3.56Z"/><path class="cls-3" d="M1055.07,96a4.37,4.37,0,0,1-2.18-.6.81.81,0,0,1-.41-.71l.09-52.15a.81.81,0,0,1,.29-.62,3.55,3.55,0,0,1,2.28-.91,3.8,3.8,0,0,1,2.32.9.81.81,0,0,1,.31.64l-.09,52.16a.82.82,0,0,1-.43.71A4.71,4.71,0,0,1,1055.07,96Z"/><path class="cls-2" d="M1055.14,41.83a3,3,0,0,1,1.82.73l-.09,52.15a3.81,3.81,0,0,1-1.8.49,3.57,3.57,0,0,1-1.79-.5l.1-52.15a2.75,2.75,0,0,1,1.76-.72m0-1.62h0a4.3,4.3,0,0,0-2.8,1.1,1.61,1.61,0,0,0-.58,1.24l-.09,52.15a1.62,1.62,0,0,0,.82,1.41,5.17,5.17,0,0,0,2.58.71,5.42,5.42,0,0,0,2.56-.68,1.63,1.63,0,0,0,.86-1.42l.09-52.16a1.6,1.6,0,0,0-.62-1.27,4.52,4.52,0,0,0-2.82-1.08Z"/><line class="cls-19" x1="1108.81" y1="27.41" x2="1101.2" y2="35.02"/><line class="cls-19" x1="1098.79" y1="19.74" x2="1094" y2="29.38"/><line class="cls-19" x1="1116.42" y1="35.78" x2="1107.1" y2="41.16"/><path class="cls-3" d="M1215.47,155.11a17,17,0,0,0,9.83,2.89c7.61-.38,10.86-6.85,18-6.67,2.25,0,5.38.78,9.09,3.85l.05-26.36c-3.71-3.06-6.84-3.79-9.09-3.85-7.12-.17-10.37,6.3-18,6.68a17,17,0,0,1-9.83-2.89Z"/><path class="cls-32" d="M1215.47,155.11c16.66,10.82,21.41-12.47,36.85,0,.14-.12,0-.53.06-.75l0-19.32c0-2.07.11-4.17,0-6.23a9.32,9.32,0,0,0-6-3.63c-12.42-2.22-16.17,12.7-30.81,3.56Z"/><path class="cls-3" d="M1214,181.92a4.41,4.41,0,0,1-2.18-.61.81.81,0,0,1-.41-.7l.1-52.15a.78.78,0,0,1,.29-.62,3.47,3.47,0,0,1,2.27-.91,3.78,3.78,0,0,1,2.33.9.83.83,0,0,1,.31.64l-.1,52.15a.8.8,0,0,1-.42.71A4.62,4.62,0,0,1,1214,181.92Z"/><path class="cls-2" d="M1214.06,127.74a3,3,0,0,1,1.83.72l-.09,52.16a3.82,3.82,0,0,1-1.81.49,3.57,3.57,0,0,1-1.78-.5l.09-52.15a2.72,2.72,0,0,1,1.76-.72m0-1.62h0a4.3,4.3,0,0,0-2.79,1.1,1.59,1.59,0,0,0-.58,1.23l-.09,52.16a1.58,1.58,0,0,0,.81,1.4,5.11,5.11,0,0,0,2.58.72,5.46,5.46,0,0,0,2.57-.68,1.63,1.63,0,0,0,.85-1.43l.09-52.15a1.6,1.6,0,0,0-.61-1.28,4.57,4.57,0,0,0-2.83-1.07Z"/><path class="cls-3" d="M1215.47,155.11a17,17,0,0,0,9.83,2.89c7.61-.38,10.86-6.85,18-6.67,2.25,0,5.38.78,9.09,3.85l.05-26.36c-3.71-3.06-6.84-3.79-9.09-3.85-7.12-.17-10.37,6.3-18,6.68a17,17,0,0,1-9.83-2.89Z"/><path class="cls-33" d="M1215.47,155.11c16.66,10.82,21.41-12.47,36.85,0,.14-.12,0-.53.06-.75l0-19.32c0-2.07.11-4.17,0-6.23a9.32,9.32,0,0,0-6-3.63c-12.42-2.22-16.17,12.7-30.81,3.56Z"/><path class="cls-3" d="M1214,181.92a4.41,4.41,0,0,1-2.18-.61.81.81,0,0,1-.41-.7l.1-52.15a.78.78,0,0,1,.29-.62,3.47,3.47,0,0,1,2.27-.91,3.78,3.78,0,0,1,2.33.9.83.83,0,0,1,.31.64l-.1,52.15a.8.8,0,0,1-.42.71A4.62,4.62,0,0,1,1214,181.92Z"/><path class="cls-2" d="M1214.06,127.74a3,3,0,0,1,1.83.72l-.09,52.16a3.82,3.82,0,0,1-1.81.49,3.57,3.57,0,0,1-1.78-.5l.09-52.15a2.72,2.72,0,0,1,1.76-.72m0-1.62h0a4.3,4.3,0,0,0-2.79,1.1,1.59,1.59,0,0,0-.58,1.23l-.09,52.16a1.58,1.58,0,0,0,.81,1.4,5.11,5.11,0,0,0,2.58.72,5.46,5.46,0,0,0,2.57-.68,1.63,1.63,0,0,0,.85-1.43l.09-52.15a1.6,1.6,0,0,0-.61-1.28,4.57,4.57,0,0,0-2.83-1.07Z"/><line class="cls-19" x1="1267.73" y1="113.31" x2="1260.13" y2="120.92"/><line class="cls-19" x1="1257.72" y1="105.65" x2="1252.93" y2="115.29"/><line class="cls-19" x1="1275.34" y1="121.68" x2="1266.03" y2="127.07"/></g></svg>