<svg xmlns="http://www.w3.org/2000/svg" xmlns:xlink="http://www.w3.org/1999/xlink" viewBox="0 0 614.85 1046.32"><script xmlns="" src="chrome-extension://hoklmmgfnpapgjgcpechhaamimifchmp/frame_ant/frame_ant.js"/><defs><style>.cls-1,.cls-2{fill:none;}.cls-2{stroke:#231815;stroke-width:2.4px;}.cls-3{fill:#fff;}.cls-4{fill:url(#_6_lpi_20_);}.cls-5{fill:#040000;}.cls-6{fill:#f4ce1e;}.cls-7{fill:#f1c71d;}</style><pattern id="_6_lpi_20_" data-name="6 lpi 20%" width="72" height="72" patternTransform="matrix(-1.27, -1.27, 1.27, -1.27, 1468.1, 8966.68)" patternUnits="userSpaceOnUse" viewBox="0 0 72 72"><rect class="cls-1" width="72" height="72"/><line class="cls-2" x1="71.75" y1="66" x2="144.25" y2="66"/><line class="cls-2" x1="71.75" y1="42" x2="144.25" y2="42"/><line class="cls-2" x1="71.75" y1="18" x2="144.25" y2="18"/><line class="cls-2" x1="71.75" y1="54" x2="144.25" y2="54"/><line class="cls-2" x1="71.75" y1="30" x2="144.25" y2="30"/><line class="cls-2" x1="71.75" y1="6" x2="144.25" y2="6"/><line class="cls-2" x1="-0.25" y1="66" x2="72.25" y2="66"/><line class="cls-2" x1="-0.25" y1="42" x2="72.25" y2="42"/><line class="cls-2" x1="-0.25" y1="18" x2="72.25" y2="18"/><line class="cls-2" x1="-0.25" y1="54" x2="72.25" y2="54"/><line class="cls-2" x1="-0.25" y1="30" x2="72.25" y2="30"/><line class="cls-2" x1="-0.25" y1="6" x2="72.25" y2="6"/><line class="cls-2" x1="-72.25" y1="66" x2="0.25" y2="66"/><line class="cls-2" x1="-72.25" y1="42" x2="0.25" y2="42"/><line class="cls-2" x1="-72.25" y1="18" x2="0.25" y2="18"/><line class="cls-2" x1="-72.25" y1="54" x2="0.25" y2="54"/><line class="cls-2" x1="-72.25" y1="30" x2="0.25" y2="30"/><line class="cls-2" x1="-72.25" y1="6" x2="0.25" y2="6"/></pattern></defs><g id="レイヤー_2" data-name="レイヤー 2"><g id="レイヤー_4" data-name="レイヤー 4"><path class="cls-3" d="M214.81,152.9c-9.84,6.18-24.2,12.9-41.15,12-31.85-1.65-45.38-28.72-75.16-28.06-9.43.21-22.53,3.25-38.09,16V42.65C76,29.86,89.07,26.83,98.5,26.62,128.28,26,141.81,53,173.66,54.68c17,.88,31.31-5.85,41.15-12Z"/><path class="cls-4" d="M214.81,152.9c-9.84,6.18-24.2,12.9-41.15,12-31.85-1.65-45.38-28.72-75.16-28.06-9.38.21-22.41,3.22-37.86,15.85a.14.14,0,0,1-.23-.1V48.3c0-1.36,0-2.71,0-4.07a4.25,4.25,0,0,1,.25-1.54,4.64,4.64,0,0,1,.88-1.28c.33-.39.67-.78,1-1.16q1-1.09,2.07-2.13a42.39,42.39,0,0,1,4.25-3.56,38.83,38.83,0,0,1,4.33-2.72,37.94,37.94,0,0,1,4.34-2,42.72,42.72,0,0,1,4.28-1.39c1.37-.37,2.75-.66,4.15-.9s2.64-.4,4-.52,2.46-.21,3.7-.26,2.25-.08,3.38-.11l1.52,0C128.28,26,141.81,53,173.66,54.68c17,.88,31.31-5.85,41.15-12Z"/><path class="cls-5" d="M176.66,166.7c-1,0-2.06,0-3.08-.08-16.15-.84-27.62-8-38.71-14.87s-21.77-13.51-36.33-13.19c-12.22.27-24.6,5.48-36.83,15.47a1.83,1.83,0,0,1-3-1.42V48.3c0-.67,0-1.34,0-2s0-1.37,0-2.06A6.15,6.15,0,0,1,59,42.06a6,6,0,0,1,1.1-1.68c.41-.48.76-.88,1.12-1.27.7-.77,1.43-1.51,2.16-2.21a40.69,40.69,0,0,1,4.43-3.71,39.43,39.43,0,0,1,4.52-2.85,42.15,42.15,0,0,1,4.52-2.09,43.83,43.83,0,0,1,4.46-1.45c1.38-.37,2.83-.68,4.31-.94,1.29-.22,2.67-.4,4.08-.53,1.19-.12,2.43-.21,3.79-.27,1.14,0,2.28-.08,3.42-.11l1.52,0c15.61-.36,27.09,6.79,38.2,13.7,10.73,6.67,21.82,13.57,37.09,14.36,13.14.69,26.65-3.28,40.15-11.76l2.6-1.64V153.83l-.79.5C202.64,162.55,189.52,166.7,176.66,166.7Zm-77.1-31.55c15,0,26.25,7,37.1,13.72s21.82,13.57,37.09,14.36c12.88.67,26.12-3.13,39.36-11.28V45.67c-13.25,7.78-26.54,11.38-39.53,10.71-16.15-.84-27.62-8-38.71-14.87S113.09,28,98.54,28.32l-1.52,0c-1.11,0-2.23,0-3.34.1-1.31.06-2.49.15-3.62.26-1.34.12-2.63.29-3.84.5-1.38.24-2.73.53-4,.87a36.56,36.56,0,0,0-4.11,1.34,36.32,36.32,0,0,0-8.28,4.52,38.29,38.29,0,0,0-4.07,3.41c-.68.65-1.35,1.34-2,2-.33.36-.66.74-1,1.12a3.53,3.53,0,0,0-.59.79,2.55,2.55,0,0,0-.13.93c0,.66,0,1.33,0,2s0,1.37,0,2.06V149.38c12-9.16,24.22-13.95,36.35-14.22Z"/><path class="cls-3" d="M213.4,918.27v123.64c5.2,3.54,10.48,3.45,15.84,0V899.37Z"/><path class="cls-5" d="M221.2,1046.32a15.51,15.51,0,0,1-8.8-2.94,1.78,1.78,0,0,1-.77-1.47V918.27a1.81,1.81,0,0,1,.41-1.14l15.84-18.89a1.76,1.76,0,0,1,3.12,1.13v142.54a1.74,1.74,0,0,1-.81,1.49A16.58,16.58,0,0,1,221.2,1046.32Zm-6-5.37c4,2.42,8.06,2.41,12.3,0V904.23l-12.3,14.68Z"/><path class="cls-3" d="M223.75,196.11a15.72,15.72,0,0,1,4.5,2.22V41.42c-4.71-3.94-9.7-4.13-15,0V194.58A33.83,33.83,0,0,1,223.75,196.11Z"/><path class="cls-5" d="M228.25,200a1.69,1.69,0,0,1-.89-.25l-.73-.46a11.81,11.81,0,0,0-3.39-1.59,32.37,32.37,0,0,0-9.93-1.45,1.74,1.74,0,0,1-1.24-.48,1.69,1.69,0,0,1-.51-1.22V41.42a1.72,1.72,0,0,1,.65-1.34c5.79-4.51,11.71-4.5,17.13,0a1.71,1.71,0,0,1,.61,1.3V198.33a1.68,1.68,0,0,1-.87,1.48A1.64,1.64,0,0,1,228.25,200ZM215,192.89a36.28,36.28,0,0,1,9.31,1.6h0a16.1,16.1,0,0,1,2.29.88V42.24c-3.8-2.88-7.52-2.87-11.6,0Z"/><path class="cls-3" d="M258.39,845.2c-.22,7,6.13,13.57,12.54,16,15.8,5.93,36-12.09,34.23-18.25-.26-.9-.91-1.31-2.28-2.28-10.21-7.26-10.7-10.74-14.83-12.55C278.37,823.86,258.75,833.24,258.39,845.2Z"/><path class="cls-6" d="M393,676.37c-.54,2.71-1.64,4-6.85,10.27C347,733.91,358.26,723.46,336,748.24c-11.08,12.3-16.82,18.17-29.66,33.08-5.43,6.3-9.79,11.5-12.55,14.83V795a13,13,0,0,1,1.14,6.84,12.77,12.77,0,0,1-2.28,5.71c-16,22.94-29.48,47.63-46.77,69.58-35.32,44.84-53,67.25-54.76,71.87a9.36,9.36,0,0,1-3.42,4.56c-2.41,1.61-5.38,1.61-8,1.15L151.15,937.6c-2.37-4.28-4.61-9.88-2.28-13.69a8.52,8.52,0,0,1,2.28-2.28c4.38-3.49,6.29-7.15,9.13-11.4,6.16-9.24,13.32-15.2,26.24-35.37,9.76-15.25,16.69-26.07,25.09-42.21,1.86-3.57,3.16-6.22,4.22-8.36,3.13-6.35,6.33-12.67,9.47-19,3.46-7,15.29-30,51.34-99.24A193.8,193.8,0,0,1,255,719.72c-17.67,9.58-18.38,10.47-31.94,13.69v1.14a7.25,7.25,0,0,1,0,2.28,8.79,8.79,0,0,1-1.67,3.55l.53-.13c1.9,2.19,3.81,4.47,5.7,6.85a219.35,219.35,0,0,1,16,22.81l-27.38,53.62c-38.05-35.2-62.6-63.73-65-69.59a46.51,46.51,0,0,1-3.42-16h0a64.74,64.74,0,0,1,2.28-6.84c2.77-7,6-11.46,9.13-16,12.42-17.75,12.46-19.23,18.25-26.23,5-6,10.27-11.41,10.27-11.41l2.28-2.28c8.75-8.6,36.39-34.34,39.93-37.65,25.62-23.94,21.57-24.6,28.52-28.52C301.91,584.51,399.15,645.4,393,676.37Z"/><path class="cls-3" d="M532.17,403.26a85,85,0,0,0-20.53-5.71C487.23,394,467.41,402,458,406.68H454.6c-1.15-.75-5.25-10.49-7-10.05a15.8,15.8,0,0,0-6.92,5c-.24.31.43,4.13-3.21,7.73s-8,10.91-17,14.32c-4.79,1.82-6.56,8.22-14.73,4.23-5.4-2.63-2.67-9.88-4-17.09-.74-4-6-13.85-8.23-14.89-1.38-.65-12.85,9.86-14.2,10.76-2.67-1.27-6.65-3.21-11.41-5.71-11.83-6.21-13.57-8.07-27.38-16-17.1-9.78-17.94-8.93-20.53-12.55-3.38-4.71-5.54-11.16-11.41-12.54a10.33,10.33,0,0,0-4.56,0c-21.6-29.39-35.35-59.72-46.78-66.17a14,14,0,0,1-5.7-4.56c-2.36-3.55-1.7-7.1-4.56-9.13a6.75,6.75,0,0,0-3.42-1.14c-9.62-1.35-18.31,1.25-21.68,6.85a19.45,19.45,0,0,0-2.28,6.84,21,21,0,0,0,1.14,10.27v2.28c-1.65,5.06,2.25,9.71,6.84,19.39,1.39,2.92.08.48,3.43,8,5.7,12.78,11.14,23.53,12.55,26.24,10.69,20.6,34.66,51.78,59.32,85.55,4.39,6,11.61,16,20.53,28.52l.19.25c-.05.22-.12.56-.19.89-.7,3.43-.93,6-1.13,7.32-.38,2.51-.77,5-1.15,7.51-6.75,44.12-19.4,63.89-19.4,63.89-1.1,1.65-3,4.55-5.7,8-3,2.39-5.34,4.4-6.84,5.7-20.18,17.54-22.88,26.4-30.8,34.23a11.61,11.61,0,0,0-3.43,5.7,10.7,10.7,0,0,0,0,4.56l5.71-4.56a58,58,0,0,1,17.11,3.42c15.33,5.62,21.72,15.64,31.94,26.24,5.8,6,37.71,38.45,77.57,39.93,2.46.09,4.47,0,5.71,0l-6.85,10.27c4.81-1.1,12.14-2.37,14.83-2.29,5.41.17,7.86,1.28,11.41,0a16,16,0,0,0,6.84-5.7C428.63,665,451.71,552.71,454.6,539c0,0,9.83-46.67,35.36-68.45a51,51,0,0,1,4.56-3.42,48,48,0,0,1,17.12-6.85c20.78-4.18,98.84-9.89,101.52-24a27.87,27.87,0,0,0,0-5.71,37.12,37.12,0,0,0-3.42-12.54c-5.48-12.36-8.22-18.54-12.55-25.1-13.77-20.89-28.32-29.92-37.64-41.07-2.42-2.89-5.56-5.11-8-8a9.49,9.49,0,0,0-4.56-3.43,8.48,8.48,0,0,0-4.56,0c-1.19.79-2.92,1.66-4.57,1.14-1.08-.33-1.45-1.06-3.42-3.42-2.23-2.66-3.37-4-4.56-4.56-.9-.42-2.73-1-5.71,0l-22.81,9.12c-1.11,1.88-2.07,4.19-1.14,5.71a4.32,4.32,0,0,0,1.14,1.14c1.36,1.15,1.67,2.64,2.28,4.56s1.6,3.77,2.28,5.71c2.1,6,11.32,20.56,20.54,33.08,3.64,4.95,7,9.13,8,12.55Z"/><path class="cls-3" d="M458,368.36c-1.88.83-2.32,2.61-3.42,4.56-2.86,5.08-8,7.5-11.41,9.13a30.23,30.23,0,0,1-6.85,2.28l-6.84,2.28c-3.31,1.61-10.35,4.34-18.25,2.29-9.5-2.47-14.64-10.4-18.25-16a35.83,35.83,0,0,1-5.71-12.54c-1.15-5.34-.06-7.09,1.14-22.82.65-8.47.42-9.15,1.14-12.55.38-1.78,2.17-10.21,5.71-14.83,9.75-12.74,42.24-8.88,55.89,4.57a60.45,60.45,0,0,1,11.41,17.11c1.37,3.27,2.06,4.9,2.28,6.84.39,3.32-.35,5.57,1.14,6.85,1,.81,1.7.27,3.43,1.14a8.27,8.27,0,0,1,3.42,3.42c2,3.6.51,7.74,0,9.13-1.59,4.32-5.77,9.05-10.27,9.12C460.74,368.39,459.68,367.63,458,368.36Z"/><path class="cls-6" d="M423.8,311.32a38.85,38.85,0,0,1-12.55,2.29c-1.22,0-7.39,1.27-7.62.14-.14-.72,3.44-2.48,5.34-4.71,1.57-1.84,2.71-4.18,2.28-4.56s-1.52.62-2.28,1.14c-5.64,3.83-10.06,1.25-19.4,4.56-2.53.9-3.33,2.85-3.86,2.25-1-1.09-.61-9.52.28-10.67a70.31,70.31,0,0,1,8.71-8.26c7.93-6,24.61-11.07,26-11.59,1.9-.75,8.92-.51,12.29-1.11,1.28-.23,5,0,12.57,1.25,5.72.93,5.28.63,8.1,2.66.43.31,3.3,1.42,3.63,1.11s-4.16-.28-3.8-3c.46-3.59,6.68-5.94,6.84-5.7.05.08-.54.4-1.14,1.14-2,2.46,3.12,6.86,3.26,7.58.8,4.16,2.63,5.34,6.71,8.8,1.81,1.54,3.19,4,4.32,4.75.4.37,3.13,2.27,3.5,2.65,7.38,7.87,6.45,19.66,6,28.07,1.38,8.07-2.06,14.92-3.49,18.15a4.85,4.85,0,0,1-5.47,3c-.89-.16-.76-1.83-2.28-3.42-1.9-2-4.8-.68-5.71-2.28-.38-.68-.13-1.29,0-2.29.29-2.11-.27-3.28-2.28-9.12-.52-1.51-1.31-3.86-2.28-6.85a77,77,0,0,0-37.64-16Z"/><path class="cls-3" d="M445.47,410.57c-.13-1.43-.56-1.32-1.14-3.42-1.4-5.07-1.54-11,4.56-20.54,6.38-10,7.26-12.89,6.21-14-2.54-2.8-16.07,13.42-35.87,12.9-7-.18-12.68-2.39-16,1.14-2.41,2.59-.88,5.43-4.56,13.69-1.94,4.35-3.4,5.9-4.56,6.85-3.26,2.66-5.56,1.84-6.85,3.42-3.55,4.36,3.86,23,17.11,26.24,7,1.72,13-1.9,25.1-9.13C436,423.77,446.11,417.59,445.47,410.57Z"/><path class="cls-3" d="M242.41,280.52l-12.54-26.23c3.2-1.93,5.11-6.19,5.7-22.82.17-4.74.37-14.23,1.14-22.82.35-3.84.71-6.37,2.28-9.12,1.79-3.13,3.93-4.39,3.42-5.71s-4.07-2.08-6.84-1.14c-3.17,1.09-3.58,3.61-6.84,4.57a8.75,8.75,0,0,1-4.57,0s-4.76-3.36-5.7-3.43c-4.24-.28-8.41,3.17-10.27,5.71,0,0-3.15,4.29-4.56,5.7l-1.14,1.14-1.14,1.14c-2.82,2.83-2.28,10.27-2.28,10.27,1,13.58-.7,10.57,1.14,25.1.12,1,.69,5.41,1.14,8,2.43,13.89,10.93,27.76,18.25,37.65a10.56,10.56,0,0,0,2.28,2.28c4.92,3.59,11.37,1.52,12.55,1.14.82-.26,9-3,9.13-8A5.83,5.83,0,0,0,242.41,280.52Z"/><path class="cls-5" d="M284.62,677.6a1.31,1.31,0,0,1-.38-.06,1.23,1.23,0,0,1-.79-1.55c.84-2.59,1.6-5.25,2.26-7.9.91-3.7,1.36-6.32,1.72-8.43.19-1.09.36-2,.55-2.94a39.94,39.94,0,0,1,8.23-16.49,1.23,1.23,0,0,1,1.73-.19,1.24,1.24,0,0,1,.2,1.74,37.61,37.61,0,0,0-7.75,15.45c-.18.87-.34,1.79-.52,2.85-.37,2.15-.83,4.82-1.77,8.6-.67,2.71-1.44,5.43-2.3,8.07A1.24,1.24,0,0,1,284.62,677.6Z"/><path class="cls-5" d="M284.62,654.79h0a1.24,1.24,0,0,1-1.23-1.24c0-1,0-2.63,0-4.56s0-3.2,0-4a18.48,18.48,0,0,1,0-1.86c.22-2.42.93-4.39,2.35-8.3.71-1.94,1.49-3.88,2.32-5.78a1.23,1.23,0,0,1,2.26,1c-.81,1.85-1.57,3.74-2.26,5.63-1.34,3.72-2,5.58-2.21,7.68a15.78,15.78,0,0,0,0,1.61c0,.76,0,2,0,4v4.57A1.24,1.24,0,0,1,284.62,654.79Z"/><path class="cls-6" d="M289.19,816.68c3.88.91,7.79,6.42,6.84,10.27-.64,2.57-3.33,3.93-4.56,4.56-17.37,8.91-25.25,18.12-27.38,16C260.53,843.9,278.64,814.23,289.19,816.68Z"/><path class="cls-6" d="M263,860c.54-2.55,3.79-4.4,10.27-8,7.33-4.06,9.11-3.89,10.26-3.43,2.71,1.1,2.34,4,4.57,4.57,2.93.76,6.62-3.5,11.4-9.13s5.58-7.82,8-8c.63-.05,1.42,0,8,5.7,6.11,5.26,7.78,7.22,9.13,9.13,1.54,2.18,1.2,2.24,2.28,3.42,2.81,3.08,5.42,3,9.13,5.7.72.53,3.59,2.6,4.56,4.56,3,6-8.53,17.1-16,25.1-19.42,20.87-12.21,21.33-29.66,38.79,0,0-19.94,19.95-38.79,26.24-.14,0-1.49.48-3.42,1.14-2.84,1-3.07,1.08-3.42,1.14-3.21.51-7.09-6.08-8-8-8.33-17.69,35.82-65.35,25.1-81C265.18,866.28,262.24,863.38,263,860Z"/><path class="cls-3" d="M242.41,951.29c.51-1,2.39-1.07,3.43-1.14,3.1-.2,7-2.42,14.83-6.84C290.1,926.65,304,904.52,304,904.52c4.49-7.14,6-11.82,12.54-19.39a132,132,0,0,0,10.27-12.55c2.27-3.24,4.86-5.25,5.71-9.13.54-2.48.17-4.05,1.14-4.56,1.76-.93,7,2.5,8,6.85.87,3.89-2,7.39-13.69,20.53-5.78,6.47-8.84,9.82-10.26,11.41-10.84,12.14-9.64,15.52-18.26,26.23,0,0-16.44,20.44-43.35,30.81-.4.15-1.77.64-3.42,1.14-3,.91-4.58,1.37-5.7,1.14C244.07,956.4,241.67,952.85,242.41,951.29Z"/><path class="cls-3" d="M504.79,346.69c-2.57-2.65-5.6-5.76-8-8s-1.3-1-6.85-5.7c-1.06-.91-3.37-2.51-8-5.71-.88-.61-2.49-1.69-3.43-1.14-.6.36-.48,1.13-1.14,2.28a6.72,6.72,0,0,1-2.28,2.29c-3.37,2.35-8.46,1.28-9.13,1.14-2.93-.65-4-1.83-5.7-1.14-.82.33-.94.74-2.28,2.28a26.86,26.86,0,0,1-6.85,5.7,6.89,6.89,0,0,1-3.42,1.14c-.37,0-2.45.05-3.42-1.14-1.44-1.77.37-5.34,1.14-6.84,3.07-6,6.88-6.58,6.85-9.13-.06-3.84-8.77-6.71-12.28-7.86-5-1.63-8.47-1.92-19.39-4.56a21.49,21.49,0,0,1-8-4.57c-.61-.5-1.1-.95-1.42-1.26,0,0-2-1.85-4.57-4.56a16.1,16.1,0,0,1-3.42-5.71,6.34,6.34,0,0,1-1.14-3.42c0-.72-.06-2.62,1.14-3.42.81-.54,1.82-.33,3.42,0a14.8,14.8,0,0,1,3.43,1.14h2.28a2.75,2.75,0,0,1,1.14-2.28c1.25-.8,2.83.23,5.7,1.14.15,0,2,.41,5.71,1.14,7.7,1.52,11.65.88,18.25,2.28,1.62.34,4.53,1.37,10.27,3.42,7,2.51,10.27,3.82,24,9.13,10.73,4.16,11.59,4.47,13.69,5.7,3.88,2.28,3.31,2.67,13.69,11.41,9.07,7.64,13.55,11.53,17.11,13.69,3.34,2,4.36,2.25,4.57,3.42.88,5-14.91,14.3-20.54,10.27A16,16,0,0,1,504.79,346.69Z"/><path class="cls-3" d="M168.27,981a126.56,126.56,0,0,1,2.28-13.69c1.22-5.48,2.18-9.69,4.56-14.83a54.46,54.46,0,0,1,4.56-8c-.37-1.51-2.75-10.39-11.4-14.83a21.75,21.75,0,0,0-11.41-2.28A66.12,66.12,0,0,1,149,940.12a42.6,42.6,0,0,1-6.08,6.53A30.16,30.16,0,0,0,168.27,981Z"/><path class="cls-6" d="M138.78,945.4c2.86,0,5.52,3,10.71,8.93,5.89,6.74,6.07,8.62,5.8,9.91-.62,3-3.81,3.28-4,5.71-.22,3.21,5.13,6.12,12.18,9.87s9.59,4.12,10.25,6.57c.18.65.24,1.49-4.5,9.5-4.42,7.46-6.18,9.6-8,11.41-2,2.07-2.17,1.73-3.22,3.1-2.74,3.57-2.14,6.26-4.27,10.68-.42.86-2.06,4.27-4,5.7-5.83,4.34-20.18-5.18-30.34-11.19C93,999.92,94,1007.49,71.56,993.14h0s-32.63-26.11-35.62-35c-.06-.16-.48-1.46-1.14-3.42-1-2.85-1.07-3.09-1.15-3.43-.77-3.49,4-7.53,4.57-8,6.49-5.47,17.48-3.9,20.53-3.42,36.13,5.6,61.32,20,72.12,10.76C133.16,948.69,135.2,945.38,138.78,945.4Z"/><path class="cls-3" d="M40.14,942.77c2-.16,2.06.78,2.58,2.61,1.56,5.46,5.91,8.26,9.33,12.74,12.83,16.85,30.15,30.76,48.67,38.2,10.84,4.35,14,4.77,23.94,9.28,4.08,1.84,10.42,5.29,15.37,7.9,2.67,1.41,7.45,4.26,10.38,4.54,1.89.18,4.58-1.43,5.07.39.89,3.35-.83,7.53-6.26,9.31-4.87,1.6-18.91-6.32-24.42-9.53-2.72-1.59-11.55-6.79-13.23-7.65-12.77-6.56-19.92-6.9-32.76-15.09C66.51,987.63,48,974.66,38.28,960a17.2,17.2,0,0,0-2.51-2.86c-1.57-1.11-2.23-4.56-1.86-5.91C34.86,947.75,37.16,943,40.14,942.77Z"/><circle class="cls-5" cx="426.08" cy="336.42" r="2.28"/><circle class="cls-5" cx="391.82" cy="465.4" r="2.28"/><circle class="cls-5" cx="409.85" cy="428.22" r="2.28"/><circle class="cls-5" cx="371.72" cy="505.34" r="2.28"/><circle class="cls-5" cx="349.67" cy="547.77" r="2.28"/><circle class="cls-5" cx="398.7" cy="331.86" r="2.28"/><path class="cls-5" d="M399.84,348.23a1.54,1.54,0,0,1-.45-3,5.9,5.9,0,0,0,1.81-.9c1.64-1.23,2.17-3.07,2.84-6,.75-3.22,1.46-6.27.1-9.28a14.92,14.92,0,0,0-2.09-3.1,25.85,25.85,0,0,0-4.31-4.31,1.54,1.54,0,1,1,1.92-2.42,28.49,28.49,0,0,1,4.81,4.82A17.2,17.2,0,0,1,407,327.8c1.79,4,.89,7.83.1,11.25-.66,2.83-1.34,5.75-4,7.73a8.67,8.67,0,0,1-2.75,1.38A1.41,1.41,0,0,1,399.84,348.23Z"/><path class="cls-5" d="M430.64,332.88a1.55,1.55,0,0,1-1.42-.94,5.51,5.51,0,0,0-2.84-2.84,5.6,5.6,0,0,0-4.26,0,1.54,1.54,0,1,1-1.21-2.84,8.79,8.79,0,0,1,6.69,0,8.68,8.68,0,0,1,4.46,4.46,1.54,1.54,0,0,1-.81,2A1.63,1.63,0,0,1,430.64,332.88Z"/><path class="cls-5" d="M411.78,371.06c-.2,0-.41,0-.62,0a11.55,11.55,0,0,1-10.55-9.2,1.57,1.57,0,0,1,.31-1.29,1.55,1.55,0,0,1,1.2-.58h19.39a1.54,1.54,0,0,1,1.51,1.87A11.65,11.65,0,0,1,411.78,371.06Zm-7.53-8a8.4,8.4,0,0,0,7.09,4.9,8.49,8.49,0,0,0,8-4.9Z"/><path class="cls-5" d="M415.22,390.63a20.94,20.94,0,0,1-3.05-.21,25.09,25.09,0,0,1-4.89-1.22c-3.85-1.45-7.42-4.21-10.91-8.45a52.49,52.49,0,0,1-10.6-22.4c-.56-3.35,0-9.57,1.12-23.2.6-7,1.05-10.17,2.36-14a43.51,43.51,0,0,1,7.1-13,1.54,1.54,0,1,1,2.42,1.91,40.55,40.55,0,0,0-6.59,12.09c-1.22,3.58-1.64,6.6-2.21,13.32-1.07,12.55-1.66,19.46-1.16,22.43a50.45,50.45,0,0,0,9.94,21c3.14,3.81,6.29,6.27,9.62,7.52a21.32,21.32,0,0,0,4.23,1.06c7.74,1.08,15.53-3,19.5-5.48a1.54,1.54,0,0,1,1.65,2.61C429.93,386.91,422.82,390.63,415.22,390.63Z"/><path class="cls-5" d="M445.47,379a1.55,1.55,0,0,1-.57-3,28.66,28.66,0,0,0,4.33-2.16,21.19,21.19,0,0,0,4.28-3.2,18.79,18.79,0,0,0,3.16-4.21,1.54,1.54,0,1,1,2.7,1.48,21.34,21.34,0,0,1-3.69,4.92,24.09,24.09,0,0,1-4.84,3.65,33,33,0,0,1-4.8,2.39A1.41,1.41,0,0,1,445.47,379Z"/><path class="cls-5" d="M462.19,370c-.31,0-.62,0-.92-.05a9.58,9.58,0,0,1-5.44-2.69,1.54,1.54,0,0,1,2.1-2.26,6.52,6.52,0,0,0,3.68,1.88c2.17.24,4.81-1,7-3.27,2.77-2.86,4.27-6.71,3.82-9.81-.15-1-.85-4.44-3.65-5.65a6.25,6.25,0,0,0-4.56,0,1.54,1.54,0,0,1-1.06-2.9,9.35,9.35,0,0,1,6.85,0c4.27,1.84,5.27,6.62,5.48,8,.59,4.07-1.19,8.82-4.66,12.39C468.22,368.44,465.11,370,462.19,370Z"/><path class="cls-5" d="M460.3,361.92a1.65,1.65,0,0,1-.57-.11,1.55,1.55,0,0,1-.86-2l2.28-5.7a1.55,1.55,0,1,1,2.87,1.15l-2.29,5.7A1.55,1.55,0,0,1,460.3,361.92Z"/><path class="cls-5" d="M408.68,317.13c-5.52,0-7.95-.86-8.37-2.91s1.48-3.23,3-4.28c.25-.18.47-.32.59-.43s.55-.56.89-.95A15.67,15.67,0,0,1,399.5,310a25.36,25.36,0,0,0-8.27,2.47c-.2.1-.47.25-.78.43-2.15,1.21-5.38,3.05-7.52,1.28-1.37-1.14-1.48-3.38-.38-7.73a24.79,24.79,0,0,1,7.87-12.12c3.26-2.89,6.66-3.79,10.45-4.6a1.89,1.89,0,1,1,.78,3.7c-3.36.71-6.15,1.44-8.73,3.73a21.4,21.4,0,0,0-6.71,10.21,17.93,17.93,0,0,0-.63,3.69,18,18,0,0,0,3-1.45c.39-.22.73-.41,1-.53a28.7,28.7,0,0,1,9.52-2.83,12.07,12.07,0,0,0,6.2-2.32l.39-.27c1.52-1.06,3.25-2.27,4.71-1a2.61,2.61,0,0,1,.87,1.94c.06,2.88-4.74,7.62-4.79,7.67a9.62,9.62,0,0,1-1,.77l-.19.13a29.17,29.17,0,0,0,3.86.19,46,46,0,0,0,14.74-2.69,1.89,1.89,0,1,1,1.25,3.56,49.39,49.39,0,0,1-16,2.9Z"/><path class="cls-5" d="M466,347.09a1.53,1.53,0,0,1-1.53-1.41,44.91,44.91,0,0,0-1.1-6.61,43.83,43.83,0,0,0-2.21-6.61,1.54,1.54,0,0,1,2.84-1.21,46.79,46.79,0,0,1,3.54,14.16,1.53,1.53,0,0,1-1.4,1.67Z"/><path class="cls-5" d="M474.57,354.81a1.53,1.53,0,0,1-1.12-2.6c.25-.27.56-.58.9-.93,1.54-1.56,3.85-3.91,4.85-6.16,3.33-7.51,2.63-14.67,2.12-16.59a1.54,1.54,0,1,1,3-.79c.62,2.35,1.43,10.26-2.27,18.63-1.23,2.77-3.79,5.36-5.48,7.08-.32.33-.61.62-.85.88A1.57,1.57,0,0,1,474.57,354.81Z"/><path class="cls-5" d="M526.46,339.1a1.46,1.46,0,0,1-.91-.3c-1.1-.81-2.69-2-4.58-3.43-7.34-5.58-13.39-10.55-17.17-13.74-4.41-3.71-6.87-5.94-8.5-7.41a24.37,24.37,0,0,0-5-3.85c-1.85-1.09-2.75-1.44-11.4-4.79l-8.31-3.23c-8.64-3.36-11.87-4.62-17.67-6.68-5.49-2-8.52-3-10.07-3.37a58.8,58.8,0,0,0-8.43-1.06,73.84,73.84,0,0,1-9.8-1.22c-5.23-1-5.66-1.11-5.87-1.18-.78-.25-1.47-.5-2.09-.73-1-.37-2-.76-2.33-.58a1.33,1.33,0,0,0-.42,1c0,.22.08.58.71,1.22a12.66,12.66,0,0,0,6,3c11,1.37,14.42,2.26,18.43,3.47a40.6,40.6,0,0,1,8.3,3.55,1.54,1.54,0,1,1-1.52,2.69,37.5,37.5,0,0,0-7.67-3.29c-3.42-1-6.38-1.91-18-3.37a15.7,15.7,0,0,1-7.76-3.87,4.82,4.82,0,0,1-1.57-3.35,4.25,4.25,0,0,1,1.85-3.6c1.57-1,3.18-.39,5.05.3.57.21,1.22.45,1.95.67.19.05,2.29.46,5.47,1.09a73.72,73.72,0,0,0,9.5,1.18,60.68,60.68,0,0,1,8.84,1.12A109.72,109.72,0,0,1,454,292.76c5.84,2.08,9.09,3.34,17.76,6.72L480,302.7c8.85,3.44,9.78,3.8,11.84,5a27.24,27.24,0,0,1,5.49,4.22c1.62,1.46,4.05,3.66,8.42,7.34,3.75,3.17,9.76,8.1,17.05,13.64,1.88,1.43,3.45,2.61,4.54,3.41a1.54,1.54,0,0,1-.92,2.78Z"/><path class="cls-5" d="M431.78,304.88h-.18A76.45,76.45,0,0,1,409.48,299c-4.16-1.84-8.47-4.25-8.89-8.08-.17-1.58.2-3.8,1.82-4.88,1.34-.89,2.77-.6,4.58-.23a16.63,16.63,0,0,1,3.78,1.26,1.54,1.54,0,0,1-1.32,2.79,13.84,13.84,0,0,0-3.07-1,5.22,5.22,0,0,0-2.26-.23,2.54,2.54,0,0,0-.46,2c.25,2.29,3.91,4.2,7.07,5.6A73,73,0,0,0,432,301.8a1.54,1.54,0,0,1-.18,3.08Z"/><path class="cls-5" d="M434.07,310.59l-.25,0A135.31,135.31,0,0,1,414.2,306a19.19,19.19,0,0,1-8.64-5,17.3,17.3,0,0,1-3.75-6.26,1.54,1.54,0,1,1,2.91-1,14.1,14.1,0,0,0,3.09,5.15,15.93,15.93,0,0,0,7.33,4.16,131.06,131.06,0,0,0,19.17,4.51,1.54,1.54,0,0,1-.24,3.07Z"/><path class="cls-5" d="M504.79,348.23a1.51,1.51,0,0,1-1.14-.51,110.38,110.38,0,0,0-7.88-7.87c-1.24-1.12-1.65-1.45-2.34-2s-1.8-1.41-4.47-3.7c-1-.86-3.29-2.44-7.84-5.59a7.84,7.84,0,0,0-1.69-1v0a8.59,8.59,0,0,1-.66,1.55A8.19,8.19,0,0,1,476,332c-3.7,2.59-8.85,1.71-10.34,1.38a19.78,19.78,0,0,1-2.82-.87c-1.18-.45-1.5-.53-2-.34-.19.08-.22.09-.76.75-.24.29-.54.66-.94,1.11a27.88,27.88,0,0,1-7.26,6,8.45,8.45,0,0,1-4.14,1.34c-1.2,0-3.4-.18-4.65-1.71-2.07-2.55.06-6.73,1-8.52a20.9,20.9,0,0,1,5.16-6.52c1.11-1,1.53-1.43,1.52-1.89,0-1.25-2-3.38-11.21-6.41a74.21,74.21,0,0,0-8.47-2.11c-2.69-.57-6-1.27-10.8-2.42-1.79-.44-6-1.45-8.84-5.12a12.14,12.14,0,0,1-1.62-2.74,1.55,1.55,0,1,1,2.84-1.22,9.37,9.37,0,0,0,1.21,2.06c2.2,2.82,5.54,3.63,7.13,4,4.72,1.14,8.05,1.84,10.72,2.4a76.9,76.9,0,0,1,8.8,2.19c6.55,2.16,13.26,5,13.33,9.31,0,1.9-1.22,3-2.54,4.22a17.78,17.78,0,0,0-4.47,5.63c-1.85,3.63-1.62,4.8-1.32,5.17a2.86,2.86,0,0,0,2.19.57,5.61,5.61,0,0,0,2.71-.95,24.73,24.73,0,0,0,6.43-5.37c.37-.42.64-.76.86-1a4.68,4.68,0,0,1,2-1.67,5.29,5.29,0,0,1,4.21.32,17.3,17.3,0,0,0,2.4.75c.51.11,5.1,1.06,7.91-.9a5.39,5.39,0,0,0,1.82-1.77,5.57,5.57,0,0,0,.41-1,3,3,0,0,1,1.29-1.86c1.81-1.06,4,.47,5.08,1.2,4.66,3.23,7,4.85,8.11,5.81,2.63,2.24,3.64,3,4.37,3.61a31.59,31.59,0,0,1,2.51,2.12,112.4,112.4,0,0,1,8.1,8.09,1.55,1.55,0,0,1-1.15,2.58Z"/><path class="cls-5" d="M475.13,315.15a1.47,1.47,0,0,1-.46-.07c-1.16-.37-2.33-.75-3.48-1.16a100.8,100.8,0,0,1-17.38-8.11,1.54,1.54,0,0,1,1.57-2.66A97.89,97.89,0,0,0,472.22,311c1.14.4,2.26.77,3.37,1.12a1.55,1.55,0,0,1-.46,3Z"/><path class="cls-5" d="M479.6,305a1.75,1.75,0,0,1-1-.3c-.94-.62-3.46-2.82-6.91-5.87-1.24-1.1-2.36-2.08-3.05-2.67-5-4.26-9-7.63-10-13.16a14.88,14.88,0,0,1-.12-5.34,4.46,4.46,0,0,0-1.67,2.53c-.17,1.33.95,2.92,1.68,4s1.81,2.58.46,3.86-3.46-.07-4.92-1.13l-.09-.07c-3-2.14-6-2.64-12.7-3.72a51.67,51.67,0,0,0-16.9,0c-2.83.51-8.68,3.08-12.18,4.62-1.11.49-2,.88-2.55,1.09a1.82,1.82,0,0,1-1.34-3.38c.5-.2,1.36-.58,2.42-1.05,3.88-1.71,9.74-4.28,13-4.87a55.5,55.5,0,0,1,18.12,0c5.21.85,8.63,1.4,11.59,2.8a6.32,6.32,0,0,1-.21-2.58c.65-5.1,7.84-7.94,9.14-8.25a2,2,0,0,1,2.25.72,1.91,1.91,0,0,1-.6,2.71,5.53,5.53,0,0,0-.83.81c-1.17,1.45-1.52,3.79-1,6.6.83,4.27,4.18,7.13,8.82,11.08.7.59,1.84,1.59,3.1,2.71,2.27,2,5.7,5,6.5,5.56a1.82,1.82,0,0,1-1,3.34Z"/><path class="cls-5" d="M504.79,350.51a1.54,1.54,0,0,1-.08-3.08,35.74,35.74,0,0,0,17.5-5.46,34,34,0,0,0,5.45-4.37,1.55,1.55,0,1,1,2.17,2.2,36.65,36.65,0,0,1-6,4.76,38.77,38.77,0,0,1-19,5.95Z"/><path class="cls-5" d="M511.63,360.78a1.55,1.55,0,0,1-.07-3.09,35.67,35.67,0,0,0,17.49-5.46,34,34,0,0,0,5.46-4.36,1.54,1.54,0,1,1,2.16,2.2,37.2,37.2,0,0,1-5.95,4.76,38.84,38.84,0,0,1-19,5.95Z"/><path class="cls-5" d="M553.84,424.66a1.52,1.52,0,0,1-.84-.25c-6.75-4.4-12.33-8.27-15-10.35a14.44,14.44,0,0,1-5-7.53c-.85-2.81-3.44-6.31-6.44-10.35l-1.34-1.81c-8.32-11.31-18.42-26.88-20.74-33.48-.3-.83-.65-1.64-1-2.49a34,34,0,0,1-1.28-3.26l-.22-.72c-.49-1.59-.78-2.45-1.59-3.13l-.24-.2a4.43,4.43,0,0,1-1.25-1.36,5.53,5.53,0,0,1-.11-4.69,1.54,1.54,0,1,1,2.91,1,2.88,2.88,0,0,0-.11,2.15,1.49,1.49,0,0,0,.46.45l.34.27a8.75,8.75,0,0,1,2.54,4.59l.21.69a31.81,31.81,0,0,0,1.17,3c.38.87.77,1.76,1.1,2.69,1.95,5.55,10.69,19.6,20.32,32.68l1.33,1.8c3.17,4.28,5.92,8,6.89,11.22a12.09,12.09,0,0,0,2,4.06,11.36,11.36,0,0,0,2,2c2.5,2,8.14,5.9,14.71,10.19a1.54,1.54,0,0,1-.85,2.83Z"/><path class="cls-5" d="M389.57,687a1.54,1.54,0,0,1-.34-3,46.87,46.87,0,0,1,11.8-1.18c1.87.06,3.38.22,4.71.37,2.47.27,4.1.45,6.13-.28a14.91,14.91,0,0,0,6.11-5.14c3.25-4.58,12-28.27,34.46-135.53l.65-3.07c.4-1.93,10.23-47.44,35.87-69.3a51.63,51.63,0,0,1,4.72-3.54,49.26,49.26,0,0,1,17.65-7.07c5.18-1,13.88-2.18,24-3.5,15.27-2,34.28-4.48,49.53-7.75,22.35-4.81,26.4-9.26,26.83-11.48a27.49,27.49,0,0,0,0-5.29,35.57,35.57,0,0,0-3.29-12.05c-5.44-12.26-8.17-18.42-12.43-24.87-8.76-13.29-17.76-21.65-25.71-29a136.4,136.4,0,0,1-11.83-11.89,41.78,41.78,0,0,0-3.88-3.88,46.65,46.65,0,0,1-4.1-4.1l-.09-.11a8,8,0,0,0-3.74-2.83,6.74,6.74,0,0,0-3.49,0c-2.06,1.31-4,1.71-5.65,1.18-1.29-.41-1.93-1.2-3.1-2.63l-1-1.28c-1.95-2.33-3.12-3.73-4-4.15a6.33,6.33,0,0,0-4.58.07,1.54,1.54,0,0,1-.95-2.94,9.16,9.16,0,0,1,6.82.07c1.54.71,2.81,2.22,5.1,5,.43.51.78.94,1.08,1.31,1,1.28,1.25,1.51,1.62,1.63,1,.32,2.33-.34,3.25-.95a1.37,1.37,0,0,1,.46-.21,9.8,9.8,0,0,1,5.4,0,10.77,10.77,0,0,1,5.21,3.79l.09.11a41.78,41.78,0,0,0,3.83,3.81,45.61,45.61,0,0,1,4.16,4.18A132.84,132.84,0,0,0,572.29,363c8.07,7.5,17.22,16,26.19,29.6,4.4,6.67,7.16,12.9,12.67,25.31A38.76,38.76,0,0,1,614.7,431a30.67,30.67,0,0,1,0,6.12c-2.06,10.8-37,16.23-79,21.71-10,1.31-18.67,2.44-23.75,3.47a46.24,46.24,0,0,0-16.57,6.62,50.61,50.61,0,0,0-4.41,3.31c-24.83,21.17-34.76,67.12-34.85,67.58l-.64,3.07C443.65,599.38,428,669,420.49,679.54a17.73,17.73,0,0,1-7.58,6.27c-2.7,1-4.82.73-7.5.44-1.28-.14-2.72-.3-4.48-.35a43.84,43.84,0,0,0-11,1.1A1.39,1.39,0,0,1,389.57,687Z"/><path class="cls-5" d="M445,398.61a1.52,1.52,0,0,1-.59-.12,1.54,1.54,0,0,1-.83-2c.54-1.3,1.51-3.7,2.65-6.53,2.45-6.1,5.8-14.44,7.47-18a1.54,1.54,0,1,1,2.8,1.3c-1.63,3.51-5,11.81-7.41,17.87-1.14,2.85-2.11,5.26-2.66,6.57A1.55,1.55,0,0,1,445,398.61Z"/><path class="cls-5" d="M398.7,401.85a1.61,1.61,0,0,1-.64-.14,1.54,1.54,0,0,1-.76-2,68,68,0,0,0,4.46-13.38,1.54,1.54,0,1,1,3,.67,70.09,70.09,0,0,1-4.67,14A1.55,1.55,0,0,1,398.7,401.85Z"/><path class="cls-5" d="M408.79,419a1.53,1.53,0,0,1-1.25-.64c-.84-1.17-1.76-2.36-2.64-3.5a52.94,52.94,0,0,1-6.34-9.59c-.29-.61-.57-1.3-.86-2-1.06-2.58-2.26-5.51-4.35-6.27-.42-.16-2.31,0-9.26,8.2l-.82.95a6.51,6.51,0,0,1-3.73,2.53,1.55,1.55,0,0,1-.47-3.06c.63-.09,1.3-.85,1.89-1.51l.77-.91c5.33-6.29,9.54-10.24,12.67-9.11,3.38,1.23,4.92,5,6.15,8,.28.67.54,1.31.8,1.87a50.82,50.82,0,0,0,6,9c.9,1.17,1.83,2.37,2.7,3.58a1.55,1.55,0,0,1-.35,2.16A1.58,1.58,0,0,1,408.79,419Z"/><path class="cls-5" d="M379.31,408.69a1.59,1.59,0,0,1-.67-.15c-3.82-1.81-7.68-3.74-11.46-5.73-6.82-3.58-10.27-5.7-14.64-8.39-3.23-2-6.9-4.24-12.79-7.61-6.22-3.56-10.33-5.73-13.06-7.17-4.93-2.6-6.1-3.22-8-5.82-.88-1.23-1.68-2.57-2.45-3.87-2.21-3.69-4.29-7.19-8-8.07a8.66,8.66,0,0,0-3.89,0,1.54,1.54,0,0,1-.65-3,11.87,11.87,0,0,1,5.24,0c5,1.19,7.56,5.41,10,9.5.77,1.3,1.5,2.53,2.31,3.66,1.43,2,2.16,2.38,6.89,4.88,2.75,1.45,6.89,3.64,13.16,7.22,5.93,3.39,9.62,5.66,12.87,7.66,4.32,2.66,7.73,4.76,14.46,8.29,3.74,2,7.56,3.88,11.35,5.67a1.55,1.55,0,0,1-.66,2.94Z"/><path class="cls-5" d="M242.42,282.07a1.56,1.56,0,0,1-1.4-.88L228.47,255a1.55,1.55,0,1,1,2.79-1.33l12.55,26.24a1.54,1.54,0,0,1-1.39,2.21Z"/><path class="cls-5" d="M309.72,369.91a1.56,1.56,0,0,1-1.23-.61c-.44-.58-1.78-2.34-3.44-4.59-8.69-11.82-16.51-24.4-23.41-35.5-10-16.09-18.66-30-25.15-33.65l-.61-.33a14,14,0,0,1-5.62-4.73,16.79,16.79,0,0,1-2.09-4.89c-.52-1.73-.89-3-2.09-3.83a5,5,0,0,0-2.63-.86,1.53,1.53,0,0,1-1.43-1.64,1.56,1.56,0,0,1,1.64-1.44,8.14,8.14,0,0,1,4.21,1.42c2.06,1.47,2.67,3.5,3.25,5.47a14.11,14.11,0,0,0,1.71,4.06,11.16,11.16,0,0,0,4.5,3.71l.67.37c7.19,4.05,15.6,17.58,26.26,34.71,6.87,11.05,14.66,23.57,23.28,35.3,1.64,2.23,3,4,3.41,4.54a1.55,1.55,0,0,1-1.23,2.49Z"/><path class="cls-5" d="M219.6,290.05a1.53,1.53,0,0,1-1.24-.62c-10.28-13.9-16.52-26.79-18.53-38.3-.45-2.55-1-6.81-1.16-8.06-1-8.28-1-11-.87-14.16a94.52,94.52,0,0,0-.27-11c-.06-.83-.5-8.24,2.73-11.47l2.28-2.28c1.09-1.09,3.55-4.36,4.41-5.52,2.39-3.27,7.07-6.64,11.61-6.34,1.33.09,3.19,1.28,8.72,4.81,2.94,1.88,5.27,3.37,5.27,5.86a4.75,4.75,0,0,1-1.6,3.38,1.54,1.54,0,1,1-2.17-2.19,2,2,0,0,0,.68-1.19c0-.74-1.74-1.92-3.85-3.26-3.67-2.34-6.56-4.2-7.29-4.33-3.57-.23-7.29,2.91-8.88,5.08-.14.18-3.24,4.4-4.72,5.88l-2.28,2.28c-1.9,1.9-2,7.32-1.84,9.07a96.6,96.6,0,0,1,.29,11.33c-.1,3.15-.17,5.64.85,13.68.15,1.23.69,5.43,1.13,7.92,1.9,10.88,8.12,23.67,18,37a1.55,1.55,0,0,1-.32,2.16A1.58,1.58,0,0,1,219.6,290.05Z"/><path class="cls-5" d="M213.9,211.34a1.55,1.55,0,0,1-.94-2.78,4.09,4.09,0,0,0,.84-.82,6.1,6.1,0,0,0,.56-1,7.36,7.36,0,0,1,1.21-1.93,5.18,5.18,0,0,1,.74-.74,1.54,1.54,0,0,1,1.7-.22l2.28,1.14a1.54,1.54,0,1,1-1.38,2.76l-1.25-.62a6,6,0,0,0-.51.93,8.59,8.59,0,0,1-.87,1.51,7.42,7.42,0,0,1-1.45,1.46A1.55,1.55,0,0,1,213.9,211.34Z"/><path class="cls-5" d="M229.87,213.62A1.54,1.54,0,0,1,228.8,211a2,2,0,0,0,.66-1.24c0-.87-.87-1.67-1.45-2-1.31-.69-3.12-.09-6.74,1.23-1.1.39-1.8.71-2.48,1a29,29,0,0,1-3.28,1.27,36,36,0,0,1-4.76,1.2,1.57,1.57,0,0,1-1.8-1.25,1.54,1.54,0,0,1,1.25-1.79,34.31,34.31,0,0,0,4.36-1.09,24.83,24.83,0,0,0,3-1.16c.7-.31,1.49-.67,2.69-1.11,4-1.45,6.65-2.4,9.23-1.05a5.5,5.5,0,0,1,3.11,4.86,5,5,0,0,1-1.62,3.32A1.52,1.52,0,0,1,229.87,213.62Z"/><path class="cls-5" d="M211.61,219.32a1.54,1.54,0,0,1-.4-3,28.78,28.78,0,0,0,3.25-1.08,27.54,27.54,0,0,0,3.47-1.7l.94-.51c2.63-1.4,8.78-4.68,12-2.13a5.07,5.07,0,0,1,1.71,3.28A6,6,0,0,1,231,218.8a1.54,1.54,0,0,1-2.32-2,3,3,0,0,0,.77-2.2,2.08,2.08,0,0,0-.58-1.28c-.6-.48-2.5-.79-8.57,2.44-.31.16-.6.32-.89.49a30.85,30.85,0,0,1-3.83,1.86,30.39,30.39,0,0,1-3.6,1.2A1.33,1.33,0,0,1,211.61,219.32Z"/><path class="cls-5" d="M227.58,233a1.54,1.54,0,0,1-.2-3.07,1.79,1.79,0,0,0,1.22-.5,2.54,2.54,0,0,0-.06-.87,14.28,14.28,0,0,1-.22-2.85,16,16,0,0,1,.24-2.27c.15-1,.15-1.17,0-1.46a2,2,0,0,0-.65-.63c-1-.68-2.58-.33-4.46.19a14.73,14.73,0,0,0-2.52,1c-.73.33-1.63.75-3,1.28-1.16.44-2.35.83-3.53,1.18a1.55,1.55,0,1,1-.87-3c1.11-.32,2.23-.69,3.32-1.1,1.32-.5,2.13-.87,2.84-1.19a17.61,17.61,0,0,1,3-1.14c2-.54,4.64-1.28,6.95.19a4.93,4.93,0,0,1,1.64,1.66,4.8,4.8,0,0,1,.41,3.5,12.91,12.91,0,0,0-.2,1.89,10.86,10.86,0,0,0,.18,2.28,3.88,3.88,0,0,1-.46,3.13,4.61,4.61,0,0,1-3.34,1.78Z"/><path class="cls-5" d="M212.76,244.42a1.54,1.54,0,0,1-1-2.72,8.7,8.7,0,0,0,1-1,9.55,9.55,0,0,0,1.95-5.45,11.13,11.13,0,0,1,1.34-4.64c1.52-2.42,4.61-3.82,9.19-4.14a1.54,1.54,0,0,1,.21,3.08c-3.53.25-5.82,1.16-6.78,2.7a8.48,8.48,0,0,0-.9,3.41,12.53,12.53,0,0,1-2.65,7,11.93,11.93,0,0,1-1.33,1.33A1.55,1.55,0,0,1,212.76,244.42Z"/><path class="cls-5" d="M226.44,257a1.55,1.55,0,0,1-.18-3.08,7,7,0,0,0,2.81-.93c2.64-1.59,4.39-5.74,5-21.55,0-.78.05-1.7.09-2.73.16-5.16.4-13,1-20.16.34-3.77.72-6.68,2.48-9.76a23.16,23.16,0,0,1,2.32-3.25,11.8,11.8,0,0,0,.92-1.21,6.47,6.47,0,0,0-4.82-.16,6.94,6.94,0,0,0-2.73,1.91,9.48,9.48,0,0,1-4.18,2.68,10.12,10.12,0,0,1-5.38,0,1.54,1.54,0,0,1,.76-3,7.12,7.12,0,0,0,3.75,0,6.57,6.57,0,0,0,2.89-1.93,9.7,9.7,0,0,1,3.89-2.62c3.27-1.11,7.82-.46,8.79,2.05.61,1.61-.41,2.87-1.5,4.19a19.44,19.44,0,0,0-2,2.84c-1.46,2.54-1.76,4.9-2.08,8.49-.64,7.11-.89,14.86-1.05,20,0,1-.06,1.95-.09,2.74-.62,17.36-2.74,21.86-6.45,24.09a10.08,10.08,0,0,1-4,1.35Z"/><path class="cls-5" d="M220.74,304.88a1.53,1.53,0,0,1-1.41-.92c-2.61-6-2.89-9.75-.86-11.94,1.61-1.74,3.95-1.56,6.43-1.37a22.66,22.66,0,0,0,6.93-.23,19.8,19.8,0,0,0,9.52-5.31,1.54,1.54,0,1,1,2.13,2.23,22.92,22.92,0,0,1-11,6.1,25.6,25.6,0,0,1-7.81.29c-2.13-.17-3.35-.23-3.93.39s-1.3,2.39,1.42,8.6a1.53,1.53,0,0,1-.79,2A1.5,1.5,0,0,1,220.74,304.88Z"/><path class="cls-5" d="M323.41,474.86a1.56,1.56,0,0,1-1.26-.65c-6.85-9.65-13.75-19.23-20.52-28.51-4.51-6.17-9-12.25-13.37-18.2-20-27.15-37.28-50.61-46.07-67.55-.25-.48-6.11-11.8-12.59-26.32-1.95-4.37-2.34-5.4-2.59-6.09-.17-.44-.26-.69-.82-1.87-1.15-2.41-2.26-4.53-3.24-6.39-3.08-5.86-5.11-9.73-3.68-14.14a10.35,10.35,0,0,1,1.34-2.68,1.55,1.55,0,0,1,2.54,1.76,7,7,0,0,0-.94,1.88c-1,3.17.66,6.39,3.47,11.74,1,1.89,2.13,4,3.3,6.51a22.77,22.77,0,0,1,.92,2.11c.23.61.61,1.63,2.52,5.91,5.15,11.55,10.43,22.16,12.51,26.15,8.68,16.74,25.89,40.1,45.81,67.15,4.39,5.95,8.87,12,13.38,18.21,6.78,9.29,13.69,18.89,20.55,28.54a1.55,1.55,0,0,1-1.26,2.44Z"/><path class="cls-5" d="M235.24,309.81a22,22,0,0,1-8.24-1.62,1.55,1.55,0,0,1,1.17-2.86,18.12,18.12,0,0,0,21-5.26,1.54,1.54,0,0,1,2.38,2,21.59,21.59,0,0,1-12.3,7.38A20.9,20.9,0,0,1,235.24,309.81Z"/><path class="cls-5" d="M331.4,454.32h-.21a1.55,1.55,0,0,1-1.33-1.74A126.44,126.44,0,0,0,331,436.79a132.11,132.11,0,0,0-11.28-54.12,1.54,1.54,0,1,1,2.83-1.23,135.14,135.14,0,0,1,11.54,55.38A130.5,130.5,0,0,1,332.92,453,1.53,1.53,0,0,1,331.4,454.32Z"/><path class="cls-5" d="M296,562.69a1.51,1.51,0,0,1-1-.33,1.54,1.54,0,0,1-.25-2.17,94.2,94.2,0,0,0,5.61-7.86c.13-.19,12.56-20.08,19.17-63.28l.42-2.69c.24-1.6.49-3.21.73-4.81s.42-2.82.55-3.73c.3-2,.39-2.67.6-3.67a47.13,47.13,0,0,1,3.53-10.62,1.55,1.55,0,0,1,2.8,1.31,43.65,43.65,0,0,0-3.31,9.92c-.18.92-.28,1.57-.56,3.51-.14.91-.31,2.1-.56,3.73s-.48,3.22-.73,4.83l-.42,2.69C315.93,533.45,303.56,553.18,303,554a98,98,0,0,1-5.8,8.11A1.55,1.55,0,0,1,296,562.69Z"/><path class="cls-5" d="M255,612.89a1.56,1.56,0,0,1-1.51-1.22,12,12,0,0,1,0-5.23,13,13,0,0,1,3.8-6.42,72.25,72.25,0,0,0,7.31-9,124.12,124.12,0,0,1,23.64-25.37,164.39,164.39,0,0,1,19.57-13.82,1.55,1.55,0,0,1,1.6,2.65,159.48,159.48,0,0,0-19.21,13.56,121,121,0,0,0-23.1,24.8,74.74,74.74,0,0,1-7.6,9.33,10.22,10.22,0,0,0-3,5,9,9,0,0,0,0,3.89,1.53,1.53,0,0,1-1.19,1.83A1.17,1.17,0,0,1,255,612.89Z"/><path class="cls-5" d="M393.57,678.14q-3.21,0-6.39-.23c-40.56-3-72.57-34.17-78.57-40.4-2.09-2.16-4-4.31-5.89-6.38l-.5-.56c-.93-1-.73-2.44,1.69-11.57.3-1.14.66-2.49,1-3.8-.41.66-.8,1.31-1.15,1.88-3.75,6.19-4.68,7.54-6,7.69a1.66,1.66,0,0,1-1.41-.48,50.31,50.31,0,0,0-19.11-12.64,56.77,56.77,0,0,0-16.66-3.33,1.54,1.54,0,0,1-1.47-1.61,1.57,1.57,0,0,1,1.62-1.47,59.58,59.58,0,0,1,17.57,3.51,52.33,52.33,0,0,1,19.23,12.37c.95-1.3,2.48-3.83,3.57-5.64,3.76-6.2,4.69-7.55,6-7.68a1.68,1.68,0,0,1,1.42.53c.95,1,.75,2.41-1.65,11.46a81.22,81.22,0,0,0-2.09,9l.22.25c1.85,2,3.76,4.17,5.81,6.3C316.7,641.45,348,672,387.4,674.83a84.57,84.57,0,0,0,12.33,0,1.54,1.54,0,0,1,.22,3.08Q396.77,678.14,393.57,678.14Z"/><path class="cls-5" d="M339,580.36a4.6,4.6,0,0,1-2.81-.86c-1.68-1.26-2.27-3.68-1.74-7.17a1.54,1.54,0,1,1,3.05.46c-.32,2.16-.12,3.74.54,4.24s1.58.31,3.14-.23c4.7-1.62,33.47-12.16,77.54-28.5a1.54,1.54,0,1,1,1.07,2.89c-44.09,16.35-72.89,26.91-77.61,28.53A9.7,9.7,0,0,1,339,580.36Z"/><path class="cls-5" d="M385,614a1.54,1.54,0,0,1-1.27-2.42l29.66-43.35a1.54,1.54,0,1,1,2.54,1.75l-29.66,43.35A1.54,1.54,0,0,1,385,614Z"/><path class="cls-5" d="M445.71,479.18A1.63,1.63,0,0,1,445,479a59.43,59.43,0,0,0-12.31-4.34c-1.75-.41-3.53-.65-5.42-.9a47.85,47.85,0,0,1-7.34-1.39,1.7,1.7,0,1,1,1-3.25,43.91,43.91,0,0,0,6.81,1.27c1.89.25,3.83.51,5.75,1a63.15,63.15,0,0,1,13,4.59,1.7,1.7,0,0,1-.73,3.23Z"/><path class="cls-5" d="M385.28,431.36a1.33,1.33,0,0,1-.28,0,1.51,1.51,0,0,1-1.1-.83c-2.1-4.22-2.5-8.89-2.89-13.41-.17-1.86-.32-3.62-.58-5.34a1.54,1.54,0,0,1,1.29-1.76,1.55,1.55,0,0,1,1.76,1.29c.28,1.83.44,3.72.6,5.54a42.46,42.46,0,0,0,1.75,10.32c.76-.77,1.51-1.56,2.24-2.33,3.18-3.34,6.46-6.8,11.06-8.77a1.55,1.55,0,0,1,1.22,2.84c-4,1.72-6.94,4.8-10,8.06-1.27,1.34-2.58,2.72-4,4A1.57,1.57,0,0,1,385.28,431.36Z"/><path class="cls-5" d="M432.46,436.48a1.54,1.54,0,0,1-1.28-.68c-2.46-3.65-4.5-7.18-6.29-10.29a58.6,58.6,0,0,0-4.37-7,1.54,1.54,0,1,1,2.37-2,59.19,59.19,0,0,1,4.67,7.39c1.6,2.78,3.39,5.89,5.49,9.09,5.64-2.51,9.69-9.14,13-14.53,1.88-3.08,3.5-5.73,5.15-7.17a1.54,1.54,0,1,1,2,2.33c-1.29,1.12-2.87,3.71-4.54,6.45C444.9,426.29,440.22,434,433,436.4A1.67,1.67,0,0,1,432.46,436.48Z"/><path class="cls-5" d="M213.9,822.79a1.59,1.59,0,0,1-1.06-.41c-31.86-29.7-57.79-57.55-63.06-67.73-4.68-9.06-3.62-16.59-3.57-16.91a22.58,22.58,0,0,1,2.44-7.33c18.14-34.54,37.74-53.82,37.93-54q6.84-6.64,14.25-13.9c16.49-16.11,35.17-34.37,56.49-54.56a1.55,1.55,0,1,1,2.13,2.24c-21.31,20.17-40,38.42-56.46,54.53l-14.26,13.91c-.19.18-19.46,19.15-37.35,53.22a19.81,19.81,0,0,0-2.12,6.36,27.43,27.43,0,0,0,3.26,15c4.19,8.1,25.52,32.49,62.43,66.89a1.54,1.54,0,0,1-1,2.67Z"/><path class="cls-5" d="M207.05,739.51a1.54,1.54,0,0,1-.35-3,193.17,193.17,0,0,0,47.53-18.11,191,191,0,0,0,21.5-13.58,1.55,1.55,0,0,1,1.82,2.5,195.25,195.25,0,0,1-70.14,32.19A1.47,1.47,0,0,1,207.05,739.51Z"/><path class="cls-5" d="M208.19,748.64a1.55,1.55,0,0,1-.31-3.06c4.34-.89,12.78-3.93,13.62-9a6,6,0,0,0,0-1.79,1.54,1.54,0,1,1,3.05-.48,8.87,8.87,0,0,1,0,2.77c-1.36,8.26-14.54,11.22-16,11.53A1.63,1.63,0,0,1,208.19,748.64Z"/><path class="cls-5" d="M241.28,769.17a1.53,1.53,0,0,1-1.35-.79,157.63,157.63,0,0,0-13.56-20.33c-1.81-2.3-3.71-4.58-5.65-6.78a1.54,1.54,0,1,1,2.32-2c2,2.24,3.91,4.57,5.76,6.91a160.1,160.1,0,0,1,13.82,20.74A1.54,1.54,0,0,1,242,769,1.58,1.58,0,0,1,241.28,769.17Z"/><path class="cls-5" d="M150,939.15a1.56,1.56,0,0,1-1.4-.89c-2.07-4.46-3.6-11.1-1.05-15.17a9.66,9.66,0,0,1,2.34-2.44l.29-.22c3.42-2.73,5.25-5.58,7.38-8.87.46-.72.93-1.44,1.43-2.19a127.91,127.91,0,0,1,7.91-10.32,236.8,236.8,0,0,0,18.31-25c9.67-15.1,16.65-26,25-42.09,4-7.66,6.12-12.32,8.59-17.72,1.17-2.55,2.4-5.24,3.93-8.47a484.75,484.75,0,0,1,27.17-49.41c9.55-15.64,17.81-29.14,25.24-50.81a236.53,236.53,0,0,0,6.8-23.8,1.54,1.54,0,1,1,3,.69,242.74,242.74,0,0,1-6.89,24.11c-7.54,22-15.88,35.63-25.53,51.42a482.21,482.21,0,0,0-27,49.13c-1.52,3.21-2.75,5.89-3.91,8.43-2.49,5.43-4.65,10.13-8.67,17.86-8.43,16.2-15.45,27.16-25.16,42.32A238.69,238.69,0,0,1,169.29,901a125.59,125.59,0,0,0-7.73,10.07c-.49.73-.95,1.45-1.4,2.15-2.18,3.38-4.23,6.57-8,9.61l-.31.24a6.25,6.25,0,0,0-1.63,1.65c-1.76,2.81-.6,8.3,1.23,12.22a1.54,1.54,0,0,1-.74,2A1.58,1.58,0,0,1,150,939.15Z"/><path class="cls-5" d="M284.62,677.91a1.49,1.49,0,0,1-.47-.07,1.54,1.54,0,0,1-1-2c.83-2.58,1.59-5.23,2.25-7.88.91-3.68,1.36-6.3,1.72-8.4.19-1.1.36-2.06.55-3A40.09,40.09,0,0,1,296,640a1.54,1.54,0,1,1,2.41,1.93,37.13,37.13,0,0,0-7.68,15.33c-.19.86-.35,1.78-.53,2.83-.37,2.15-.83,4.83-1.77,8.62-.67,2.73-1.45,5.45-2.31,8.1A1.54,1.54,0,0,1,284.62,677.91Z"/><path class="cls-5" d="M284.62,655.1h0a1.55,1.55,0,0,1-1.54-1.55c0-1,0-2.63,0-4.55s0-3.21,0-4a15.78,15.78,0,0,1,0-1.89c.22-2.46.93-4.44,2.36-8.38.71-1.94,1.49-3.89,2.32-5.79a1.54,1.54,0,1,1,2.83,1.24c-.81,1.84-1.56,3.73-2.24,5.61-1.34,3.69-2,5.54-2.2,7.59a15.4,15.4,0,0,0,0,1.59c0,.75,0,2,0,4v4.58A1.56,1.56,0,0,1,284.62,655.1Z"/><path class="cls-5" d="M284.62,803.4a1.55,1.55,0,0,1-.82-2.86c1.13-.7,2.25-1.45,3.35-2.23a77.11,77.11,0,0,0,17.67-17.59l.24-.32a58.75,58.75,0,0,1,7.06-8.08c3.53-3.5,8.86-8.79,22.66-25.08,21.63-25.54,42.93-53.14,57-71.8a1.55,1.55,0,0,1,2.47,1.86c-14.08,18.69-35.42,46.34-57.1,71.93-13.88,16.4-19.27,21.75-22.83,25.28a55.73,55.73,0,0,0-6.76,7.73l-.24.32a79.93,79.93,0,0,1-18.36,18.27c-1.15.81-2.32,1.6-3.5,2.33A1.53,1.53,0,0,1,284.62,803.4Z"/><path class="cls-5" d="M182.49,956.52a17.1,17.1,0,0,1-3.09-.29,1.54,1.54,0,1,1,.54-3c2.88.51,5.19.2,6.86-.91a7.6,7.6,0,0,0,2.81-3.76c1.9-4.91,18.52-26,54.95-72.26l.06-.08c10.47-13.29,19.72-27.86,28.67-41.94,5.79-9.12,11.78-18.55,18-27.58a11.12,11.12,0,0,0,2-5,11.45,11.45,0,0,0-1-6,1.54,1.54,0,1,1,2.82-1.24,14.42,14.42,0,0,1,1.26,7.65,14,14,0,0,1-2.54,6.38c-6.24,9-12.21,18.39-18,27.48-9,14.15-18.28,28.79-28.84,42.2l-.07.08c-34,43.2-52.76,67-54.46,71.39a10.73,10.73,0,0,1-4,5.29A10.61,10.61,0,0,1,182.49,956.52Z"/><path class="cls-5" d="M183.1,949.41a1.52,1.52,0,0,1-1.39-.86,56.32,56.32,0,0,0-10-14.44,19.26,19.26,0,0,0-5.29-4.25,18.4,18.4,0,0,0-12.63-1,1.54,1.54,0,0,1-.73-3,21.47,21.47,0,0,1,14.75,1.26,22.11,22.11,0,0,1,6.12,4.87,59.3,59.3,0,0,1,10.54,15.22,1.54,1.54,0,0,1-.71,2.07A1.63,1.63,0,0,1,183.1,949.41Z"/><path class="cls-5" d="M186.52,939.15a1.55,1.55,0,0,1-1.47-1.07,24.17,24.17,0,0,0-11.78-13.93,23.92,23.92,0,0,0-15-2.14,1.55,1.55,0,0,1-.56-3A26.59,26.59,0,0,1,188,937.13a1.54,1.54,0,0,1-1,1.94A1.61,1.61,0,0,1,186.52,939.15Z"/><path class="cls-5" d="M142.92,948.2a1.55,1.55,0,0,1-1-2.73c2.2-1.85,7.93-7.39,13.55-18.82a1.55,1.55,0,1,1,2.77,1.37c-5.88,12-12,17.84-14.33,19.81A1.51,1.51,0,0,1,142.92,948.2Z"/><path class="cls-5" d="M168.27,982.5h-.18a1.56,1.56,0,0,1-1.36-1.71A132,132,0,0,1,169,966.93c1.17-5.24,2.17-9.76,4.67-15.15a56,56,0,0,1,4.69-8.21,1.55,1.55,0,1,1,2.54,1.76,52.07,52.07,0,0,0-4.43,7.75c-2.36,5.09-3.28,9.25-4.46,14.52a128.34,128.34,0,0,0-2.25,13.52A1.55,1.55,0,0,1,168.27,982.5Z"/><path class="cls-5" d="M270.93,845.6a1.54,1.54,0,0,1-.85-2.82c7.76-5.18,14.52-9.31,20.65-12.63,1.4-.75,3.41-1.84,3.79-3.54.6-2.64-2.83-6.22-6.24-8.68a1.54,1.54,0,0,1,1.81-2.5c3.25,2.35,8.53,7,7.45,11.86-.69,3.07-3.56,4.62-5.28,5.55-6.11,3.3-12.79,7.38-20.47,12.51A1.57,1.57,0,0,1,270.93,845.6Z"/><path class="cls-5" d="M301.73,842.18a1.55,1.55,0,0,1-1.09-.45l-9.12-9.13a1.53,1.53,0,0,1,0-2.18,1.55,1.55,0,0,1,2.18,0l9.13,9.13a1.55,1.55,0,0,1,0,2.18A1.57,1.57,0,0,1,301.73,842.18Z"/><path class="cls-5" d="M248.9,958.57c-4.78,0-9-8.81-9-8.9-4.43-9.4,4.05-25.15,13-41.82,8.41-15.63,17.11-31.78,12.19-39-.2-.28-.44-.6-.71-.95-1.47-1.9-3.68-4.77-2.95-8.23h0c.69-3.3,4.36-5.33,11-9,7.19-4,9.62-4.3,11.59-3.51a6.47,6.47,0,0,1,3.27,3.22c.48.86.69,1.18,1.1,1.28,2.09.54,6.2-4.33,9.85-8.63,1.34-1.59,2.38-2.91,3.22-4,2.21-2.83,3.43-4.38,5.84-4.54,1.24-.09,2.22.15,9.09,6.07,5.88,5.06,7.83,7.21,9.38,9.4a23.41,23.41,0,0,1,1.36,2.15,4.75,4.75,0,0,0,.8,1.13,12.3,12.3,0,0,0,4.44,3,25.88,25.88,0,0,1,4.45,2.52c2.59,1.87,4.29,3.6,5,5.13C345,870.24,336,879.8,328,888.23c-.81.86-1.61,1.7-2.36,2.51-9.6,10.31-12.53,15.44-15.36,20.4s-5.47,9.56-14.34,18.43c-.82.82-20.42,20.28-39.39,26.61l-.2.06c-.45.15-1.64.54-3.21,1.08l-2.25.77a8,8,0,0,1-1.43.43A4,4,0,0,1,248.9,958.57Zm15.56-98.22c-.43,2.06,1.12,4.08,2.37,5.71.31.39.59.76.81,1.08,6,8.74-2.76,25-12,42.17-8.22,15.27-16.72,31.05-13,39,1.43,3,4.71,7.38,6.35,7.12.07,0,.35-.11.89-.29l2.28-.79,3.24-1.08.18-.06c18.28-6.09,38-25.67,38.19-25.86,8.57-8.58,11-12.85,13.84-17.79s5.94-10.39,15.78-21l2.38-2.53c6.18-6.54,15.51-16.43,13.34-20.83-.3-.61-1.23-1.93-4.09-4a22.91,22.91,0,0,0-3.95-2.22,15.19,15.19,0,0,1-5.41-3.69,7.57,7.57,0,0,1-1.22-1.71,16.25,16.25,0,0,0-1.18-1.86c-1.19-1.68-2.67-3.51-8.87-8.85-5.15-4.43-6.54-5.25-6.91-5.34-.95.07-1.57.81-3.58,3.38-.85,1.08-1.91,2.43-3.3,4.07-5.05,6-9,10.64-13,9.62a4.86,4.86,0,0,1-3-2.76,3.6,3.6,0,0,0-1.74-1.87c-.45-.18-1.67-.67-8.94,3.35-5.48,3-9.1,5-9.5,7Z"/><path class="cls-5" d="M242.42,952.84a1.54,1.54,0,0,1-.48-3c3-1,6.05-2.12,9-3.38,8.08-3.45,35.72-16.73,51.76-42.74,1.2-2,2.22-3.78,3.21-5.56a74.39,74.39,0,0,1,9.49-14c.58-.68,1.2-1.38,1.86-2.11a105,105,0,0,0,8.31-10.32,99.66,99.66,0,0,0,5.61-9,1.55,1.55,0,0,1,2.71,1.49,104,104,0,0,1-5.8,9.27,106.12,106.12,0,0,1-8.53,10.59c-.64.72-1.25,1.41-1.83,2.08a71.44,71.44,0,0,0-9.12,13.52c-1,1.8-2,3.66-3.28,5.67-16.52,26.79-44.88,40.42-53.18,44-3,1.29-6.14,2.46-9.26,3.47A1.6,1.6,0,0,1,242.42,952.84Z"/><path class="cls-5" d="M276.94,884.33h-.05l-10.2-.32a1.55,1.55,0,0,1,.1-3.09l10.2.32a1.55,1.55,0,0,1-.05,3.09Z"/><path class="cls-5" d="M275.58,889.16h-.05l-10.2-.32a1.54,1.54,0,0,1,.1-3.08l10.2.32a1.54,1.54,0,0,1-.05,3.08Z"/><path class="cls-5" d="M272.67,893.9h-.05l-10.2-.32a1.55,1.55,0,0,1,.1-3.09l10.19.32a1.55,1.55,0,0,1,0,3.09Z"/><path class="cls-5" d="M270.27,898.07h0l-10.2-.32a1.54,1.54,0,0,1-1.5-1.59,1.57,1.57,0,0,1,1.59-1.49l10.2.31a1.55,1.55,0,0,1-.05,3.09Z"/><path class="cls-5" d="M147,1029.84c-7.36,0-16.28-5.75-22.58-9.81-1.42-.91-2.64-1.7-3.69-2.33A159.53,159.53,0,0,0,98,1006.78,171.66,171.66,0,0,1,71.91,994c-10.37-6.32-29.25-21.11-35.72-33.92l-.64-1c-.52-.87-1.18-1.93-1.32-2.19l-.47-.78a13.05,13.05,0,0,1-1.55-2.91c-1.09-4.86,4.43-10.51,7-11.86,12.24-6.34,31.23-1.16,49.6,3.85,17,4.65,33.11,9,41.25,3.59a9.82,9.82,0,0,0,1.49-1.45c1.54-1.7,3.67-4,7.31-3.92,3,.07,6.41,3.61,9.92,7.53.54.61,1,1.14,1.38,1.51,1.43,1.47,6.65,8,6.31,10.94a5.78,5.78,0,0,1-2.71,4.59c-.75.55-.93.68-.88,1.64.13,2.88,5.17,5.4,8.51,7.07,1.07.53,2.09,1,2.89,1.52a19.87,19.87,0,0,0,3.21,1.42c3,1.13,6.3,2.4,7.74,6.37.87,2.4-3.91,10-4.46,10.88-.37.58-.91,1.51-1.56,2.6-2.35,4-4.4,7.42-5.77,8.81-.66.66-1.13,1.1-1.52,1.46a8.61,8.61,0,0,0-1.54,1.74,14.25,14.25,0,0,0-2.11,5.32,24.83,24.83,0,0,1-2,5.75c-.06.13-.13.33-.22.58-.53,1.53-1.52,4.38-4.34,5.72A11,11,0,0,1,147,1029.84ZM35.21,952.41c.17.37.86,1.52,1.2,2.08.22.36.4.68.51.86s.76,1.26,1.27,2.08c.4.66.73,1.2.75,1.25,6.18,12.24,24.49,26.54,34.58,32.68a169,169,0,0,0,25.68,12.57,164.19,164.19,0,0,1,23.07,11.12c1.1.66,2.4,1.49,3.78,2.38,7.18,4.63,18,11.63,24.38,8.61,1.66-.79,2.32-2.68,2.76-3.94a8.59,8.59,0,0,1,.37-1,22,22,0,0,0,1.73-5.09,17.45,17.45,0,0,1,2.56-6.34,11.55,11.55,0,0,1,2-2.24c.37-.34.81-.76,1.43-1.38,1.21-1.23,3.68-5.42,5.31-8.2.67-1.13,1.24-2.1,1.62-2.7,1.73-2.72,4-7.13,4.1-8.32-1-2.52-3.26-3.38-5.88-4.38a23,23,0,0,1-3.7-1.66c-.7-.42-1.66-.9-2.68-1.41-4.22-2.11-10-5-10.21-9.69a4.41,4.41,0,0,1,2.15-4.28,2.83,2.83,0,0,0,1.46-2.43c0-1.1-2.92-5.83-5.46-8.44-.39-.4-.89-1-1.47-1.61-1.87-2.1-5.77-6.46-7.7-6.51h0c-2.28-.05-3.56,1.39-5,2.92a11.24,11.24,0,0,1-2.06,1.93c-9.31,6.24-26,1.67-43.78-3.17s-36.19-9.88-47.36-4.09C38.46,945.19,34.68,949.64,35.21,952.41ZM172.35,987h0Z"/><path class="cls-5" d="M155.32,1020.24a1.52,1.52,0,0,1-.42-.06c-2.33-.65-6-2-10.86-3.9-4.24-1.69-11.38-5.61-14.82-7.49l-.76-.42c-6.17-3.36-15-6.44-20.76-8.47l-2.25-.79c-22.38-8-45.78-27.91-57.33-43.52-4.41-6-4.53-6.35-4.74-7.05-.05-.18-.17-.59-2.61-4.08a1.54,1.54,0,1,1,2.53-1.77c2.72,3.9,2.87,4.4,3,5,.09.29.66,1.23,4.26,6.09C61.87,969,84.68,988.46,106.48,996.2l2.24.78c5.9,2.07,14.83,5.2,21.22,8.69l.76.41c3.38,1.86,10.42,5.71,14.48,7.33,4.7,1.87,8.35,3.19,10.55,3.8a1.54,1.54,0,0,1-.41,3Z"/><path class="cls-5" d="M121.68,966a1.55,1.55,0,0,1-1.51-1.26c-.61-3.25-1.36-7.08-2.41-10.87a1.55,1.55,0,0,1,3-.82c1.07,3.9,1.85,7.81,2.46,11.12a1.53,1.53,0,0,1-1.23,1.8A1.43,1.43,0,0,1,121.68,966Z"/><path class="cls-5" d="M115.66,965a1.54,1.54,0,0,1-1.52-1.28c-.62-3.51-1.45-6.94-2.4-10.74a1.54,1.54,0,0,1,3-.75c1,3.86,1.81,7.34,2.45,11a1.54,1.54,0,0,1-1.25,1.79Z"/><path class="cls-5" d="M109.71,962.49a1.55,1.55,0,0,1-1.46-1c-.32-.92-.65-1.83-1-2.74a71.55,71.55,0,0,1-2.5-7.87,1.54,1.54,0,1,1,3-.71,69.11,69.11,0,0,0,2.41,7.53c.33.92.66,1.85,1,2.78a1.54,1.54,0,0,1-1,2A1.51,1.51,0,0,1,109.71,962.49Z"/><path class="cls-5" d="M103.13,961.54a1.55,1.55,0,0,1-1.45-1,79.41,79.41,0,0,1-3-10.85,1.55,1.55,0,0,1,3-.64,73.3,73.3,0,0,0,2.85,10.42,1.55,1.55,0,0,1-.92,2A1.39,1.39,0,0,1,103.13,961.54Z"/><path class="cls-5" d="M307.2,610.52a1.55,1.55,0,0,1-1.28-2.4c.15-.26.88-1.68,1.79-3.46,3.15-6.15,10.52-20.55,19.45-36.36,3.73-6.6,7.81-13.76,12.07-21.22,5.39-9.47,11-19.25,16.48-29,7.18-12.74,14.26-28.57,20-41.28l2-4.42c7-15.48,14.62-24.07,17.13-26.9.3-.33.52-.57.64-.73.37-.83,1-2.56,1.87-4.73,5.42-14.15,8.87-22.09,11.56-23.56,9.31-5.09,19.1-10.32,29.09-15.55.59-.31,1.21-.61,1.83-.91,2.18-1.06,4.44-2.15,5.8-3.89a2.28,2.28,0,0,1,2.1-.93c2,.23,3.55,2.91,6,8.11.28.6.6,1.29.71,1.46a3.26,3.26,0,0,0,.66.85c1.43,1.08,5.58-.53,7.82-1.4.6-.23,1.14-.44,1.6-.59l1.8-.62c3.56-1.23,7.25-2.5,10.95-3.55,12.26-3.5,23.92-4.48,34.69-2.91a87.6,87.6,0,0,1,20.9,5.81,1.54,1.54,0,0,1-1.18,2.85,84.08,84.08,0,0,0-20.17-5.6C501.09,398,489.85,399,478,402.36c-3.63,1-7.27,2.29-10.79,3.51l-1.81.62c-.43.14-.93.34-1.49.55-3.37,1.31-8,3.09-10.79,1a5.72,5.72,0,0,1-1.42-1.69,18.3,18.3,0,0,1-.89-1.8,36,36,0,0,0-3.29-6,20.18,20.18,0,0,1-6.43,4.22c-.59.29-1.18.57-1.74.86-10,5.22-19.75,10.44-29,15.53-2.22,1.22-8.2,16.83-10.16,21.95-.93,2.42-1.6,4.16-2,5a6.17,6.17,0,0,1-1.09,1.4c-2.44,2.73-9.86,11.06-16.63,26.1l-2,4.42c-5.71,12.77-12.83,28.67-20.08,41.53-5.51,9.8-11.09,19.59-16.49,29.05-4.25,7.46-8.33,14.63-12.06,21.22-8.9,15.75-16,29.59-19.39,36.24-1.57,3.07-1.83,3.57-2,3.81A1.56,1.56,0,0,1,307.2,610.52Z"/><path class="cls-5" d="M480.83,471.43a1.44,1.44,0,0,1-.49-.08,10.58,10.58,0,0,1-2.67-1.33c-9.68-6.75-4.58-27.8-2.9-34.72A83.4,83.4,0,0,1,491,402.76a1.54,1.54,0,1,1,2.41,1.93A80.33,80.33,0,0,0,477.77,436c-2.87,11.82-4.91,26.88,1.66,31.45a7.35,7.35,0,0,0,1.9.95,1.54,1.54,0,0,1-.5,3Z"/><path class="cls-3" d="M228.14,799.64V229.19c-2.08-.87-6.72.34-9,1.14-4.79,1.66-2.38,7.73-6,11.41V823.12C218.19,815.21,223.38,807.1,228.14,799.64Z"/><path class="cls-5" d="M211.44,828.93V241l.48-.49c1.26-1.28,1.61-3,2-4.89.5-2.53,1.12-5.69,4.69-6.93,1.17-.41,7.17-2.38,10.21-1.11l1.05.44V800.14l-.27.41c-3.73,5.85-7.72,12.09-11.71,18.33Zm3.39-586.54V817.31l.17-.26,11.44-17.9V230.59a21.63,21.63,0,0,0-6.75,1.34c-1.65.58-2,1.9-2.47,4.39A12.71,12.71,0,0,1,214.83,242.39Z"/><path class="cls-5" d="M265.92,152.67a.92.92,0,0,1-.92-.8c-1.46-11.2-2.34-12.09-13.54-13.55a.92.92,0,0,1,0-1.83C262.66,135,263.54,134.15,265,123a.93.93,0,0,1,.92-.81h0a.93.93,0,0,1,.91.81c1.46,11.2,2.34,12.08,13.54,13.54a.92.92,0,0,1,0,1.83c-11.2,1.46-12.08,2.35-13.54,13.55A.92.92,0,0,1,265.92,152.67Zm-8.63-15.26c5.43,1.21,7.41,3.19,8.63,8.62,1.21-5.43,3.19-7.41,8.62-8.62-5.43-1.22-7.41-3.2-8.62-8.63C264.7,134.21,262.72,136.19,257.29,137.41Z"/><path class="cls-7" d="M257.29,137.41c5.43,1.21,7.41,3.19,8.63,8.62,1.21-5.43,3.19-7.41,8.62-8.62-5.43-1.22-7.41-3.2-8.62-8.63C264.7,134.21,262.72,136.19,257.29,137.41Z"/><path class="cls-5" d="M153,230.11a.86.86,0,0,1-.85-.75c-1.36-10.44-2.18-11.27-12.62-12.63a.85.85,0,0,1-.75-.85.87.87,0,0,1,.75-.86c10.44-1.35,11.26-2.18,12.62-12.62a.86.86,0,0,1,.85-.75h0a.86.86,0,0,1,.86.75c1.36,10.44,2.18,11.27,12.62,12.62a.87.87,0,0,1,.75.86.85.85,0,0,1-.75.85c-10.44,1.36-11.26,2.19-12.62,12.63A.86.86,0,0,1,153,230.11Zm-8-14.23c5.06,1.13,6.9,3,8,8,1.13-5.07,3-6.91,8-8-5.06-1.13-6.91-3-8-8C151.82,212.9,150,214.75,144.92,215.88Z"/><path class="cls-7" d="M144.92,215.88c5.06,1.13,6.9,3,8,8,1.13-5.07,3-6.91,8-8-5.06-1.13-6.91-3-8-8C151.82,212.9,150,214.75,144.92,215.88Z"/><path class="cls-5" d="M24.68,49.36a1.1,1.1,0,0,1-1.1-1C21.17,29.88,19.48,28.19,1,25.78a1.11,1.11,0,0,1,0-2.2C19.48,21.17,21.17,19.48,23.58,1a1.11,1.11,0,0,1,2.2,0c2.41,18.51,4.1,20.2,22.61,22.61a1.11,1.11,0,0,1,0,2.2c-18.51,2.41-20.2,4.1-22.61,22.61A1.1,1.1,0,0,1,24.68,49.36ZM8.52,24.68c10.94,2,14.12,5.22,16.16,16.17,2-11,5.22-14.13,16.17-16.17-11-2-14.13-5.22-16.17-16.16C22.64,19.46,19.46,22.64,8.52,24.68Z"/><path class="cls-7" d="M8.52,24.68c10.94,2,14.12,5.22,16.16,16.17,2-11,5.22-14.13,16.17-16.17-11-2-14.13-5.22-16.17-16.16C22.64,19.46,19.46,22.64,8.52,24.68Z"/></g></g></svg>